<?xml version="1.0" encoding="utf-8" standalone="no"?>
<!DOCTYPE svg PUBLIC "-//W3C//DTD SVG 1.1//EN"
  "http://www.w3.org/Graphics/SVG/1.1/DTD/svg11.dtd">
<svg height="360pt" version="1.1" viewBox="0 0 360 360" width="360pt" xmlns="http://www.w3.org/2000/svg" xmlns:xlink="http://www.w3.org/1999/xlink">
 <metadata>
  <rdf:RDF xmlns:cc="http://creativecommons.org/ns#" xmlns:dc="http://purl.org/dc/elements/1.1/" xmlns:rdf="http://www.w3.org/1999/02/22-rdf-syntax-ns#">
   <cc:Work>
    <dc:type rdf:resource="http://purl.org/dc/dcmitype/StillImage"/>
    <dc:date>2021-04-20T00:25:40.698884</dc:date>
    <dc:format>image/svg+xml</dc:format>
    <dc:creator>
     <cc:Agent>
      <dc:title>Matplotlib v3.4.1, https://matplotlib.org/</dc:title>
     </cc:Agent>
    </dc:creator>
   </cc:Work>
  </rdf:RDF>
 </metadata>
 <defs>
  <style type="text/css">*{stroke-linecap:butt;stroke-linejoin:round;}</style>
 </defs>
 <g id="figure_1">
  <g id="patch_1">
   <path d="M 0 360 
L 360 360 
L 360 0 
L 0 0 
z
" style="fill:none;"/>
  </g>
  <g id="axes_1">
   <g id="patch_2">
    <path d="M 24.175 332.2 
L 338.5779 332.2 
L 338.5779 21.8 
L 24.175 21.8 
z
" style="fill:#ffffff;"/>
   </g>
   <g id="PathCollection_1">
    <defs>
     <path d="M 0 3 
C 0.795609 3 1.55874 2.683901 2.12132 2.12132 
C 2.683901 1.55874 3 0.795609 3 0 
C 3 -0.795609 2.683901 -1.55874 2.12132 -2.12132 
C 1.55874 -2.683901 0.795609 -3 0 -3 
C -0.795609 -3 -1.55874 -2.683901 -2.12132 -2.12132 
C -2.683901 -1.55874 -3 -0.795609 -3 0 
C -3 0.795609 -2.683901 1.55874 -2.12132 2.12132 
C -1.55874 2.683901 -0.795609 3 0 3 
z
" id="m9a9c367d89" style="stroke:#1f77b4;stroke-opacity:0.8;"/>
    </defs>
    <g clip-path="url(#p06aa1c85ff)">
     <use style="fill:#1f77b4;fill-opacity:0.8;stroke:#1f77b4;stroke-opacity:0.8;" x="24.175" xlink:href="#m9a9c367d89" y="317.855113"/>
     <use style="fill:#1f77b4;fill-opacity:0.8;stroke:#1f77b4;stroke-opacity:0.8;" x="24.175002" xlink:href="#m9a9c367d89" y="317.855113"/>
     <use style="fill:#1f77b4;fill-opacity:0.8;stroke:#1f77b4;stroke-opacity:0.8;" x="24.175007" xlink:href="#m9a9c367d89" y="317.855113"/>
     <use style="fill:#1f77b4;fill-opacity:0.8;stroke:#1f77b4;stroke-opacity:0.8;" x="24.175013" xlink:href="#m9a9c367d89" y="317.855112"/>
     <use style="fill:#1f77b4;fill-opacity:0.8;stroke:#1f77b4;stroke-opacity:0.8;" x="24.175017" xlink:href="#m9a9c367d89" y="317.855112"/>
     <use style="fill:#1f77b4;fill-opacity:0.8;stroke:#1f77b4;stroke-opacity:0.8;" x="24.175033" xlink:href="#m9a9c367d89" y="317.855111"/>
     <use style="fill:#1f77b4;fill-opacity:0.8;stroke:#1f77b4;stroke-opacity:0.8;" x="24.175042" xlink:href="#m9a9c367d89" y="317.855111"/>
     <use style="fill:#1f77b4;fill-opacity:0.8;stroke:#1f77b4;stroke-opacity:0.8;" x="24.175087" xlink:href="#m9a9c367d89" y="317.85511"/>
     <use style="fill:#1f77b4;fill-opacity:0.8;stroke:#1f77b4;stroke-opacity:0.8;" x="24.175106" xlink:href="#m9a9c367d89" y="317.855108"/>
     <use style="fill:#1f77b4;fill-opacity:0.8;stroke:#1f77b4;stroke-opacity:0.8;" x="24.175136" xlink:href="#m9a9c367d89" y="317.855106"/>
     <use style="fill:#1f77b4;fill-opacity:0.8;stroke:#1f77b4;stroke-opacity:0.8;" x="24.17523" xlink:href="#m9a9c367d89" y="317.855103"/>
     <use style="fill:#1f77b4;fill-opacity:0.8;stroke:#1f77b4;stroke-opacity:0.8;" x="24.175248" xlink:href="#m9a9c367d89" y="317.855099"/>
     <use style="fill:#1f77b4;fill-opacity:0.8;stroke:#1f77b4;stroke-opacity:0.8;" x="24.175519" xlink:href="#m9a9c367d89" y="317.855094"/>
     <use style="fill:#1f77b4;fill-opacity:0.8;stroke:#1f77b4;stroke-opacity:0.8;" x="24.175806" xlink:href="#m9a9c367d89" y="317.855085"/>
     <use style="fill:#1f77b4;fill-opacity:0.8;stroke:#1f77b4;stroke-opacity:0.8;" x="24.176051" xlink:href="#m9a9c367d89" y="317.855074"/>
     <use style="fill:#1f77b4;fill-opacity:0.8;stroke:#1f77b4;stroke-opacity:0.8;" x="24.176607" xlink:href="#m9a9c367d89" y="317.855058"/>
     <use style="fill:#1f77b4;fill-opacity:0.8;stroke:#1f77b4;stroke-opacity:0.8;" x="24.17595" xlink:href="#m9a9c367d89" y="317.855035"/>
     <use style="fill:#1f77b4;fill-opacity:0.8;stroke:#1f77b4;stroke-opacity:0.8;" x="24.176876" xlink:href="#m9a9c367d89" y="317.855002"/>
     <use style="fill:#1f77b4;fill-opacity:0.8;stroke:#1f77b4;stroke-opacity:0.8;" x="24.17849" xlink:href="#m9a9c367d89" y="317.854956"/>
     <use style="fill:#1f77b4;fill-opacity:0.8;stroke:#1f77b4;stroke-opacity:0.8;" x="24.178243" xlink:href="#m9a9c367d89" y="317.854891"/>
     <use style="fill:#1f77b4;fill-opacity:0.8;stroke:#1f77b4;stroke-opacity:0.8;" x="24.180567" xlink:href="#m9a9c367d89" y="317.854799"/>
     <use style="fill:#1f77b4;fill-opacity:0.8;stroke:#1f77b4;stroke-opacity:0.8;" x="24.184462" xlink:href="#m9a9c367d89" y="317.854668"/>
     <use style="fill:#1f77b4;fill-opacity:0.8;stroke:#1f77b4;stroke-opacity:0.8;" x="24.178994" xlink:href="#m9a9c367d89" y="317.854484"/>
     <use style="fill:#1f77b4;fill-opacity:0.8;stroke:#1f77b4;stroke-opacity:0.8;" x="24.189354" xlink:href="#m9a9c367d89" y="317.854223"/>
     <use style="fill:#1f77b4;fill-opacity:0.8;stroke:#1f77b4;stroke-opacity:0.8;" x="24.220117" xlink:href="#m9a9c367d89" y="317.853855"/>
     <use style="fill:#1f77b4;fill-opacity:0.8;stroke:#1f77b4;stroke-opacity:0.8;" x="24.253848" xlink:href="#m9a9c367d89" y="317.853333"/>
     <use style="fill:#1f77b4;fill-opacity:0.8;stroke:#1f77b4;stroke-opacity:0.8;" x="24.211631" xlink:href="#m9a9c367d89" y="317.852596"/>
     <use style="fill:#1f77b4;fill-opacity:0.8;stroke:#1f77b4;stroke-opacity:0.8;" x="24.397275" xlink:href="#m9a9c367d89" y="317.851554"/>
     <use style="fill:#1f77b4;fill-opacity:0.8;stroke:#1f77b4;stroke-opacity:0.8;" x="24.318385" xlink:href="#m9a9c367d89" y="317.850079"/>
     <use style="fill:#1f77b4;fill-opacity:0.8;stroke:#1f77b4;stroke-opacity:0.8;" x="24.258545" xlink:href="#m9a9c367d89" y="317.847994"/>
     <use style="fill:#1f77b4;fill-opacity:0.8;stroke:#1f77b4;stroke-opacity:0.8;" x="24.348134" xlink:href="#m9a9c367d89" y="317.845045"/>
     <use style="fill:#1f77b4;fill-opacity:0.8;stroke:#1f77b4;stroke-opacity:0.8;" x="24.35427" xlink:href="#m9a9c367d89" y="317.840875"/>
     <use style="fill:#1f77b4;fill-opacity:0.8;stroke:#1f77b4;stroke-opacity:0.8;" x="24.28812" xlink:href="#m9a9c367d89" y="317.834977"/>
     <use style="fill:#1f77b4;fill-opacity:0.8;stroke:#1f77b4;stroke-opacity:0.8;" x="24.394941" xlink:href="#m9a9c367d89" y="317.826636"/>
     <use style="fill:#1f77b4;fill-opacity:0.8;stroke:#1f77b4;stroke-opacity:0.8;" x="24.403202" xlink:href="#m9a9c367d89" y="317.81484"/>
     <use style="fill:#1f77b4;fill-opacity:0.8;stroke:#1f77b4;stroke-opacity:0.8;" x="24.590554" xlink:href="#m9a9c367d89" y="317.798159"/>
     <use style="fill:#1f77b4;fill-opacity:0.8;stroke:#1f77b4;stroke-opacity:0.8;" x="24.312028" xlink:href="#m9a9c367d89" y="317.774567"/>
     <use style="fill:#1f77b4;fill-opacity:0.8;stroke:#1f77b4;stroke-opacity:0.8;" x="25.04537" xlink:href="#m9a9c367d89" y="317.741204"/>
     <use style="fill:#1f77b4;fill-opacity:0.8;stroke:#1f77b4;stroke-opacity:0.8;" x="24.395401" xlink:href="#m9a9c367d89" y="317.694022"/>
     <use style="fill:#1f77b4;fill-opacity:0.8;stroke:#1f77b4;stroke-opacity:0.8;" x="26.067651" xlink:href="#m9a9c367d89" y="317.627295"/>
     <use style="fill:#1f77b4;fill-opacity:0.8;stroke:#1f77b4;stroke-opacity:0.8;" x="26.130231" xlink:href="#m9a9c367d89" y="317.53293"/>
     <use style="fill:#1f77b4;fill-opacity:0.8;stroke:#1f77b4;stroke-opacity:0.8;" x="25.285693" xlink:href="#m9a9c367d89" y="317.399477"/>
     <use style="fill:#1f77b4;fill-opacity:0.8;stroke:#1f77b4;stroke-opacity:0.8;" x="24.98863" xlink:href="#m9a9c367d89" y="317.210747"/>
     <use style="fill:#1f77b4;fill-opacity:0.8;stroke:#1f77b4;stroke-opacity:0.8;" x="25.791483" xlink:href="#m9a9c367d89" y="316.943841"/>
     <use style="fill:#1f77b4;fill-opacity:0.8;stroke:#1f77b4;stroke-opacity:0.8;" x="32.07593" xlink:href="#m9a9c367d89" y="316.56638"/>
     <use style="fill:#1f77b4;fill-opacity:0.8;stroke:#1f77b4;stroke-opacity:0.8;" x="25.8113" xlink:href="#m9a9c367d89" y="316.032569"/>
     <use style="fill:#1f77b4;fill-opacity:0.8;stroke:#1f77b4;stroke-opacity:0.8;" x="36.376174" xlink:href="#m9a9c367d89" y="315.277647"/>
     <use style="fill:#1f77b4;fill-opacity:0.8;stroke:#1f77b4;stroke-opacity:0.8;" x="27.378186" xlink:href="#m9a9c367d89" y="314.210025"/>
     <use style="fill:#1f77b4;fill-opacity:0.8;stroke:#1f77b4;stroke-opacity:0.8;" x="31.375235" xlink:href="#m9a9c367d89" y="312.70018"/>
     <use style="fill:#1f77b4;fill-opacity:0.8;stroke:#1f77b4;stroke-opacity:0.8;" x="30.541334" xlink:href="#m9a9c367d89" y="310.564937"/>
     <use style="fill:#1f77b4;fill-opacity:0.8;stroke:#1f77b4;stroke-opacity:0.8;" x="32.532654" xlink:href="#m9a9c367d89" y="307.545246"/>
     <use style="fill:#1f77b4;fill-opacity:0.8;stroke:#1f77b4;stroke-opacity:0.8;" x="33.41429" xlink:href="#m9a9c367d89" y="303.27476"/>
     <use style="fill:#1f77b4;fill-opacity:0.8;stroke:#1f77b4;stroke-opacity:0.8;" x="58.561836" xlink:href="#m9a9c367d89" y="297.23538"/>
     <use style="fill:#1f77b4;fill-opacity:0.8;stroke:#1f77b4;stroke-opacity:0.8;" x="35.643455" xlink:href="#m9a9c367d89" y="288.694407"/>
     <use style="fill:#1f77b4;fill-opacity:0.8;stroke:#1f77b4;stroke-opacity:0.8;" x="82.877379" xlink:href="#m9a9c367d89" y="276.615646"/>
     <use style="fill:#1f77b4;fill-opacity:0.8;stroke:#1f77b4;stroke-opacity:0.8;" x="52.643992" xlink:href="#m9a9c367d89" y="259.5337"/>
     <use style="fill:#1f77b4;fill-opacity:0.8;stroke:#1f77b4;stroke-opacity:0.8;" x="338.5779" xlink:href="#m9a9c367d89" y="235.37618"/>
     <use style="fill:#1f77b4;fill-opacity:0.8;stroke:#1f77b4;stroke-opacity:0.8;" x="164.280129" xlink:href="#m9a9c367d89" y="201.212287"/>
     <use style="fill:#1f77b4;fill-opacity:0.8;stroke:#1f77b4;stroke-opacity:0.8;" x="236.523108" xlink:href="#m9a9c367d89" y="152.897246"/>
    </g>
   </g>
   <g id="PolyCollection_1">
    <path clip-path="url(#p06aa1c85ff)" d="M 24.175 313.03265 
L 24.175 318.090909 
L 27.350787 315.676591 
L 30.526574 314.423817 
L 33.702361 313.44373 
L 36.878147 312.545367 
L 40.053934 311.695659 
L 43.229721 310.804133 
L 46.405508 309.911733 
L 49.581295 309.02462 
L 52.757082 308.160621 
L 55.932869 307.290598 
L 59.108656 306.44568 
L 62.284442 305.600762 
L 65.460229 304.754797 
L 68.636016 303.898585 
L 71.811803 303.005557 
L 74.98759 302.11253 
L 78.163377 301.232254 
L 81.339164 300.391224 
L 84.514951 299.55779 
L 87.690737 298.658079 
L 90.866524 297.800652 
L 94.042311 296.943707 
L 97.218098 296.086762 
L 100.393885 295.229816 
L 103.569672 294.371684 
L 106.745459 293.51346 
L 109.921246 292.655237 
L 113.097032 291.797014 
L 116.272819 290.938791 
L 119.448606 290.080567 
L 122.624393 289.222344 
L 125.80018 288.364848 
L 128.975967 287.507563 
L 132.151754 286.650278 
L 135.32754 285.792489 
L 138.503327 284.934253 
L 141.679114 284.076684 
L 144.854901 283.220195 
L 148.030688 282.366589 
L 151.206475 281.512984 
L 154.382262 280.659378 
L 157.558049 279.805773 
L 160.733835 278.952167 
L 163.909622 278.098562 
L 167.085409 277.24469 
L 170.261196 276.390358 
L 173.436983 275.536026 
L 176.61277 274.681694 
L 179.788557 273.827363 
L 182.964344 272.96948 
L 186.14013 272.098279 
L 189.315917 271.227078 
L 192.491704 270.371096 
L 195.667491 269.515706 
L 198.843278 268.659997 
L 202.019065 267.804288 
L 205.194852 266.945139 
L 208.370639 266.075703 
L 211.546425 265.210116 
L 214.722212 264.352571 
L 217.897999 263.495027 
L 221.073786 262.637275 
L 224.249573 261.785645 
L 227.42536 260.92182 
L 230.601147 260.064478 
L 233.776933 259.207136 
L 236.95272 258.349758 
L 240.128507 257.492214 
L 243.304294 256.634669 
L 246.480081 255.777124 
L 249.655868 254.91958 
L 252.831655 254.062035 
L 256.007442 253.20449 
L 259.183228 252.346946 
L 262.359015 251.489401 
L 265.534802 250.631856 
L 268.710589 249.774312 
L 271.886376 248.916767 
L 275.062163 248.059222 
L 278.23795 247.201678 
L 281.413737 246.344133 
L 284.589523 245.486588 
L 287.76531 244.629044 
L 290.941097 243.771499 
L 294.116884 242.913954 
L 297.292671 242.056287 
L 300.468458 241.198561 
L 303.644245 240.340835 
L 306.820032 239.483109 
L 309.995818 238.625384 
L 313.171605 237.767658 
L 316.347392 236.909915 
L 319.523179 236.052113 
L 322.698966 235.194312 
L 325.874753 234.336511 
L 329.05054 233.47871 
L 332.226326 232.620909 
L 335.402113 231.763107 
L 338.5779 230.903212 
L 338.5779 35.909091 
L 338.5779 35.909091 
L 335.402113 38.750796 
L 332.226326 41.592502 
L 329.05054 44.434208 
L 325.874753 47.275913 
L 322.698966 50.117619 
L 319.523179 52.959324 
L 316.347392 55.80103 
L 313.171605 58.642735 
L 309.995818 61.484441 
L 306.820032 64.326147 
L 303.644245 67.167852 
L 300.468458 70.009558 
L 297.292671 72.851263 
L 294.116884 75.692969 
L 290.941097 78.534674 
L 287.76531 81.37638 
L 284.589523 84.218086 
L 281.413737 87.059791 
L 278.23795 89.901497 
L 275.062163 92.743202 
L 271.886376 95.585093 
L 268.710589 98.427163 
L 265.534802 101.269233 
L 262.359015 104.111303 
L 259.183228 106.953373 
L 256.007442 109.795443 
L 252.831655 112.637513 
L 249.655868 115.479583 
L 246.480081 118.321653 
L 243.304294 121.163723 
L 240.128507 124.005793 
L 236.95272 126.847863 
L 233.776933 129.689934 
L 230.601147 132.532004 
L 227.42536 135.374074 
L 224.249573 138.216144 
L 221.073786 141.058214 
L 217.897999 143.900284 
L 214.722212 146.742354 
L 211.546425 149.584424 
L 208.370639 152.426494 
L 205.194852 155.268564 
L 202.019065 158.110634 
L 198.843278 160.952704 
L 195.667491 163.794774 
L 192.491704 166.636845 
L 189.315917 169.478915 
L 186.14013 172.320985 
L 182.964344 175.163055 
L 179.788557 178.005125 
L 176.61277 180.847195 
L 173.436983 183.689265 
L 170.261196 186.531335 
L 167.085409 189.373405 
L 163.909622 192.215475 
L 160.733835 195.057545 
L 157.558049 197.899615 
L 154.382262 200.741685 
L 151.206475 203.583756 
L 148.030688 206.425826 
L 144.854901 209.267896 
L 141.679114 212.109966 
L 138.503327 214.952036 
L 135.32754 217.794106 
L 132.151754 220.636176 
L 128.975967 223.478246 
L 125.80018 226.320316 
L 122.624393 229.162386 
L 119.448606 232.004456 
L 116.272819 234.846526 
L 113.097032 237.688596 
L 109.921246 240.530666 
L 106.745459 243.372737 
L 103.569672 246.214807 
L 100.393885 249.056877 
L 97.218098 251.90919 
L 94.042311 254.77651 
L 90.866524 257.64383 
L 87.690737 260.51115 
L 84.514951 263.37847 
L 81.339164 266.24579 
L 78.163377 269.11311 
L 74.98759 271.98043 
L 71.811803 274.84775 
L 68.636016 277.664907 
L 65.460229 280.408979 
L 62.284442 283.154111 
L 59.108656 285.993021 
L 55.932869 288.831931 
L 52.757082 291.651082 
L 49.581295 294.439219 
L 46.405508 297.230801 
L 43.229721 299.887586 
L 40.053934 302.562386 
L 36.878147 305.323234 
L 33.702361 307.908958 
L 30.526574 310.100746 
L 27.350787 311.743692 
L 24.175 313.03265 
z
" style="fill:#1f77b4;fill-opacity:0.15;"/>
   </g>
   <g id="matplotlib.axis_1">
    <g id="xtick_1">
     <g id="line2d_1">
      <defs>
       <path d="M 0 0 
L 0 3.5 
" id="mc4940d4347" style="stroke:#000000;stroke-width:0.8;"/>
      </defs>
      <g>
       <use style="stroke:#000000;stroke-width:0.8;" x="86.007267" xlink:href="#mc4940d4347" y="332.2"/>
      </g>
     </g>
     <g id="text_1">
      <!-- 5000 -->
      <g transform="translate(73.282267 346.798438)scale(0.1 -0.1)">
       <defs>
        <path d="M 691 4666 
L 3169 4666 
L 3169 4134 
L 1269 4134 
L 1269 2991 
Q 1406 3038 1543 3061 
Q 1681 3084 1819 3084 
Q 2600 3084 3056 2656 
Q 3513 2228 3513 1497 
Q 3513 744 3044 326 
Q 2575 -91 1722 -91 
Q 1428 -91 1123 -41 
Q 819 9 494 109 
L 494 744 
Q 775 591 1075 516 
Q 1375 441 1709 441 
Q 2250 441 2565 725 
Q 2881 1009 2881 1497 
Q 2881 1984 2565 2268 
Q 2250 2553 1709 2553 
Q 1456 2553 1204 2497 
Q 953 2441 691 2322 
L 691 4666 
z
" id="DejaVuSans-35" transform="scale(0.015625)"/>
        <path d="M 2034 4250 
Q 1547 4250 1301 3770 
Q 1056 3291 1056 2328 
Q 1056 1369 1301 889 
Q 1547 409 2034 409 
Q 2525 409 2770 889 
Q 3016 1369 3016 2328 
Q 3016 3291 2770 3770 
Q 2525 4250 2034 4250 
z
M 2034 4750 
Q 2819 4750 3233 4129 
Q 3647 3509 3647 2328 
Q 3647 1150 3233 529 
Q 2819 -91 2034 -91 
Q 1250 -91 836 529 
Q 422 1150 422 2328 
Q 422 3509 836 4129 
Q 1250 4750 2034 4750 
z
" id="DejaVuSans-30" transform="scale(0.015625)"/>
       </defs>
       <use xlink:href="#DejaVuSans-35"/>
       <use x="63.623047" xlink:href="#DejaVuSans-30"/>
       <use x="127.246094" xlink:href="#DejaVuSans-30"/>
       <use x="190.869141" xlink:href="#DejaVuSans-30"/>
      </g>
     </g>
    </g>
    <g id="xtick_2">
     <g id="line2d_2">
      <g>
       <use style="stroke:#000000;stroke-width:0.8;" x="147.839545" xlink:href="#mc4940d4347" y="332.2"/>
      </g>
     </g>
     <g id="text_2">
      <!-- 10000 -->
      <g transform="translate(131.933295 346.798438)scale(0.1 -0.1)">
       <defs>
        <path d="M 794 531 
L 1825 531 
L 1825 4091 
L 703 3866 
L 703 4441 
L 1819 4666 
L 2450 4666 
L 2450 531 
L 3481 531 
L 3481 0 
L 794 0 
L 794 531 
z
" id="DejaVuSans-31" transform="scale(0.015625)"/>
       </defs>
       <use xlink:href="#DejaVuSans-31"/>
       <use x="63.623047" xlink:href="#DejaVuSans-30"/>
       <use x="127.246094" xlink:href="#DejaVuSans-30"/>
       <use x="190.869141" xlink:href="#DejaVuSans-30"/>
       <use x="254.492188" xlink:href="#DejaVuSans-30"/>
      </g>
     </g>
    </g>
    <g id="xtick_3">
     <g id="line2d_3">
      <g>
       <use style="stroke:#000000;stroke-width:0.8;" x="209.671823" xlink:href="#mc4940d4347" y="332.2"/>
      </g>
     </g>
     <g id="text_3">
      <!-- 15000 -->
      <g transform="translate(193.765573 346.798438)scale(0.1 -0.1)">
       <use xlink:href="#DejaVuSans-31"/>
       <use x="63.623047" xlink:href="#DejaVuSans-35"/>
       <use x="127.246094" xlink:href="#DejaVuSans-30"/>
       <use x="190.869141" xlink:href="#DejaVuSans-30"/>
       <use x="254.492188" xlink:href="#DejaVuSans-30"/>
      </g>
     </g>
    </g>
    <g id="xtick_4">
     <g id="line2d_4">
      <g>
       <use style="stroke:#000000;stroke-width:0.8;" x="271.5041" xlink:href="#mc4940d4347" y="332.2"/>
      </g>
     </g>
     <g id="text_4">
      <!-- 20000 -->
      <g transform="translate(255.59785 346.798438)scale(0.1 -0.1)">
       <defs>
        <path d="M 1228 531 
L 3431 531 
L 3431 0 
L 469 0 
L 469 531 
Q 828 903 1448 1529 
Q 2069 2156 2228 2338 
Q 2531 2678 2651 2914 
Q 2772 3150 2772 3378 
Q 2772 3750 2511 3984 
Q 2250 4219 1831 4219 
Q 1534 4219 1204 4116 
Q 875 4013 500 3803 
L 500 4441 
Q 881 4594 1212 4672 
Q 1544 4750 1819 4750 
Q 2544 4750 2975 4387 
Q 3406 4025 3406 3419 
Q 3406 3131 3298 2873 
Q 3191 2616 2906 2266 
Q 2828 2175 2409 1742 
Q 1991 1309 1228 531 
z
" id="DejaVuSans-32" transform="scale(0.015625)"/>
       </defs>
       <use xlink:href="#DejaVuSans-32"/>
       <use x="63.623047" xlink:href="#DejaVuSans-30"/>
       <use x="127.246094" xlink:href="#DejaVuSans-30"/>
       <use x="190.869141" xlink:href="#DejaVuSans-30"/>
       <use x="254.492188" xlink:href="#DejaVuSans-30"/>
      </g>
     </g>
    </g>
    <g id="xtick_5">
     <g id="line2d_5">
      <g>
       <use style="stroke:#000000;stroke-width:0.8;" x="333.336378" xlink:href="#mc4940d4347" y="332.2"/>
      </g>
     </g>
     <g id="text_5">
      <!-- 25000 -->
      <g transform="translate(317.430128 346.798438)scale(0.1 -0.1)">
       <use xlink:href="#DejaVuSans-32"/>
       <use x="63.623047" xlink:href="#DejaVuSans-35"/>
       <use x="127.246094" xlink:href="#DejaVuSans-30"/>
       <use x="190.869141" xlink:href="#DejaVuSans-30"/>
       <use x="254.492188" xlink:href="#DejaVuSans-30"/>
      </g>
     </g>
    </g>
    <g id="text_6">
     <!-- tiempo -->
     <g transform="translate(163.846763 360.476562)scale(0.1 -0.1)">
      <defs>
       <path d="M 1172 4494 
L 1172 3500 
L 2356 3500 
L 2356 3053 
L 1172 3053 
L 1172 1153 
Q 1172 725 1289 603 
Q 1406 481 1766 481 
L 2356 481 
L 2356 0 
L 1766 0 
Q 1100 0 847 248 
Q 594 497 594 1153 
L 594 3053 
L 172 3053 
L 172 3500 
L 594 3500 
L 594 4494 
L 1172 4494 
z
" id="DejaVuSans-74" transform="scale(0.015625)"/>
       <path d="M 603 3500 
L 1178 3500 
L 1178 0 
L 603 0 
L 603 3500 
z
M 603 4863 
L 1178 4863 
L 1178 4134 
L 603 4134 
L 603 4863 
z
" id="DejaVuSans-69" transform="scale(0.015625)"/>
       <path d="M 3597 1894 
L 3597 1613 
L 953 1613 
Q 991 1019 1311 708 
Q 1631 397 2203 397 
Q 2534 397 2845 478 
Q 3156 559 3463 722 
L 3463 178 
Q 3153 47 2828 -22 
Q 2503 -91 2169 -91 
Q 1331 -91 842 396 
Q 353 884 353 1716 
Q 353 2575 817 3079 
Q 1281 3584 2069 3584 
Q 2775 3584 3186 3129 
Q 3597 2675 3597 1894 
z
M 3022 2063 
Q 3016 2534 2758 2815 
Q 2500 3097 2075 3097 
Q 1594 3097 1305 2825 
Q 1016 2553 972 2059 
L 3022 2063 
z
" id="DejaVuSans-65" transform="scale(0.015625)"/>
       <path d="M 3328 2828 
Q 3544 3216 3844 3400 
Q 4144 3584 4550 3584 
Q 5097 3584 5394 3201 
Q 5691 2819 5691 2113 
L 5691 0 
L 5113 0 
L 5113 2094 
Q 5113 2597 4934 2840 
Q 4756 3084 4391 3084 
Q 3944 3084 3684 2787 
Q 3425 2491 3425 1978 
L 3425 0 
L 2847 0 
L 2847 2094 
Q 2847 2600 2669 2842 
Q 2491 3084 2119 3084 
Q 1678 3084 1418 2786 
Q 1159 2488 1159 1978 
L 1159 0 
L 581 0 
L 581 3500 
L 1159 3500 
L 1159 2956 
Q 1356 3278 1631 3431 
Q 1906 3584 2284 3584 
Q 2666 3584 2933 3390 
Q 3200 3197 3328 2828 
z
" id="DejaVuSans-6d" transform="scale(0.015625)"/>
       <path d="M 1159 525 
L 1159 -1331 
L 581 -1331 
L 581 3500 
L 1159 3500 
L 1159 2969 
Q 1341 3281 1617 3432 
Q 1894 3584 2278 3584 
Q 2916 3584 3314 3078 
Q 3713 2572 3713 1747 
Q 3713 922 3314 415 
Q 2916 -91 2278 -91 
Q 1894 -91 1617 61 
Q 1341 213 1159 525 
z
M 3116 1747 
Q 3116 2381 2855 2742 
Q 2594 3103 2138 3103 
Q 1681 3103 1420 2742 
Q 1159 2381 1159 1747 
Q 1159 1113 1420 752 
Q 1681 391 2138 391 
Q 2594 391 2855 752 
Q 3116 1113 3116 1747 
z
" id="DejaVuSans-70" transform="scale(0.015625)"/>
       <path d="M 1959 3097 
Q 1497 3097 1228 2736 
Q 959 2375 959 1747 
Q 959 1119 1226 758 
Q 1494 397 1959 397 
Q 2419 397 2687 759 
Q 2956 1122 2956 1747 
Q 2956 2369 2687 2733 
Q 2419 3097 1959 3097 
z
M 1959 3584 
Q 2709 3584 3137 3096 
Q 3566 2609 3566 1747 
Q 3566 888 3137 398 
Q 2709 -91 1959 -91 
Q 1206 -91 779 398 
Q 353 888 353 1747 
Q 353 2609 779 3096 
Q 1206 3584 1959 3584 
z
" id="DejaVuSans-6f" transform="scale(0.015625)"/>
      </defs>
      <use xlink:href="#DejaVuSans-74"/>
      <use x="39.208984" xlink:href="#DejaVuSans-69"/>
      <use x="66.992188" xlink:href="#DejaVuSans-65"/>
      <use x="128.515625" xlink:href="#DejaVuSans-6d"/>
      <use x="225.927734" xlink:href="#DejaVuSans-70"/>
      <use x="289.404297" xlink:href="#DejaVuSans-6f"/>
     </g>
    </g>
   </g>
   <g id="matplotlib.axis_2">
    <g id="ytick_1">
     <g id="line2d_6">
      <defs>
       <path d="M 0 0 
L -3.5 0 
" id="m47894506bd" style="stroke:#000000;stroke-width:0.8;"/>
      </defs>
      <g>
       <use style="stroke:#000000;stroke-width:0.8;" x="24.175" xlink:href="#m47894506bd" y="317.855113"/>
      </g>
     </g>
     <g id="text_7">
      <!-- 0 -->
      <g transform="translate(10.8125 321.654332)scale(0.1 -0.1)">
       <use xlink:href="#DejaVuSans-30"/>
      </g>
     </g>
    </g>
    <g id="ytick_2">
     <g id="line2d_7">
      <g>
       <use style="stroke:#000000;stroke-width:0.8;" x="24.175" xlink:href="#m47894506bd" y="256.403519"/>
      </g>
     </g>
     <g id="text_8">
      <!-- 1 -->
      <g transform="translate(10.8125 260.202738)scale(0.1 -0.1)">
       <use xlink:href="#DejaVuSans-31"/>
      </g>
     </g>
    </g>
    <g id="ytick_3">
     <g id="line2d_8">
      <g>
       <use style="stroke:#000000;stroke-width:0.8;" x="24.175" xlink:href="#m47894506bd" y="194.951925"/>
      </g>
     </g>
     <g id="text_9">
      <!-- 2 -->
      <g transform="translate(10.8125 198.751144)scale(0.1 -0.1)">
       <use xlink:href="#DejaVuSans-32"/>
      </g>
     </g>
    </g>
    <g id="ytick_4">
     <g id="line2d_9">
      <g>
       <use style="stroke:#000000;stroke-width:0.8;" x="24.175" xlink:href="#m47894506bd" y="133.500331"/>
      </g>
     </g>
     <g id="text_10">
      <!-- 3 -->
      <g transform="translate(10.8125 137.29955)scale(0.1 -0.1)">
       <defs>
        <path d="M 2597 2516 
Q 3050 2419 3304 2112 
Q 3559 1806 3559 1356 
Q 3559 666 3084 287 
Q 2609 -91 1734 -91 
Q 1441 -91 1130 -33 
Q 819 25 488 141 
L 488 750 
Q 750 597 1062 519 
Q 1375 441 1716 441 
Q 2309 441 2620 675 
Q 2931 909 2931 1356 
Q 2931 1769 2642 2001 
Q 2353 2234 1838 2234 
L 1294 2234 
L 1294 2753 
L 1863 2753 
Q 2328 2753 2575 2939 
Q 2822 3125 2822 3475 
Q 2822 3834 2567 4026 
Q 2313 4219 1838 4219 
Q 1578 4219 1281 4162 
Q 984 4106 628 3988 
L 628 4550 
Q 988 4650 1302 4700 
Q 1616 4750 1894 4750 
Q 2613 4750 3031 4423 
Q 3450 4097 3450 3541 
Q 3450 3153 3228 2886 
Q 3006 2619 2597 2516 
z
" id="DejaVuSans-33" transform="scale(0.015625)"/>
       </defs>
       <use xlink:href="#DejaVuSans-33"/>
      </g>
     </g>
    </g>
    <g id="ytick_5">
     <g id="line2d_10">
      <g>
       <use style="stroke:#000000;stroke-width:0.8;" x="24.175" xlink:href="#m47894506bd" y="72.048737"/>
      </g>
     </g>
     <g id="text_11">
      <!-- 4 -->
      <g transform="translate(10.8125 75.847955)scale(0.1 -0.1)">
       <defs>
        <path d="M 2419 4116 
L 825 1625 
L 2419 1625 
L 2419 4116 
z
M 2253 4666 
L 3047 4666 
L 3047 1625 
L 3713 1625 
L 3713 1100 
L 3047 1100 
L 3047 0 
L 2419 0 
L 2419 1100 
L 313 1100 
L 313 1709 
L 2253 4666 
z
" id="DejaVuSans-34" transform="scale(0.015625)"/>
       </defs>
       <use xlink:href="#DejaVuSans-34"/>
      </g>
     </g>
    </g>
    <g id="text_12">
     <!-- complejidad -->
     <g transform="translate(4.732812 207.509375)rotate(-90)scale(0.1 -0.1)">
      <defs>
       <path d="M 3122 3366 
L 3122 2828 
Q 2878 2963 2633 3030 
Q 2388 3097 2138 3097 
Q 1578 3097 1268 2742 
Q 959 2388 959 1747 
Q 959 1106 1268 751 
Q 1578 397 2138 397 
Q 2388 397 2633 464 
Q 2878 531 3122 666 
L 3122 134 
Q 2881 22 2623 -34 
Q 2366 -91 2075 -91 
Q 1284 -91 818 406 
Q 353 903 353 1747 
Q 353 2603 823 3093 
Q 1294 3584 2113 3584 
Q 2378 3584 2631 3529 
Q 2884 3475 3122 3366 
z
" id="DejaVuSans-63" transform="scale(0.015625)"/>
       <path d="M 603 4863 
L 1178 4863 
L 1178 0 
L 603 0 
L 603 4863 
z
" id="DejaVuSans-6c" transform="scale(0.015625)"/>
       <path d="M 603 3500 
L 1178 3500 
L 1178 -63 
Q 1178 -731 923 -1031 
Q 669 -1331 103 -1331 
L -116 -1331 
L -116 -844 
L 38 -844 
Q 366 -844 484 -692 
Q 603 -541 603 -63 
L 603 3500 
z
M 603 4863 
L 1178 4863 
L 1178 4134 
L 603 4134 
L 603 4863 
z
" id="DejaVuSans-6a" transform="scale(0.015625)"/>
       <path d="M 2906 2969 
L 2906 4863 
L 3481 4863 
L 3481 0 
L 2906 0 
L 2906 525 
Q 2725 213 2448 61 
Q 2172 -91 1784 -91 
Q 1150 -91 751 415 
Q 353 922 353 1747 
Q 353 2572 751 3078 
Q 1150 3584 1784 3584 
Q 2172 3584 2448 3432 
Q 2725 3281 2906 2969 
z
M 947 1747 
Q 947 1113 1208 752 
Q 1469 391 1925 391 
Q 2381 391 2643 752 
Q 2906 1113 2906 1747 
Q 2906 2381 2643 2742 
Q 2381 3103 1925 3103 
Q 1469 3103 1208 2742 
Q 947 2381 947 1747 
z
" id="DejaVuSans-64" transform="scale(0.015625)"/>
       <path d="M 2194 1759 
Q 1497 1759 1228 1600 
Q 959 1441 959 1056 
Q 959 750 1161 570 
Q 1363 391 1709 391 
Q 2188 391 2477 730 
Q 2766 1069 2766 1631 
L 2766 1759 
L 2194 1759 
z
M 3341 1997 
L 3341 0 
L 2766 0 
L 2766 531 
Q 2569 213 2275 61 
Q 1981 -91 1556 -91 
Q 1019 -91 701 211 
Q 384 513 384 1019 
Q 384 1609 779 1909 
Q 1175 2209 1959 2209 
L 2766 2209 
L 2766 2266 
Q 2766 2663 2505 2880 
Q 2244 3097 1772 3097 
Q 1472 3097 1187 3025 
Q 903 2953 641 2809 
L 641 3341 
Q 956 3463 1253 3523 
Q 1550 3584 1831 3584 
Q 2591 3584 2966 3190 
Q 3341 2797 3341 1997 
z
" id="DejaVuSans-61" transform="scale(0.015625)"/>
      </defs>
      <use xlink:href="#DejaVuSans-63"/>
      <use x="54.980469" xlink:href="#DejaVuSans-6f"/>
      <use x="116.162109" xlink:href="#DejaVuSans-6d"/>
      <use x="213.574219" xlink:href="#DejaVuSans-70"/>
      <use x="277.050781" xlink:href="#DejaVuSans-6c"/>
      <use x="304.833984" xlink:href="#DejaVuSans-65"/>
      <use x="366.357422" xlink:href="#DejaVuSans-6a"/>
      <use x="394.140625" xlink:href="#DejaVuSans-69"/>
      <use x="421.923828" xlink:href="#DejaVuSans-64"/>
      <use x="485.400391" xlink:href="#DejaVuSans-61"/>
      <use x="546.679688" xlink:href="#DejaVuSans-64"/>
     </g>
    </g>
    <g id="text_13">
     <!-- 1e6 -->
     <g transform="translate(24.175 18.8)scale(0.1 -0.1)">
      <defs>
       <path d="M 2113 2584 
Q 1688 2584 1439 2293 
Q 1191 2003 1191 1497 
Q 1191 994 1439 701 
Q 1688 409 2113 409 
Q 2538 409 2786 701 
Q 3034 994 3034 1497 
Q 3034 2003 2786 2293 
Q 2538 2584 2113 2584 
z
M 3366 4563 
L 3366 3988 
Q 3128 4100 2886 4159 
Q 2644 4219 2406 4219 
Q 1781 4219 1451 3797 
Q 1122 3375 1075 2522 
Q 1259 2794 1537 2939 
Q 1816 3084 2150 3084 
Q 2853 3084 3261 2657 
Q 3669 2231 3669 1497 
Q 3669 778 3244 343 
Q 2819 -91 2113 -91 
Q 1303 -91 875 529 
Q 447 1150 447 2328 
Q 447 3434 972 4092 
Q 1497 4750 2381 4750 
Q 2619 4750 2861 4703 
Q 3103 4656 3366 4563 
z
" id="DejaVuSans-36" transform="scale(0.015625)"/>
      </defs>
      <use xlink:href="#DejaVuSans-31"/>
      <use x="63.623047" xlink:href="#DejaVuSans-65"/>
      <use x="125.146484" xlink:href="#DejaVuSans-36"/>
     </g>
    </g>
   </g>
   <g id="line2d_11">
    <path clip-path="url(#p06aa1c85ff)" d="M 24.175 315.285465 
L 27.350787 313.777108 
L 30.526574 312.268751 
L 33.702361 310.760394 
L 36.878147 309.252037 
L 40.053934 307.74368 
L 43.229721 306.235323 
L 46.405508 304.726967 
L 49.581295 303.21861 
L 52.757082 301.710253 
L 55.932869 300.201896 
L 59.108656 298.693539 
L 62.284442 297.185182 
L 65.460229 295.676825 
L 68.636016 294.168468 
L 71.811803 292.660111 
L 74.98759 291.151754 
L 78.163377 289.643398 
L 81.339164 288.135041 
L 84.514951 286.626684 
L 87.690737 285.118327 
L 90.866524 283.60997 
L 94.042311 282.101613 
L 97.218098 280.593256 
L 100.393885 279.084899 
L 103.569672 277.576542 
L 106.745459 276.068185 
L 109.921246 274.559829 
L 113.097032 273.051472 
L 116.272819 271.543115 
L 119.448606 270.034758 
L 122.624393 268.526401 
L 125.80018 267.018044 
L 128.975967 265.509687 
L 132.151754 264.00133 
L 135.32754 262.492973 
L 138.503327 260.984616 
L 141.679114 259.47626 
L 144.854901 257.967903 
L 148.030688 256.459546 
L 151.206475 254.951189 
L 154.382262 253.442832 
L 157.558049 251.934475 
L 160.733835 250.426118 
L 163.909622 248.917761 
L 167.085409 247.409404 
L 170.261196 245.901047 
L 173.436983 244.392691 
L 176.61277 242.884334 
L 179.788557 241.375977 
L 182.964344 239.86762 
L 186.14013 238.359263 
L 189.315917 236.850906 
L 192.491704 235.342549 
L 195.667491 233.834192 
L 198.843278 232.325835 
L 202.019065 230.817478 
L 205.194852 229.309122 
L 208.370639 227.800765 
L 211.546425 226.292408 
L 214.722212 224.784051 
L 217.897999 223.275694 
L 221.073786 221.767337 
L 224.249573 220.25898 
L 227.42536 218.750623 
L 230.601147 217.242266 
L 233.776933 215.73391 
L 236.95272 214.225553 
L 240.128507 212.717196 
L 243.304294 211.208839 
L 246.480081 209.700482 
L 249.655868 208.192125 
L 252.831655 206.683768 
L 256.007442 205.175411 
L 259.183228 203.667054 
L 262.359015 202.158697 
L 265.534802 200.650341 
L 268.710589 199.141984 
L 271.886376 197.633627 
L 275.062163 196.12527 
L 278.23795 194.616913 
L 281.413737 193.108556 
L 284.589523 191.600199 
L 287.76531 190.091842 
L 290.941097 188.583485 
L 294.116884 187.075128 
L 297.292671 185.566772 
L 300.468458 184.058415 
L 303.644245 182.550058 
L 306.820032 181.041701 
L 309.995818 179.533344 
L 313.171605 178.024987 
L 316.347392 176.51663 
L 319.523179 175.008273 
L 322.698966 173.499916 
L 325.874753 171.991559 
L 329.05054 170.483203 
L 332.226326 168.974846 
L 335.402113 167.466489 
L 338.5779 165.958132 
" style="fill:none;stroke:#1f77b4;stroke-linecap:square;stroke-width:2.25;"/>
   </g>
   <g id="patch_3">
    <path d="M 24.175 332.2 
L 24.175 21.8 
" style="fill:none;stroke:#000000;stroke-linecap:square;stroke-linejoin:miter;stroke-width:0.8;"/>
   </g>
   <g id="patch_4">
    <path d="M 24.175 332.2 
L 338.5779 332.2 
" style="fill:none;stroke:#000000;stroke-linecap:square;stroke-linejoin:miter;stroke-width:0.8;"/>
   </g>
  </g>
 </g>
 <defs>
  <clipPath id="p06aa1c85ff">
   <rect height="310.4" width="314.4029" x="24.175" y="21.8"/>
  </clipPath>
 </defs>
</svg>
