<?xml version="1.0" encoding="utf-8" standalone="no"?>
<!DOCTYPE svg PUBLIC "-//W3C//DTD SVG 1.1//EN"
  "http://www.w3.org/Graphics/SVG/1.1/DTD/svg11.dtd">
<svg height="288pt" version="1.1" viewBox="0 0 432 288" width="432pt" xmlns="http://www.w3.org/2000/svg" xmlns:xlink="http://www.w3.org/1999/xlink">
 <metadata>
  <rdf:RDF xmlns:cc="http://creativecommons.org/ns#" xmlns:dc="http://purl.org/dc/elements/1.1/" xmlns:rdf="http://www.w3.org/1999/02/22-rdf-syntax-ns#">
   <cc:Work>
    <dc:type rdf:resource="http://purl.org/dc/dcmitype/StillImage"/>
    <dc:date>2021-04-20T00:45:50.692767</dc:date>
    <dc:format>image/svg+xml</dc:format>
    <dc:creator>
     <cc:Agent>
      <dc:title>Matplotlib v3.4.1, https://matplotlib.org/</dc:title>
     </cc:Agent>
    </dc:creator>
   </cc:Work>
  </rdf:RDF>
 </metadata>
 <defs>
  <style type="text/css">*{stroke-linecap:butt;stroke-linejoin:round;}</style>
 </defs>
 <g id="figure_1">
  <g id="patch_1">
   <path d="M 0 288 
L 432 288 
L 432 0 
L 0 0 
z
" style="fill:none;"/>
  </g>
  <g id="axes_1">
   <g id="patch_2">
    <path d="M 54 252 
L 388.8 252 
L 388.8 34.56 
L 54 34.56 
z
" style="fill:#ffffff;"/>
   </g>
   <g id="PathCollection_1">
    <defs>
     <path d="M 0 3 
C 0.795609 3 1.55874 2.683901 2.12132 2.12132 
C 2.683901 1.55874 3 0.795609 3 0 
C 3 -0.795609 2.683901 -1.55874 2.12132 -2.12132 
C 1.55874 -2.683901 0.795609 -3 0 -3 
C -0.795609 -3 -1.55874 -2.683901 -2.12132 -2.12132 
C -2.683901 -1.55874 -3 -0.795609 -3 0 
C -3 0.795609 -2.683901 1.55874 -2.12132 2.12132 
C -1.55874 2.683901 -0.795609 3 0 3 
z
" id="m125d44266a" style="stroke:#ffffff;stroke-width:0.48;"/>
    </defs>
    <g clip-path="url(#p1b8e1ea7e8)">
     <use style="fill:#1f77b4;stroke:#ffffff;stroke-width:0.48;" x="69.218182" xlink:href="#m125d44266a" y="236.85933"/>
     <use style="fill:#1f77b4;stroke:#ffffff;stroke-width:0.48;" x="70.747647" xlink:href="#m125d44266a" y="235.378392"/>
     <use style="fill:#1f77b4;stroke:#ffffff;stroke-width:0.48;" x="72.277113" xlink:href="#m125d44266a" y="235.490495"/>
     <use style="fill:#1f77b4;stroke:#ffffff;stroke-width:0.48;" x="73.806578" xlink:href="#m125d44266a" y="235.024383"/>
     <use style="fill:#1f77b4;stroke:#ffffff;stroke-width:0.48;" x="75.336044" xlink:href="#m125d44266a" y="233.956456"/>
     <use style="fill:#1f77b4;stroke:#ffffff;stroke-width:0.48;" x="76.865509" xlink:href="#m125d44266a" y="234.251464"/>
     <use style="fill:#1f77b4;stroke:#ffffff;stroke-width:0.48;" x="78.394975" xlink:href="#m125d44266a" y="232.894429"/>
     <use style="fill:#1f77b4;stroke:#ffffff;stroke-width:0.48;" x="79.92444" xlink:href="#m125d44266a" y="232.363416"/>
     <use style="fill:#1f77b4;stroke:#ffffff;stroke-width:0.48;" x="81.453906" xlink:href="#m125d44266a" y="230.941479"/>
     <use style="fill:#1f77b4;stroke:#ffffff;stroke-width:0.48;" x="82.983371" xlink:href="#m125d44266a" y="224.616519"/>
     <use style="fill:#1f77b4;stroke:#ffffff;stroke-width:0.48;" x="84.512837" xlink:href="#m125d44266a" y="231.419392"/>
     <use style="fill:#1f77b4;stroke:#ffffff;stroke-width:0.48;" x="86.042302" xlink:href="#m125d44266a" y="230.593371"/>
     <use style="fill:#1f77b4;stroke:#ffffff;stroke-width:0.48;" x="87.571768" xlink:href="#m125d44266a" y="228.99443"/>
     <use style="fill:#1f77b4;stroke:#ffffff;stroke-width:0.48;" x="89.101233" xlink:href="#m125d44266a" y="228.640421"/>
     <use style="fill:#1f77b4;stroke:#ffffff;stroke-width:0.48;" x="90.630699" xlink:href="#m125d44266a" y="228.22741"/>
     <use style="fill:#1f77b4;stroke:#ffffff;stroke-width:0.48;" x="92.160164" xlink:href="#m125d44266a" y="229.112433"/>
     <use style="fill:#1f77b4;stroke:#ffffff;stroke-width:0.48;" x="93.68963" xlink:href="#m125d44266a" y="228.463416"/>
     <use style="fill:#1f77b4;stroke:#ffffff;stroke-width:0.48;" x="95.219095" xlink:href="#m125d44266a" y="228.522418"/>
     <use style="fill:#1f77b4;stroke:#ffffff;stroke-width:0.48;" x="96.748561" xlink:href="#m125d44266a" y="224.852525"/>
     <use style="fill:#1f77b4;stroke:#ffffff;stroke-width:0.48;" x="98.278026" xlink:href="#m125d44266a" y="227.224385"/>
     <use style="fill:#1f77b4;stroke:#ffffff;stroke-width:0.48;" x="99.807492" xlink:href="#m125d44266a" y="225.802449"/>
     <use style="fill:#1f77b4;stroke:#ffffff;stroke-width:0.48;" x="101.336958" xlink:href="#m125d44266a" y="226.150558"/>
     <use style="fill:#1f77b4;stroke:#ffffff;stroke-width:0.48;" x="102.866423" xlink:href="#m125d44266a" y="227.277486"/>
     <use style="fill:#1f77b4;stroke:#ffffff;stroke-width:0.48;" x="104.395889" xlink:href="#m125d44266a" y="225.029529"/>
     <use style="fill:#1f77b4;stroke:#ffffff;stroke-width:0.48;" x="105.925354" xlink:href="#m125d44266a" y="223.731496"/>
     <use style="fill:#1f77b4;stroke:#ffffff;stroke-width:0.48;" x="107.45482" xlink:href="#m125d44266a" y="224.209408"/>
     <use style="fill:#1f77b4;stroke:#ffffff;stroke-width:0.48;" x="108.984285" xlink:href="#m125d44266a" y="222.197457"/>
     <use style="fill:#1f77b4;stroke:#ffffff;stroke-width:0.48;" x="110.513751" xlink:href="#m125d44266a" y="221.660543"/>
     <use style="fill:#1f77b4;stroke:#ffffff;stroke-width:0.48;" x="112.043216" xlink:href="#m125d44266a" y="221.247533"/>
     <use style="fill:#1f77b4;stroke:#ffffff;stroke-width:0.48;" x="113.572682" xlink:href="#m125d44266a" y="220.598516"/>
     <use style="fill:#1f77b4;stroke:#ffffff;stroke-width:0.48;" x="115.102147" xlink:href="#m125d44266a" y="220.539515"/>
     <use style="fill:#1f77b4;stroke:#ffffff;stroke-width:0.48;" x="116.631613" xlink:href="#m125d44266a" y="221.306534"/>
     <use style="fill:#1f77b4;stroke:#ffffff;stroke-width:0.48;" x="118.161078" xlink:href="#m125d44266a" y="218.592465"/>
     <use style="fill:#1f77b4;stroke:#ffffff;stroke-width:0.48;" x="119.690544" xlink:href="#m125d44266a" y="219.9495"/>
     <use style="fill:#1f77b4;stroke:#ffffff;stroke-width:0.48;" x="121.220009" xlink:href="#m125d44266a" y="222.551466"/>
     <use style="fill:#1f77b4;stroke:#ffffff;stroke-width:0.48;" x="122.749475" xlink:href="#m125d44266a" y="219.9495"/>
     <use style="fill:#1f77b4;stroke:#ffffff;stroke-width:0.48;" x="124.27894" xlink:href="#m125d44266a" y="219.713494"/>
     <use style="fill:#1f77b4;stroke:#ffffff;stroke-width:0.48;" x="125.808406" xlink:href="#m125d44266a" y="217.707443"/>
     <use style="fill:#1f77b4;stroke:#ffffff;stroke-width:0.48;" x="127.337871" xlink:href="#m125d44266a" y="221.365536"/>
     <use style="fill:#1f77b4;stroke:#ffffff;stroke-width:0.48;" x="128.867337" xlink:href="#m125d44266a" y="213.801544"/>
     <use style="fill:#1f77b4;stroke:#ffffff;stroke-width:0.48;" x="130.396802" xlink:href="#m125d44266a" y="217.288532"/>
     <use style="fill:#1f77b4;stroke:#ffffff;stroke-width:0.48;" x="131.926268" xlink:href="#m125d44266a" y="216.875522"/>
     <use style="fill:#1f77b4;stroke:#ffffff;stroke-width:0.48;" x="133.455733" xlink:href="#m125d44266a" y="214.981574"/>
     <use style="fill:#1f77b4;stroke:#ffffff;stroke-width:0.48;" x="134.985199" xlink:href="#m125d44266a" y="215.984599"/>
     <use style="fill:#1f77b4;stroke:#ffffff;stroke-width:0.48;" x="136.514664" xlink:href="#m125d44266a" y="214.03755"/>
     <use style="fill:#1f77b4;stroke:#ffffff;stroke-width:0.48;" x="138.04413" xlink:href="#m125d44266a" y="212.798518"/>
     <use style="fill:#1f77b4;stroke:#ffffff;stroke-width:0.48;" x="139.573595" xlink:href="#m125d44266a" y="214.804569"/>
     <use style="fill:#1f77b4;stroke:#ffffff;stroke-width:0.48;" x="141.103061" xlink:href="#m125d44266a" y="213.801544"/>
     <use style="fill:#1f77b4;stroke:#ffffff;stroke-width:0.48;" x="142.632526" xlink:href="#m125d44266a" y="212.208503"/>
     <use style="fill:#1f77b4;stroke:#ffffff;stroke-width:0.48;" x="144.161992" xlink:href="#m125d44266a" y="212.680515"/>
     <use style="fill:#1f77b4;stroke:#ffffff;stroke-width:0.48;" x="145.691457" xlink:href="#m125d44266a" y="213.388533"/>
     <use style="fill:#1f77b4;stroke:#ffffff;stroke-width:0.48;" x="147.220923" xlink:href="#m125d44266a" y="209.665538"/>
     <use style="fill:#1f77b4;stroke:#ffffff;stroke-width:0.48;" x="148.750388" xlink:href="#m125d44266a" y="209.187626"/>
     <use style="fill:#1f77b4;stroke:#ffffff;stroke-width:0.48;" x="150.279854" xlink:href="#m125d44266a" y="211.494585"/>
     <use style="fill:#1f77b4;stroke:#ffffff;stroke-width:0.48;" x="151.809319" xlink:href="#m125d44266a" y="198.254648"/>
     <use style="fill:#1f77b4;stroke:#ffffff;stroke-width:0.48;" x="153.338785" xlink:href="#m125d44266a" y="210.019547"/>
     <use style="fill:#1f77b4;stroke:#ffffff;stroke-width:0.48;" x="154.86825" xlink:href="#m125d44266a" y="209.134525"/>
     <use style="fill:#1f77b4;stroke:#ffffff;stroke-width:0.48;" x="156.397716" xlink:href="#m125d44266a" y="205.582634"/>
     <use style="fill:#1f77b4;stroke:#ffffff;stroke-width:0.48;" x="157.927181" xlink:href="#m125d44266a" y="208.721514"/>
     <use style="fill:#1f77b4;stroke:#ffffff;stroke-width:0.48;" x="159.456647" xlink:href="#m125d44266a" y="208.892619"/>
     <use style="fill:#1f77b4;stroke:#ffffff;stroke-width:0.48;" x="160.986112" xlink:href="#m125d44266a" y="205.942544"/>
     <use style="fill:#1f77b4;stroke:#ffffff;stroke-width:0.48;" x="162.515578" xlink:href="#m125d44266a" y="203.688686"/>
     <use style="fill:#1f77b4;stroke:#ffffff;stroke-width:0.48;" x="164.045043" xlink:href="#m125d44266a" y="198.31365"/>
     <use style="fill:#1f77b4;stroke:#ffffff;stroke-width:0.48;" x="165.574509" xlink:href="#m125d44266a" y="204.63861"/>
     <use style="fill:#1f77b4;stroke:#ffffff;stroke-width:0.48;" x="167.103974" xlink:href="#m125d44266a" y="206.467657"/>
     <use style="fill:#1f77b4;stroke:#ffffff;stroke-width:0.48;" x="168.63344" xlink:href="#m125d44266a" y="206.290653"/>
     <use style="fill:#1f77b4;stroke:#ffffff;stroke-width:0.48;" x="170.162905" xlink:href="#m125d44266a" y="202.095646"/>
     <use style="fill:#1f77b4;stroke:#ffffff;stroke-width:0.48;" x="171.692371" xlink:href="#m125d44266a" y="171.650872"/>
     <use style="fill:#1f77b4;stroke:#ffffff;stroke-width:0.48;" x="173.221836" xlink:href="#m125d44266a" y="181.167814"/>
     <use style="fill:#1f77b4;stroke:#ffffff;stroke-width:0.48;" x="174.751302" xlink:href="#m125d44266a" y="204.63861"/>
     <use style="fill:#1f77b4;stroke:#ffffff;stroke-width:0.48;" x="176.280767" xlink:href="#m125d44266a" y="196.484603"/>
     <use style="fill:#1f77b4;stroke:#ffffff;stroke-width:0.48;" x="177.810233" xlink:href="#m125d44266a" y="191.693681"/>
     <use style="fill:#1f77b4;stroke:#ffffff;stroke-width:0.48;" x="179.339698" xlink:href="#m125d44266a" y="200.266599"/>
     <use style="fill:#1f77b4;stroke:#ffffff;stroke-width:0.48;" x="180.869164" xlink:href="#m125d44266a" y="202.095646"/>
     <use style="fill:#1f77b4;stroke:#ffffff;stroke-width:0.48;" x="182.39863" xlink:href="#m125d44266a" y="187.675679"/>
     <use style="fill:#1f77b4;stroke:#ffffff;stroke-width:0.48;" x="183.928095" xlink:href="#m125d44266a" y="196.602606"/>
     <use style="fill:#1f77b4;stroke:#ffffff;stroke-width:0.48;" x="185.457561" xlink:href="#m125d44266a" y="191.575678"/>
     <use style="fill:#1f77b4;stroke:#ffffff;stroke-width:0.48;" x="186.987026" xlink:href="#m125d44266a" y="200.974617"/>
     <use style="fill:#1f77b4;stroke:#ffffff;stroke-width:0.48;" x="188.516492" xlink:href="#m125d44266a" y="185.663728"/>
     <use style="fill:#1f77b4;stroke:#ffffff;stroke-width:0.48;" x="190.045957" xlink:href="#m125d44266a" y="186.318645"/>
     <use style="fill:#1f77b4;stroke:#ffffff;stroke-width:0.48;" x="191.575423" xlink:href="#m125d44266a" y="190.44875"/>
     <use style="fill:#1f77b4;stroke:#ffffff;stroke-width:0.48;" x="193.104888" xlink:href="#m125d44266a" y="187.610777"/>
     <use style="fill:#1f77b4;stroke:#ffffff;stroke-width:0.48;" x="194.634354" xlink:href="#m125d44266a" y="193.050716"/>
     <use style="fill:#1f77b4;stroke:#ffffff;stroke-width:0.48;" x="196.163819" xlink:href="#m125d44266a" y="188.973712"/>
     <use style="fill:#1f77b4;stroke:#ffffff;stroke-width:0.48;" x="197.693285" xlink:href="#m125d44266a" y="209.547535"/>
     <use style="fill:#1f77b4;stroke:#ffffff;stroke-width:0.48;" x="199.22275" xlink:href="#m125d44266a" y="188.147691"/>
     <use style="fill:#1f77b4;stroke:#ffffff;stroke-width:0.48;" x="200.752216" xlink:href="#m125d44266a" y="184.595801"/>
     <use style="fill:#1f77b4;stroke:#ffffff;stroke-width:0.48;" x="202.281681" xlink:href="#m125d44266a" y="184.359795"/>
     <use style="fill:#1f77b4;stroke:#ffffff;stroke-width:0.48;" x="203.811147" xlink:href="#m125d44266a" y="175.432868"/>
     <use style="fill:#1f77b4;stroke:#ffffff;stroke-width:0.48;" x="205.340612" xlink:href="#m125d44266a" y="186.54875"/>
     <use style="fill:#1f77b4;stroke:#ffffff;stroke-width:0.48;" x="206.870078" xlink:href="#m125d44266a" y="185.36872"/>
     <use style="fill:#1f77b4;stroke:#ffffff;stroke-width:0.48;" x="208.399543" xlink:href="#m125d44266a" y="184.18279"/>
     <use style="fill:#1f77b4;stroke:#ffffff;stroke-width:0.48;" x="209.929009" xlink:href="#m125d44266a" y="184.424696"/>
     <use style="fill:#1f77b4;stroke:#ffffff;stroke-width:0.48;" x="211.458474" xlink:href="#m125d44266a" y="181.108812"/>
     <use style="fill:#1f77b4;stroke:#ffffff;stroke-width:0.48;" x="212.98794" xlink:href="#m125d44266a" y="179.934682"/>
     <use style="fill:#1f77b4;stroke:#ffffff;stroke-width:0.48;" x="214.517405" xlink:href="#m125d44266a" y="183.238766"/>
     <use style="fill:#1f77b4;stroke:#ffffff;stroke-width:0.48;" x="216.046871" xlink:href="#m125d44266a" y="182.176739"/>
     <use style="fill:#1f77b4;stroke:#ffffff;stroke-width:0.48;" x="217.576336" xlink:href="#m125d44266a" y="182.412745"/>
     <use style="fill:#1f77b4;stroke:#ffffff;stroke-width:0.48;" x="219.105802" xlink:href="#m125d44266a" y="175.91078"/>
     <use style="fill:#1f77b4;stroke:#ffffff;stroke-width:0.48;" x="220.635267" xlink:href="#m125d44266a" y="179.338767"/>
     <use style="fill:#1f77b4;stroke:#ffffff;stroke-width:0.48;" x="222.164733" xlink:href="#m125d44266a" y="199.676584"/>
     <use style="fill:#1f77b4;stroke:#ffffff;stroke-width:0.48;" x="223.694198" xlink:href="#m125d44266a" y="149.076897"/>
     <use style="fill:#1f77b4;stroke:#ffffff;stroke-width:0.48;" x="225.223664" xlink:href="#m125d44266a" y="175.078859"/>
     <use style="fill:#1f77b4;stroke:#ffffff;stroke-width:0.48;" x="226.753129" xlink:href="#m125d44266a" y="173.190811"/>
     <use style="fill:#1f77b4;stroke:#ffffff;stroke-width:0.48;" x="228.282595" xlink:href="#m125d44266a" y="170.588845"/>
     <use style="fill:#1f77b4;stroke:#ffffff;stroke-width:0.48;" x="229.81206" xlink:href="#m125d44266a" y="178.807754"/>
     <use style="fill:#1f77b4;stroke:#ffffff;stroke-width:0.48;" x="231.341526" xlink:href="#m125d44266a" y="159.295957"/>
     <use style="fill:#1f77b4;stroke:#ffffff;stroke-width:0.48;" x="232.870991" xlink:href="#m125d44266a" y="179.875681"/>
     <use style="fill:#1f77b4;stroke:#ffffff;stroke-width:0.48;" x="234.400457" xlink:href="#m125d44266a" y="185.36872"/>
     <use style="fill:#1f77b4;stroke:#ffffff;stroke-width:0.48;" x="235.929922" xlink:href="#m125d44266a" y="177.86373"/>
     <use style="fill:#1f77b4;stroke:#ffffff;stroke-width:0.48;" x="237.459388" xlink:href="#m125d44266a" y="168.812899"/>
     <use style="fill:#1f77b4;stroke:#ffffff;stroke-width:0.48;" x="238.988853" xlink:href="#m125d44266a" y="170.116833"/>
     <use style="fill:#1f77b4;stroke:#ffffff;stroke-width:0.48;" x="240.518319" xlink:href="#m125d44266a" y="167.573868"/>
     <use style="fill:#1f77b4;stroke:#ffffff;stroke-width:0.48;" x="242.047784" xlink:href="#m125d44266a" y="173.904729"/>
     <use style="fill:#1f77b4;stroke:#ffffff;stroke-width:0.48;" x="243.57725" xlink:href="#m125d44266a" y="178.093835"/>
     <use style="fill:#1f77b4;stroke:#ffffff;stroke-width:0.48;" x="245.106715" xlink:href="#m125d44266a" y="178.984758"/>
     <use style="fill:#1f77b4;stroke:#ffffff;stroke-width:0.48;" x="246.636181" xlink:href="#m125d44266a" y="174.016832"/>
     <use style="fill:#1f77b4;stroke:#ffffff;stroke-width:0.48;" x="248.165646" xlink:href="#m125d44266a" y="173.131809"/>
     <use style="fill:#1f77b4;stroke:#ffffff;stroke-width:0.48;" x="249.695112" xlink:href="#m125d44266a" y="148.427881"/>
     <use style="fill:#1f77b4;stroke:#ffffff;stroke-width:0.48;" x="251.224577" xlink:href="#m125d44266a" y="169.880827"/>
     <use style="fill:#1f77b4;stroke:#ffffff;stroke-width:0.48;" x="252.754043" xlink:href="#m125d44266a" y="176.382792"/>
     <use style="fill:#1f77b4;stroke:#ffffff;stroke-width:0.48;" x="254.283508" xlink:href="#m125d44266a" y="171.833776"/>
     <use style="fill:#1f77b4;stroke:#ffffff;stroke-width:0.48;" x="255.812974" xlink:href="#m125d44266a" y="168.222884"/>
     <use style="fill:#1f77b4;stroke:#ffffff;stroke-width:0.48;" x="257.342439" xlink:href="#m125d44266a" y="160.18688"/>
     <use style="fill:#1f77b4;stroke:#ffffff;stroke-width:0.48;" x="258.871905" xlink:href="#m125d44266a" y="157.0539"/>
     <use style="fill:#1f77b4;stroke:#ffffff;stroke-width:0.48;" x="260.40137" xlink:href="#m125d44266a" y="154.988848"/>
     <use style="fill:#1f77b4;stroke:#ffffff;stroke-width:0.48;" x="261.930836" xlink:href="#m125d44266a" y="154.392933"/>
     <use style="fill:#1f77b4;stroke:#ffffff;stroke-width:0.48;" x="263.460302" xlink:href="#m125d44266a" y="162.080828"/>
     <use style="fill:#1f77b4;stroke:#ffffff;stroke-width:0.48;" x="264.989767" xlink:href="#m125d44266a" y="109.292186"/>
     <use style="fill:#1f77b4;stroke:#ffffff;stroke-width:0.48;" x="266.519233" xlink:href="#m125d44266a" y="161.608816"/>
     <use style="fill:#1f77b4;stroke:#ffffff;stroke-width:0.48;" x="268.048698" xlink:href="#m125d44266a" y="158.829845"/>
     <use style="fill:#1f77b4;stroke:#ffffff;stroke-width:0.48;" x="269.578164" xlink:href="#m125d44266a" y="171.17886"/>
     <use style="fill:#1f77b4;stroke:#ffffff;stroke-width:0.48;" x="271.107629" xlink:href="#m125d44266a" y="172.187785"/>
     <use style="fill:#1f77b4;stroke:#ffffff;stroke-width:0.48;" x="272.637095" xlink:href="#m125d44266a" y="157.466911"/>
     <use style="fill:#1f77b4;stroke:#ffffff;stroke-width:0.48;" x="274.16656" xlink:href="#m125d44266a" y="140.562981"/>
     <use style="fill:#1f77b4;stroke:#ffffff;stroke-width:0.48;" x="275.696026" xlink:href="#m125d44266a" y="151.495959"/>
     <use style="fill:#1f77b4;stroke:#ffffff;stroke-width:0.48;" x="277.225491" xlink:href="#m125d44266a" y="156.64089"/>
     <use style="fill:#1f77b4;stroke:#ffffff;stroke-width:0.48;" x="278.754957" xlink:href="#m125d44266a" y="123.423045"/>
     <use style="fill:#1f77b4;stroke:#ffffff;stroke-width:0.48;" x="280.284422" xlink:href="#m125d44266a" y="155.749967"/>
     <use style="fill:#1f77b4;stroke:#ffffff;stroke-width:0.48;" x="281.813888" xlink:href="#m125d44266a" y="156.581888"/>
     <use style="fill:#1f77b4;stroke:#ffffff;stroke-width:0.48;" x="283.343353" xlink:href="#m125d44266a" y="128.208067"/>
     <use style="fill:#1f77b4;stroke:#ffffff;stroke-width:0.48;" x="284.872819" xlink:href="#m125d44266a" y="126.202016"/>
     <use style="fill:#1f77b4;stroke:#ffffff;stroke-width:0.48;" x="286.402284" xlink:href="#m125d44266a" y="151.082948"/>
     <use style="fill:#1f77b4;stroke:#ffffff;stroke-width:0.48;" x="287.93175" xlink:href="#m125d44266a" y="153.389907"/>
     <use style="fill:#1f77b4;stroke:#ffffff;stroke-width:0.48;" x="289.461215" xlink:href="#m125d44266a" y="145.407004"/>
     <use style="fill:#1f77b4;stroke:#ffffff;stroke-width:0.48;" x="290.990681" xlink:href="#m125d44266a" y="136.308973"/>
     <use style="fill:#1f77b4;stroke:#ffffff;stroke-width:0.48;" x="292.520146" xlink:href="#m125d44266a" y="142.156021"/>
     <use style="fill:#1f77b4;stroke:#ffffff;stroke-width:0.48;" x="294.049612" xlink:href="#m125d44266a" y="151.082948"/>
     <use style="fill:#1f77b4;stroke:#ffffff;stroke-width:0.48;" x="295.579077" xlink:href="#m125d44266a" y="149.189"/>
     <use style="fill:#1f77b4;stroke:#ffffff;stroke-width:0.48;" x="297.108543" xlink:href="#m125d44266a" y="143.636959"/>
     <use style="fill:#1f77b4;stroke:#ffffff;stroke-width:0.48;" x="298.638008" xlink:href="#m125d44266a" y="142.397928"/>
     <use style="fill:#1f77b4;stroke:#ffffff;stroke-width:0.48;" x="300.167474" xlink:href="#m125d44266a" y="135.949064"/>
     <use style="fill:#1f77b4;stroke:#ffffff;stroke-width:0.48;" x="301.696939" xlink:href="#m125d44266a" y="147.654961"/>
     <use style="fill:#1f77b4;stroke:#ffffff;stroke-width:0.48;" x="303.226405" xlink:href="#m125d44266a" y="129.211092"/>
     <use style="fill:#1f77b4;stroke:#ffffff;stroke-width:0.48;" x="304.75587" xlink:href="#m125d44266a" y="127.382046"/>
     <use style="fill:#1f77b4;stroke:#ffffff;stroke-width:0.48;" x="306.285336" xlink:href="#m125d44266a" y="120.402168"/>
     <use style="fill:#1f77b4;stroke:#ffffff;stroke-width:0.48;" x="307.814801" xlink:href="#m125d44266a" y="161.248907"/>
     <use style="fill:#1f77b4;stroke:#ffffff;stroke-width:0.48;" x="309.344267" xlink:href="#m125d44266a" y="135.890062"/>
     <use style="fill:#1f77b4;stroke:#ffffff;stroke-width:0.48;" x="310.873732" xlink:href="#m125d44266a" y="126.261017"/>
     <use style="fill:#1f77b4;stroke:#ffffff;stroke-width:0.48;" x="312.403198" xlink:href="#m125d44266a" y="142.687035"/>
     <use style="fill:#1f77b4;stroke:#ffffff;stroke-width:0.48;" x="313.932663" xlink:href="#m125d44266a" y="139.913964"/>
     <use style="fill:#1f77b4;stroke:#ffffff;stroke-width:0.48;" x="315.462129" xlink:href="#m125d44266a" y="111.068131"/>
     <use style="fill:#1f77b4;stroke:#ffffff;stroke-width:0.48;" x="316.991594" xlink:href="#m125d44266a" y="132.580078"/>
     <use style="fill:#1f77b4;stroke:#ffffff;stroke-width:0.48;" x="318.52106" xlink:href="#m125d44266a" y="143.164947"/>
     <use style="fill:#1f77b4;stroke:#ffffff;stroke-width:0.48;" x="320.050525" xlink:href="#m125d44266a" y="125.134089"/>
     <use style="fill:#1f77b4;stroke:#ffffff;stroke-width:0.48;" x="321.579991" xlink:href="#m125d44266a" y="140.085069"/>
     <use style="fill:#1f77b4;stroke:#ffffff;stroke-width:0.48;" x="323.109456" xlink:href="#m125d44266a" y="136.244071"/>
     <use style="fill:#1f77b4;stroke:#ffffff;stroke-width:0.48;" x="324.638922" xlink:href="#m125d44266a" y="116.980081"/>
     <use style="fill:#1f77b4;stroke:#ffffff;stroke-width:0.48;" x="326.168387" xlink:href="#m125d44266a" y="122.296116"/>
     <use style="fill:#1f77b4;stroke:#ffffff;stroke-width:0.48;" x="327.697853" xlink:href="#m125d44266a" y="137.489003"/>
     <use style="fill:#1f77b4;stroke:#ffffff;stroke-width:0.48;" x="329.227318" xlink:href="#m125d44266a" y="119.104135"/>
     <use style="fill:#1f77b4;stroke:#ffffff;stroke-width:0.48;" x="330.756784" xlink:href="#m125d44266a" y="118.331215"/>
     <use style="fill:#1f77b4;stroke:#ffffff;stroke-width:0.48;" x="332.286249" xlink:href="#m125d44266a" y="87.007319"/>
     <use style="fill:#1f77b4;stroke:#ffffff;stroke-width:0.48;" x="333.815715" xlink:href="#m125d44266a" y="116.089158"/>
     <use style="fill:#1f77b4;stroke:#ffffff;stroke-width:0.48;" x="335.34518" xlink:href="#m125d44266a" y="119.458144"/>
     <use style="fill:#1f77b4;stroke:#ffffff;stroke-width:0.48;" x="336.874646" xlink:href="#m125d44266a" y="108.814273"/>
     <use style="fill:#1f77b4;stroke:#ffffff;stroke-width:0.48;" x="338.404111" xlink:href="#m125d44266a" y="111.776149"/>
     <use style="fill:#1f77b4;stroke:#ffffff;stroke-width:0.48;" x="339.933577" xlink:href="#m125d44266a" y="102.082202"/>
     <use style="fill:#1f77b4;stroke:#ffffff;stroke-width:0.48;" x="341.463042" xlink:href="#m125d44266a" y="118.396117"/>
     <use style="fill:#1f77b4;stroke:#ffffff;stroke-width:0.48;" x="342.992508" xlink:href="#m125d44266a" y="134.887037"/>
     <use style="fill:#1f77b4;stroke:#ffffff;stroke-width:0.48;" x="344.521974" xlink:href="#m125d44266a" y="112.189159"/>
     <use style="fill:#1f77b4;stroke:#ffffff;stroke-width:0.48;" x="346.051439" xlink:href="#m125d44266a" y="114.726224"/>
     <use style="fill:#1f77b4;stroke:#ffffff;stroke-width:0.48;" x="347.580905" xlink:href="#m125d44266a" y="112.60217"/>
     <use style="fill:#1f77b4;stroke:#ffffff;stroke-width:0.48;" x="349.11037" xlink:href="#m125d44266a" y="118.750126"/>
     <use style="fill:#1f77b4;stroke:#ffffff;stroke-width:0.48;" x="350.639836" xlink:href="#m125d44266a" y="105.274183"/>
     <use style="fill:#1f77b4;stroke:#ffffff;stroke-width:0.48;" x="352.169301" xlink:href="#m125d44266a" y="132.993088"/>
     <use style="fill:#1f77b4;stroke:#ffffff;stroke-width:0.48;" x="353.698767" xlink:href="#m125d44266a" y="44.443636"/>
     <use style="fill:#1f77b4;stroke:#ffffff;stroke-width:0.48;" x="355.228232" xlink:href="#m125d44266a" y="102.076302"/>
     <use style="fill:#1f77b4;stroke:#ffffff;stroke-width:0.48;" x="356.757698" xlink:href="#m125d44266a" y="109.174183"/>
     <use style="fill:#1f77b4;stroke:#ffffff;stroke-width:0.48;" x="358.287163" xlink:href="#m125d44266a" y="102.908223"/>
     <use style="fill:#1f77b4;stroke:#ffffff;stroke-width:0.48;" x="359.816629" xlink:href="#m125d44266a" y="68.085538"/>
     <use style="fill:#1f77b4;stroke:#ffffff;stroke-width:0.48;" x="361.346094" xlink:href="#m125d44266a" y="130.214118"/>
     <use style="fill:#1f77b4;stroke:#ffffff;stroke-width:0.48;" x="362.87556" xlink:href="#m125d44266a" y="110.000204"/>
     <use style="fill:#1f77b4;stroke:#ffffff;stroke-width:0.48;" x="364.405025" xlink:href="#m125d44266a" y="88.187349"/>
     <use style="fill:#1f77b4;stroke:#ffffff;stroke-width:0.48;" x="365.934491" xlink:href="#m125d44266a" y="105.9173"/>
     <use style="fill:#1f77b4;stroke:#ffffff;stroke-width:0.48;" x="367.463956" xlink:href="#m125d44266a" y="109.640294"/>
     <use style="fill:#1f77b4;stroke:#ffffff;stroke-width:0.48;" x="368.993422" xlink:href="#m125d44266a" y="103.144229"/>
     <use style="fill:#1f77b4;stroke:#ffffff;stroke-width:0.48;" x="370.522887" xlink:href="#m125d44266a" y="103.262232"/>
     <use style="fill:#1f77b4;stroke:#ffffff;stroke-width:0.48;" x="372.052353" xlink:href="#m125d44266a" y="102.141204"/>
     <use style="fill:#1f77b4;stroke:#ffffff;stroke-width:0.48;" x="373.581818" xlink:href="#m125d44266a" y="77.661481"/>
    </g>
   </g>
   <g id="matplotlib.axis_1">
    <g id="xtick_1">
     <g id="line2d_1">
      <defs>
       <path d="M 0 0 
L 0 3.5 
" id="ma5f22805ae" style="stroke:#000000;stroke-width:0.8;"/>
      </defs>
      <g>
       <use style="stroke:#000000;stroke-width:0.8;" x="69.218182" xlink:href="#ma5f22805ae" y="252"/>
      </g>
     </g>
     <g id="text_1">
      <!-- 0 -->
      <g transform="translate(66.036932 266.598437)scale(0.1 -0.1)">
       <defs>
        <path d="M 2034 4250 
Q 1547 4250 1301 3770 
Q 1056 3291 1056 2328 
Q 1056 1369 1301 889 
Q 1547 409 2034 409 
Q 2525 409 2770 889 
Q 3016 1369 3016 2328 
Q 3016 3291 2770 3770 
Q 2525 4250 2034 4250 
z
M 2034 4750 
Q 2819 4750 3233 4129 
Q 3647 3509 3647 2328 
Q 3647 1150 3233 529 
Q 2819 -91 2034 -91 
Q 1250 -91 836 529 
Q 422 1150 422 2328 
Q 422 3509 836 4129 
Q 1250 4750 2034 4750 
z
" id="DejaVuSans-30" transform="scale(0.015625)"/>
       </defs>
       <use xlink:href="#DejaVuSans-30"/>
      </g>
     </g>
    </g>
    <g id="xtick_2">
     <g id="line2d_2">
      <g>
       <use style="stroke:#000000;stroke-width:0.8;" x="107.45482" xlink:href="#ma5f22805ae" y="252"/>
      </g>
     </g>
     <g id="text_2">
      <!-- 25 -->
      <g transform="translate(101.09232 266.598437)scale(0.1 -0.1)">
       <defs>
        <path d="M 1228 531 
L 3431 531 
L 3431 0 
L 469 0 
L 469 531 
Q 828 903 1448 1529 
Q 2069 2156 2228 2338 
Q 2531 2678 2651 2914 
Q 2772 3150 2772 3378 
Q 2772 3750 2511 3984 
Q 2250 4219 1831 4219 
Q 1534 4219 1204 4116 
Q 875 4013 500 3803 
L 500 4441 
Q 881 4594 1212 4672 
Q 1544 4750 1819 4750 
Q 2544 4750 2975 4387 
Q 3406 4025 3406 3419 
Q 3406 3131 3298 2873 
Q 3191 2616 2906 2266 
Q 2828 2175 2409 1742 
Q 1991 1309 1228 531 
z
" id="DejaVuSans-32" transform="scale(0.015625)"/>
        <path d="M 691 4666 
L 3169 4666 
L 3169 4134 
L 1269 4134 
L 1269 2991 
Q 1406 3038 1543 3061 
Q 1681 3084 1819 3084 
Q 2600 3084 3056 2656 
Q 3513 2228 3513 1497 
Q 3513 744 3044 326 
Q 2575 -91 1722 -91 
Q 1428 -91 1123 -41 
Q 819 9 494 109 
L 494 744 
Q 775 591 1075 516 
Q 1375 441 1709 441 
Q 2250 441 2565 725 
Q 2881 1009 2881 1497 
Q 2881 1984 2565 2268 
Q 2250 2553 1709 2553 
Q 1456 2553 1204 2497 
Q 953 2441 691 2322 
L 691 4666 
z
" id="DejaVuSans-35" transform="scale(0.015625)"/>
       </defs>
       <use xlink:href="#DejaVuSans-32"/>
       <use x="63.623047" xlink:href="#DejaVuSans-35"/>
      </g>
     </g>
    </g>
    <g id="xtick_3">
     <g id="line2d_3">
      <g>
       <use style="stroke:#000000;stroke-width:0.8;" x="145.691457" xlink:href="#ma5f22805ae" y="252"/>
      </g>
     </g>
     <g id="text_3">
      <!-- 50 -->
      <g transform="translate(139.328957 266.598437)scale(0.1 -0.1)">
       <use xlink:href="#DejaVuSans-35"/>
       <use x="63.623047" xlink:href="#DejaVuSans-30"/>
      </g>
     </g>
    </g>
    <g id="xtick_4">
     <g id="line2d_4">
      <g>
       <use style="stroke:#000000;stroke-width:0.8;" x="183.928095" xlink:href="#ma5f22805ae" y="252"/>
      </g>
     </g>
     <g id="text_4">
      <!-- 75 -->
      <g transform="translate(177.565595 266.598437)scale(0.1 -0.1)">
       <defs>
        <path d="M 525 4666 
L 3525 4666 
L 3525 4397 
L 1831 0 
L 1172 0 
L 2766 4134 
L 525 4134 
L 525 4666 
z
" id="DejaVuSans-37" transform="scale(0.015625)"/>
       </defs>
       <use xlink:href="#DejaVuSans-37"/>
       <use x="63.623047" xlink:href="#DejaVuSans-35"/>
      </g>
     </g>
    </g>
    <g id="xtick_5">
     <g id="line2d_5">
      <g>
       <use style="stroke:#000000;stroke-width:0.8;" x="222.164733" xlink:href="#ma5f22805ae" y="252"/>
      </g>
     </g>
     <g id="text_5">
      <!-- 100 -->
      <g transform="translate(212.620983 266.598437)scale(0.1 -0.1)">
       <defs>
        <path d="M 794 531 
L 1825 531 
L 1825 4091 
L 703 3866 
L 703 4441 
L 1819 4666 
L 2450 4666 
L 2450 531 
L 3481 531 
L 3481 0 
L 794 0 
L 794 531 
z
" id="DejaVuSans-31" transform="scale(0.015625)"/>
       </defs>
       <use xlink:href="#DejaVuSans-31"/>
       <use x="63.623047" xlink:href="#DejaVuSans-30"/>
       <use x="127.246094" xlink:href="#DejaVuSans-30"/>
      </g>
     </g>
    </g>
    <g id="xtick_6">
     <g id="line2d_6">
      <g>
       <use style="stroke:#000000;stroke-width:0.8;" x="260.40137" xlink:href="#ma5f22805ae" y="252"/>
      </g>
     </g>
     <g id="text_6">
      <!-- 125 -->
      <g transform="translate(250.85762 266.598437)scale(0.1 -0.1)">
       <use xlink:href="#DejaVuSans-31"/>
       <use x="63.623047" xlink:href="#DejaVuSans-32"/>
       <use x="127.246094" xlink:href="#DejaVuSans-35"/>
      </g>
     </g>
    </g>
    <g id="xtick_7">
     <g id="line2d_7">
      <g>
       <use style="stroke:#000000;stroke-width:0.8;" x="298.638008" xlink:href="#ma5f22805ae" y="252"/>
      </g>
     </g>
     <g id="text_7">
      <!-- 150 -->
      <g transform="translate(289.094258 266.598437)scale(0.1 -0.1)">
       <use xlink:href="#DejaVuSans-31"/>
       <use x="63.623047" xlink:href="#DejaVuSans-35"/>
       <use x="127.246094" xlink:href="#DejaVuSans-30"/>
      </g>
     </g>
    </g>
    <g id="xtick_8">
     <g id="line2d_8">
      <g>
       <use style="stroke:#000000;stroke-width:0.8;" x="336.874646" xlink:href="#ma5f22805ae" y="252"/>
      </g>
     </g>
     <g id="text_8">
      <!-- 175 -->
      <g transform="translate(327.330896 266.598437)scale(0.1 -0.1)">
       <use xlink:href="#DejaVuSans-31"/>
       <use x="63.623047" xlink:href="#DejaVuSans-37"/>
       <use x="127.246094" xlink:href="#DejaVuSans-35"/>
      </g>
     </g>
    </g>
    <g id="xtick_9">
     <g id="line2d_9">
      <g>
       <use style="stroke:#000000;stroke-width:0.8;" x="375.111284" xlink:href="#ma5f22805ae" y="252"/>
      </g>
     </g>
     <g id="text_9">
      <!-- 200 -->
      <g transform="translate(365.567534 266.598437)scale(0.1 -0.1)">
       <use xlink:href="#DejaVuSans-32"/>
       <use x="63.623047" xlink:href="#DejaVuSans-30"/>
       <use x="127.246094" xlink:href="#DejaVuSans-30"/>
      </g>
     </g>
    </g>
    <g id="text_10">
     <!-- n -->
     <g transform="translate(218.23125 280.276563)scale(0.1 -0.1)">
      <defs>
       <path d="M 3513 2113 
L 3513 0 
L 2938 0 
L 2938 2094 
Q 2938 2591 2744 2837 
Q 2550 3084 2163 3084 
Q 1697 3084 1428 2787 
Q 1159 2491 1159 1978 
L 1159 0 
L 581 0 
L 581 3500 
L 1159 3500 
L 1159 2956 
Q 1366 3272 1645 3428 
Q 1925 3584 2291 3584 
Q 2894 3584 3203 3211 
Q 3513 2838 3513 2113 
z
" id="DejaVuSans-6e" transform="scale(0.015625)"/>
      </defs>
      <use xlink:href="#DejaVuSans-6e"/>
     </g>
    </g>
   </g>
   <g id="matplotlib.axis_2">
    <g id="ytick_1">
     <g id="line2d_10">
      <defs>
       <path d="M 0 0 
L -3.5 0 
" id="mbc1d1c6efa" style="stroke:#000000;stroke-width:0.8;"/>
      </defs>
      <g>
       <use style="stroke:#000000;stroke-width:0.8;" x="54" xlink:href="#mbc1d1c6efa" y="242.116364"/>
      </g>
     </g>
     <g id="text_11">
      <!-- 0.000 -->
      <g transform="translate(18.371875 245.915582)scale(0.1 -0.1)">
       <defs>
        <path d="M 684 794 
L 1344 794 
L 1344 0 
L 684 0 
L 684 794 
z
" id="DejaVuSans-2e" transform="scale(0.015625)"/>
       </defs>
       <use xlink:href="#DejaVuSans-30"/>
       <use x="63.623047" xlink:href="#DejaVuSans-2e"/>
       <use x="95.410156" xlink:href="#DejaVuSans-30"/>
       <use x="159.033203" xlink:href="#DejaVuSans-30"/>
       <use x="222.65625" xlink:href="#DejaVuSans-30"/>
      </g>
     </g>
    </g>
    <g id="ytick_2">
     <g id="line2d_11">
      <g>
       <use style="stroke:#000000;stroke-width:0.8;" x="54" xlink:href="#mbc1d1c6efa" y="212.615613"/>
      </g>
     </g>
     <g id="text_12">
      <!-- 0.005 -->
      <g transform="translate(18.371875 216.414832)scale(0.1 -0.1)">
       <use xlink:href="#DejaVuSans-30"/>
       <use x="63.623047" xlink:href="#DejaVuSans-2e"/>
       <use x="95.410156" xlink:href="#DejaVuSans-30"/>
       <use x="159.033203" xlink:href="#DejaVuSans-30"/>
       <use x="222.65625" xlink:href="#DejaVuSans-35"/>
      </g>
     </g>
    </g>
    <g id="ytick_3">
     <g id="line2d_12">
      <g>
       <use style="stroke:#000000;stroke-width:0.8;" x="54" xlink:href="#mbc1d1c6efa" y="183.114863"/>
      </g>
     </g>
     <g id="text_13">
      <!-- 0.010 -->
      <g transform="translate(18.371875 186.914082)scale(0.1 -0.1)">
       <use xlink:href="#DejaVuSans-30"/>
       <use x="63.623047" xlink:href="#DejaVuSans-2e"/>
       <use x="95.410156" xlink:href="#DejaVuSans-30"/>
       <use x="159.033203" xlink:href="#DejaVuSans-31"/>
       <use x="222.65625" xlink:href="#DejaVuSans-30"/>
      </g>
     </g>
    </g>
    <g id="ytick_4">
     <g id="line2d_13">
      <g>
       <use style="stroke:#000000;stroke-width:0.8;" x="54" xlink:href="#mbc1d1c6efa" y="153.614113"/>
      </g>
     </g>
     <g id="text_14">
      <!-- 0.015 -->
      <g transform="translate(18.371875 157.413332)scale(0.1 -0.1)">
       <use xlink:href="#DejaVuSans-30"/>
       <use x="63.623047" xlink:href="#DejaVuSans-2e"/>
       <use x="95.410156" xlink:href="#DejaVuSans-30"/>
       <use x="159.033203" xlink:href="#DejaVuSans-31"/>
       <use x="222.65625" xlink:href="#DejaVuSans-35"/>
      </g>
     </g>
    </g>
    <g id="ytick_5">
     <g id="line2d_14">
      <g>
       <use style="stroke:#000000;stroke-width:0.8;" x="54" xlink:href="#mbc1d1c6efa" y="124.113363"/>
      </g>
     </g>
     <g id="text_15">
      <!-- 0.020 -->
      <g transform="translate(18.371875 127.912581)scale(0.1 -0.1)">
       <use xlink:href="#DejaVuSans-30"/>
       <use x="63.623047" xlink:href="#DejaVuSans-2e"/>
       <use x="95.410156" xlink:href="#DejaVuSans-30"/>
       <use x="159.033203" xlink:href="#DejaVuSans-32"/>
       <use x="222.65625" xlink:href="#DejaVuSans-30"/>
      </g>
     </g>
    </g>
    <g id="ytick_6">
     <g id="line2d_15">
      <g>
       <use style="stroke:#000000;stroke-width:0.8;" x="54" xlink:href="#mbc1d1c6efa" y="94.612612"/>
      </g>
     </g>
     <g id="text_16">
      <!-- 0.025 -->
      <g transform="translate(18.371875 98.411831)scale(0.1 -0.1)">
       <use xlink:href="#DejaVuSans-30"/>
       <use x="63.623047" xlink:href="#DejaVuSans-2e"/>
       <use x="95.410156" xlink:href="#DejaVuSans-30"/>
       <use x="159.033203" xlink:href="#DejaVuSans-32"/>
       <use x="222.65625" xlink:href="#DejaVuSans-35"/>
      </g>
     </g>
    </g>
    <g id="ytick_7">
     <g id="line2d_16">
      <g>
       <use style="stroke:#000000;stroke-width:0.8;" x="54" xlink:href="#mbc1d1c6efa" y="65.111862"/>
      </g>
     </g>
     <g id="text_17">
      <!-- 0.030 -->
      <g transform="translate(18.371875 68.911081)scale(0.1 -0.1)">
       <defs>
        <path d="M 2597 2516 
Q 3050 2419 3304 2112 
Q 3559 1806 3559 1356 
Q 3559 666 3084 287 
Q 2609 -91 1734 -91 
Q 1441 -91 1130 -33 
Q 819 25 488 141 
L 488 750 
Q 750 597 1062 519 
Q 1375 441 1716 441 
Q 2309 441 2620 675 
Q 2931 909 2931 1356 
Q 2931 1769 2642 2001 
Q 2353 2234 1838 2234 
L 1294 2234 
L 1294 2753 
L 1863 2753 
Q 2328 2753 2575 2939 
Q 2822 3125 2822 3475 
Q 2822 3834 2567 4026 
Q 2313 4219 1838 4219 
Q 1578 4219 1281 4162 
Q 984 4106 628 3988 
L 628 4550 
Q 988 4650 1302 4700 
Q 1616 4750 1894 4750 
Q 2613 4750 3031 4423 
Q 3450 4097 3450 3541 
Q 3450 3153 3228 2886 
Q 3006 2619 2597 2516 
z
" id="DejaVuSans-33" transform="scale(0.015625)"/>
       </defs>
       <use xlink:href="#DejaVuSans-30"/>
       <use x="63.623047" xlink:href="#DejaVuSans-2e"/>
       <use x="95.410156" xlink:href="#DejaVuSans-30"/>
       <use x="159.033203" xlink:href="#DejaVuSans-33"/>
       <use x="222.65625" xlink:href="#DejaVuSans-30"/>
      </g>
     </g>
    </g>
    <g id="ytick_8">
     <g id="line2d_17">
      <g>
       <use style="stroke:#000000;stroke-width:0.8;" x="54" xlink:href="#mbc1d1c6efa" y="35.611112"/>
      </g>
     </g>
     <g id="text_18">
      <!-- 0.035 -->
      <g transform="translate(18.371875 39.41033)scale(0.1 -0.1)">
       <use xlink:href="#DejaVuSans-30"/>
       <use x="63.623047" xlink:href="#DejaVuSans-2e"/>
       <use x="95.410156" xlink:href="#DejaVuSans-30"/>
       <use x="159.033203" xlink:href="#DejaVuSans-33"/>
       <use x="222.65625" xlink:href="#DejaVuSans-35"/>
      </g>
     </g>
    </g>
    <g id="text_19">
     <!-- tiempo (ms) -->
     <g transform="translate(12.292187 173.775312)rotate(-90)scale(0.1 -0.1)">
      <defs>
       <path d="M 1172 4494 
L 1172 3500 
L 2356 3500 
L 2356 3053 
L 1172 3053 
L 1172 1153 
Q 1172 725 1289 603 
Q 1406 481 1766 481 
L 2356 481 
L 2356 0 
L 1766 0 
Q 1100 0 847 248 
Q 594 497 594 1153 
L 594 3053 
L 172 3053 
L 172 3500 
L 594 3500 
L 594 4494 
L 1172 4494 
z
" id="DejaVuSans-74" transform="scale(0.015625)"/>
       <path d="M 603 3500 
L 1178 3500 
L 1178 0 
L 603 0 
L 603 3500 
z
M 603 4863 
L 1178 4863 
L 1178 4134 
L 603 4134 
L 603 4863 
z
" id="DejaVuSans-69" transform="scale(0.015625)"/>
       <path d="M 3597 1894 
L 3597 1613 
L 953 1613 
Q 991 1019 1311 708 
Q 1631 397 2203 397 
Q 2534 397 2845 478 
Q 3156 559 3463 722 
L 3463 178 
Q 3153 47 2828 -22 
Q 2503 -91 2169 -91 
Q 1331 -91 842 396 
Q 353 884 353 1716 
Q 353 2575 817 3079 
Q 1281 3584 2069 3584 
Q 2775 3584 3186 3129 
Q 3597 2675 3597 1894 
z
M 3022 2063 
Q 3016 2534 2758 2815 
Q 2500 3097 2075 3097 
Q 1594 3097 1305 2825 
Q 1016 2553 972 2059 
L 3022 2063 
z
" id="DejaVuSans-65" transform="scale(0.015625)"/>
       <path d="M 3328 2828 
Q 3544 3216 3844 3400 
Q 4144 3584 4550 3584 
Q 5097 3584 5394 3201 
Q 5691 2819 5691 2113 
L 5691 0 
L 5113 0 
L 5113 2094 
Q 5113 2597 4934 2840 
Q 4756 3084 4391 3084 
Q 3944 3084 3684 2787 
Q 3425 2491 3425 1978 
L 3425 0 
L 2847 0 
L 2847 2094 
Q 2847 2600 2669 2842 
Q 2491 3084 2119 3084 
Q 1678 3084 1418 2786 
Q 1159 2488 1159 1978 
L 1159 0 
L 581 0 
L 581 3500 
L 1159 3500 
L 1159 2956 
Q 1356 3278 1631 3431 
Q 1906 3584 2284 3584 
Q 2666 3584 2933 3390 
Q 3200 3197 3328 2828 
z
" id="DejaVuSans-6d" transform="scale(0.015625)"/>
       <path d="M 1159 525 
L 1159 -1331 
L 581 -1331 
L 581 3500 
L 1159 3500 
L 1159 2969 
Q 1341 3281 1617 3432 
Q 1894 3584 2278 3584 
Q 2916 3584 3314 3078 
Q 3713 2572 3713 1747 
Q 3713 922 3314 415 
Q 2916 -91 2278 -91 
Q 1894 -91 1617 61 
Q 1341 213 1159 525 
z
M 3116 1747 
Q 3116 2381 2855 2742 
Q 2594 3103 2138 3103 
Q 1681 3103 1420 2742 
Q 1159 2381 1159 1747 
Q 1159 1113 1420 752 
Q 1681 391 2138 391 
Q 2594 391 2855 752 
Q 3116 1113 3116 1747 
z
" id="DejaVuSans-70" transform="scale(0.015625)"/>
       <path d="M 1959 3097 
Q 1497 3097 1228 2736 
Q 959 2375 959 1747 
Q 959 1119 1226 758 
Q 1494 397 1959 397 
Q 2419 397 2687 759 
Q 2956 1122 2956 1747 
Q 2956 2369 2687 2733 
Q 2419 3097 1959 3097 
z
M 1959 3584 
Q 2709 3584 3137 3096 
Q 3566 2609 3566 1747 
Q 3566 888 3137 398 
Q 2709 -91 1959 -91 
Q 1206 -91 779 398 
Q 353 888 353 1747 
Q 353 2609 779 3096 
Q 1206 3584 1959 3584 
z
" id="DejaVuSans-6f" transform="scale(0.015625)"/>
       <path id="DejaVuSans-20" transform="scale(0.015625)"/>
       <path d="M 1984 4856 
Q 1566 4138 1362 3434 
Q 1159 2731 1159 2009 
Q 1159 1288 1364 580 
Q 1569 -128 1984 -844 
L 1484 -844 
Q 1016 -109 783 600 
Q 550 1309 550 2009 
Q 550 2706 781 3412 
Q 1013 4119 1484 4856 
L 1984 4856 
z
" id="DejaVuSans-28" transform="scale(0.015625)"/>
       <path d="M 2834 3397 
L 2834 2853 
Q 2591 2978 2328 3040 
Q 2066 3103 1784 3103 
Q 1356 3103 1142 2972 
Q 928 2841 928 2578 
Q 928 2378 1081 2264 
Q 1234 2150 1697 2047 
L 1894 2003 
Q 2506 1872 2764 1633 
Q 3022 1394 3022 966 
Q 3022 478 2636 193 
Q 2250 -91 1575 -91 
Q 1294 -91 989 -36 
Q 684 19 347 128 
L 347 722 
Q 666 556 975 473 
Q 1284 391 1588 391 
Q 1994 391 2212 530 
Q 2431 669 2431 922 
Q 2431 1156 2273 1281 
Q 2116 1406 1581 1522 
L 1381 1569 
Q 847 1681 609 1914 
Q 372 2147 372 2553 
Q 372 3047 722 3315 
Q 1072 3584 1716 3584 
Q 2034 3584 2315 3537 
Q 2597 3491 2834 3397 
z
" id="DejaVuSans-73" transform="scale(0.015625)"/>
       <path d="M 513 4856 
L 1013 4856 
Q 1481 4119 1714 3412 
Q 1947 2706 1947 2009 
Q 1947 1309 1714 600 
Q 1481 -109 1013 -844 
L 513 -844 
Q 928 -128 1133 580 
Q 1338 1288 1338 2009 
Q 1338 2731 1133 3434 
Q 928 4138 513 4856 
z
" id="DejaVuSans-29" transform="scale(0.015625)"/>
      </defs>
      <use xlink:href="#DejaVuSans-74"/>
      <use x="39.208984" xlink:href="#DejaVuSans-69"/>
      <use x="66.992188" xlink:href="#DejaVuSans-65"/>
      <use x="128.515625" xlink:href="#DejaVuSans-6d"/>
      <use x="225.927734" xlink:href="#DejaVuSans-70"/>
      <use x="289.404297" xlink:href="#DejaVuSans-6f"/>
      <use x="350.585938" xlink:href="#DejaVuSans-20"/>
      <use x="382.373047" xlink:href="#DejaVuSans-28"/>
      <use x="421.386719" xlink:href="#DejaVuSans-6d"/>
      <use x="518.798828" xlink:href="#DejaVuSans-73"/>
      <use x="570.898438" xlink:href="#DejaVuSans-29"/>
     </g>
    </g>
   </g>
   <g id="line2d_18">
    <path clip-path="url(#p1b8e1ea7e8)" d="M 69.218182 242.116364 
L 373.581818 101.22078 
L 373.581818 101.22078 
" style="fill:none;stroke:#ffa500;stroke-linecap:square;stroke-width:1.5;"/>
   </g>
   <g id="patch_3">
    <path d="M 54 252 
L 54 34.56 
" style="fill:none;stroke:#000000;stroke-linecap:square;stroke-linejoin:miter;stroke-width:0.8;"/>
   </g>
   <g id="patch_4">
    <path d="M 388.8 252 
L 388.8 34.56 
" style="fill:none;stroke:#000000;stroke-linecap:square;stroke-linejoin:miter;stroke-width:0.8;"/>
   </g>
   <g id="patch_5">
    <path d="M 54 252 
L 388.8 252 
" style="fill:none;stroke:#000000;stroke-linecap:square;stroke-linejoin:miter;stroke-width:0.8;"/>
   </g>
   <g id="patch_6">
    <path d="M 54 34.56 
L 388.8 34.56 
" style="fill:none;stroke:#000000;stroke-linecap:square;stroke-linejoin:miter;stroke-width:0.8;"/>
   </g>
   <g id="legend_1">
    <g id="patch_7">
     <path d="M 61 71.91625 
L 115.026562 71.91625 
Q 117.026562 71.91625 117.026562 69.91625 
L 117.026562 41.56 
Q 117.026562 39.56 115.026562 39.56 
L 61 39.56 
Q 59 39.56 59 41.56 
L 59 69.91625 
Q 59 71.91625 61 71.91625 
z
" style="fill:#ffffff;opacity:0.8;stroke:#cccccc;stroke-linejoin:miter;"/>
    </g>
    <g id="line2d_19">
     <path d="M 63 47.658437 
L 83 47.658437 
" style="fill:none;stroke:#ffa500;stroke-linecap:square;stroke-width:1.5;"/>
    </g>
    <g id="line2d_20"/>
    <g id="text_20">
     <!-- O(n) -->
     <g transform="translate(91 51.158437)scale(0.1 -0.1)">
      <defs>
       <path d="M 2522 4238 
Q 1834 4238 1429 3725 
Q 1025 3213 1025 2328 
Q 1025 1447 1429 934 
Q 1834 422 2522 422 
Q 3209 422 3611 934 
Q 4013 1447 4013 2328 
Q 4013 3213 3611 3725 
Q 3209 4238 2522 4238 
z
M 2522 4750 
Q 3503 4750 4090 4092 
Q 4678 3434 4678 2328 
Q 4678 1225 4090 567 
Q 3503 -91 2522 -91 
Q 1538 -91 948 565 
Q 359 1222 359 2328 
Q 359 3434 948 4092 
Q 1538 4750 2522 4750 
z
" id="DejaVuSans-4f" transform="scale(0.015625)"/>
      </defs>
      <use xlink:href="#DejaVuSans-4f"/>
      <use x="78.710938" xlink:href="#DejaVuSans-28"/>
      <use x="117.724609" xlink:href="#DejaVuSans-6e"/>
      <use x="181.103516" xlink:href="#DejaVuSans-29"/>
     </g>
    </g>
    <g id="PathCollection_2">
     <g>
      <use style="fill:#1f77b4;stroke:#ffffff;stroke-width:0.48;" x="73" xlink:href="#m125d44266a" y="63.211562"/>
     </g>
    </g>
    <g id="text_21">
     <!-- BT-0 -->
     <g transform="translate(91 65.836562)scale(0.1 -0.1)">
      <defs>
       <path d="M 1259 2228 
L 1259 519 
L 2272 519 
Q 2781 519 3026 730 
Q 3272 941 3272 1375 
Q 3272 1813 3026 2020 
Q 2781 2228 2272 2228 
L 1259 2228 
z
M 1259 4147 
L 1259 2741 
L 2194 2741 
Q 2656 2741 2882 2914 
Q 3109 3088 3109 3444 
Q 3109 3797 2882 3972 
Q 2656 4147 2194 4147 
L 1259 4147 
z
M 628 4666 
L 2241 4666 
Q 2963 4666 3353 4366 
Q 3744 4066 3744 3513 
Q 3744 3084 3544 2831 
Q 3344 2578 2956 2516 
Q 3422 2416 3680 2098 
Q 3938 1781 3938 1306 
Q 3938 681 3513 340 
Q 3088 0 2303 0 
L 628 0 
L 628 4666 
z
" id="DejaVuSans-42" transform="scale(0.015625)"/>
       <path d="M -19 4666 
L 3928 4666 
L 3928 4134 
L 2272 4134 
L 2272 0 
L 1638 0 
L 1638 4134 
L -19 4134 
L -19 4666 
z
" id="DejaVuSans-54" transform="scale(0.015625)"/>
       <path d="M 313 2009 
L 1997 2009 
L 1997 1497 
L 313 1497 
L 313 2009 
z
" id="DejaVuSans-2d" transform="scale(0.015625)"/>
      </defs>
      <use xlink:href="#DejaVuSans-42"/>
      <use x="68.603516" xlink:href="#DejaVuSans-54"/>
      <use x="120.5625" xlink:href="#DejaVuSans-2d"/>
      <use x="156.646484" xlink:href="#DejaVuSans-30"/>
     </g>
    </g>
   </g>
  </g>
 </g>
 <defs>
  <clipPath id="p1b8e1ea7e8">
   <rect height="217.44" width="334.8" x="54" y="34.56"/>
  </clipPath>
 </defs>
</svg>
