<?xml version="1.0" encoding="utf-8" standalone="no"?>
<!DOCTYPE svg PUBLIC "-//W3C//DTD SVG 1.1//EN"
  "http://www.w3.org/Graphics/SVG/1.1/DTD/svg11.dtd">
<svg height="288pt" version="1.1" viewBox="0 0 432 288" width="432pt" xmlns="http://www.w3.org/2000/svg" xmlns:xlink="http://www.w3.org/1999/xlink">
 <metadata>
  <rdf:RDF xmlns:cc="http://creativecommons.org/ns#" xmlns:dc="http://purl.org/dc/elements/1.1/" xmlns:rdf="http://www.w3.org/1999/02/22-rdf-syntax-ns#">
   <cc:Work>
    <dc:type rdf:resource="http://purl.org/dc/dcmitype/StillImage"/>
    <dc:date>2021-04-20T04:29:36.317286</dc:date>
    <dc:format>image/svg+xml</dc:format>
    <dc:creator>
     <cc:Agent>
      <dc:title>Matplotlib v3.4.1, https://matplotlib.org/</dc:title>
     </cc:Agent>
    </dc:creator>
   </cc:Work>
  </rdf:RDF>
 </metadata>
 <defs>
  <style type="text/css">*{stroke-linecap:butt;stroke-linejoin:round;}</style>
 </defs>
 <g id="figure_1">
  <g id="patch_1">
   <path d="M 0 288 
L 432 288 
L 432 0 
L 0 0 
z
" style="fill:none;"/>
  </g>
  <g id="axes_1">
   <g id="patch_2">
    <path d="M 54 252 
L 388.8 252 
L 388.8 34.56 
L 54 34.56 
z
" style="fill:#ffffff;"/>
   </g>
   <g id="PathCollection_1">
    <defs>
     <path d="M 0 3 
C 0.795609 3 1.55874 2.683901 2.12132 2.12132 
C 2.683901 1.55874 3 0.795609 3 0 
C 3 -0.795609 2.683901 -1.55874 2.12132 -2.12132 
C 1.55874 -2.683901 0.795609 -3 0 -3 
C -0.795609 -3 -1.55874 -2.683901 -2.12132 -2.12132 
C -2.683901 -1.55874 -3 -0.795609 -3 0 
C -3 0.795609 -2.683901 1.55874 -2.12132 2.12132 
C -1.55874 2.683901 -0.795609 3 0 3 
z
" id="m50809fa0b9" style="stroke:#ffffff;stroke-width:0.48;"/>
    </defs>
    <g clip-path="url(#p11bbe042a9)">
     <use style="fill:#0000ff;stroke:#ffffff;stroke-width:0.48;" x="69.218182" xlink:href="#m50809fa0b9" y="242.116363"/>
     <use style="fill:#0000ff;stroke:#ffffff;stroke-width:0.48;" x="73.694118" xlink:href="#m50809fa0b9" y="242.116363"/>
     <use style="fill:#0000ff;stroke:#ffffff;stroke-width:0.48;" x="78.170053" xlink:href="#m50809fa0b9" y="242.116363"/>
     <use style="fill:#0000ff;stroke:#ffffff;stroke-width:0.48;" x="82.645989" xlink:href="#m50809fa0b9" y="242.116363"/>
     <use style="fill:#0000ff;stroke:#ffffff;stroke-width:0.48;" x="87.121925" xlink:href="#m50809fa0b9" y="242.116363"/>
     <use style="fill:#0000ff;stroke:#ffffff;stroke-width:0.48;" x="91.597861" xlink:href="#m50809fa0b9" y="242.116363"/>
     <use style="fill:#0000ff;stroke:#ffffff;stroke-width:0.48;" x="96.073797" xlink:href="#m50809fa0b9" y="242.116363"/>
     <use style="fill:#0000ff;stroke:#ffffff;stroke-width:0.48;" x="100.549733" xlink:href="#m50809fa0b9" y="242.116362"/>
     <use style="fill:#0000ff;stroke:#ffffff;stroke-width:0.48;" x="105.025668" xlink:href="#m50809fa0b9" y="242.116362"/>
     <use style="fill:#0000ff;stroke:#ffffff;stroke-width:0.48;" x="109.501604" xlink:href="#m50809fa0b9" y="242.11636"/>
     <use style="fill:#0000ff;stroke:#ffffff;stroke-width:0.48;" x="113.97754" xlink:href="#m50809fa0b9" y="242.116361"/>
     <use style="fill:#0000ff;stroke:#ffffff;stroke-width:0.48;" x="118.453476" xlink:href="#m50809fa0b9" y="242.116357"/>
     <use style="fill:#0000ff;stroke:#ffffff;stroke-width:0.48;" x="122.929412" xlink:href="#m50809fa0b9" y="242.116355"/>
     <use style="fill:#0000ff;stroke:#ffffff;stroke-width:0.48;" x="127.405348" xlink:href="#m50809fa0b9" y="242.116355"/>
     <use style="fill:#0000ff;stroke:#ffffff;stroke-width:0.48;" x="131.881283" xlink:href="#m50809fa0b9" y="242.116341"/>
     <use style="fill:#0000ff;stroke:#ffffff;stroke-width:0.48;" x="136.357219" xlink:href="#m50809fa0b9" y="242.116341"/>
     <use style="fill:#0000ff;stroke:#ffffff;stroke-width:0.48;" x="140.833155" xlink:href="#m50809fa0b9" y="242.116342"/>
     <use style="fill:#0000ff;stroke:#ffffff;stroke-width:0.48;" x="145.309091" xlink:href="#m50809fa0b9" y="242.1163"/>
     <use style="fill:#0000ff;stroke:#ffffff;stroke-width:0.48;" x="149.785027" xlink:href="#m50809fa0b9" y="242.116323"/>
     <use style="fill:#0000ff;stroke:#ffffff;stroke-width:0.48;" x="154.260963" xlink:href="#m50809fa0b9" y="242.116332"/>
     <use style="fill:#0000ff;stroke:#ffffff;stroke-width:0.48;" x="158.736898" xlink:href="#m50809fa0b9" y="242.116266"/>
     <use style="fill:#0000ff;stroke:#ffffff;stroke-width:0.48;" x="163.212834" xlink:href="#m50809fa0b9" y="242.116133"/>
     <use style="fill:#0000ff;stroke:#ffffff;stroke-width:0.48;" x="167.68877" xlink:href="#m50809fa0b9" y="242.115882"/>
     <use style="fill:#0000ff;stroke:#ffffff;stroke-width:0.48;" x="172.164706" xlink:href="#m50809fa0b9" y="242.115824"/>
     <use style="fill:#0000ff;stroke:#ffffff;stroke-width:0.48;" x="176.640642" xlink:href="#m50809fa0b9" y="242.115436"/>
     <use style="fill:#0000ff;stroke:#ffffff;stroke-width:0.48;" x="181.116578" xlink:href="#m50809fa0b9" y="242.11532"/>
     <use style="fill:#0000ff;stroke:#ffffff;stroke-width:0.48;" x="185.592513" xlink:href="#m50809fa0b9" y="242.115742"/>
     <use style="fill:#0000ff;stroke:#ffffff;stroke-width:0.48;" x="190.068449" xlink:href="#m50809fa0b9" y="242.116236"/>
     <use style="fill:#0000ff;stroke:#ffffff;stroke-width:0.48;" x="194.544385" xlink:href="#m50809fa0b9" y="242.115638"/>
     <use style="fill:#0000ff;stroke:#ffffff;stroke-width:0.48;" x="199.020321" xlink:href="#m50809fa0b9" y="242.112474"/>
     <use style="fill:#0000ff;stroke:#ffffff;stroke-width:0.48;" x="203.496257" xlink:href="#m50809fa0b9" y="242.114003"/>
     <use style="fill:#0000ff;stroke:#ffffff;stroke-width:0.48;" x="207.972193" xlink:href="#m50809fa0b9" y="242.113521"/>
     <use style="fill:#0000ff;stroke:#ffffff;stroke-width:0.48;" x="212.448128" xlink:href="#m50809fa0b9" y="242.115071"/>
     <use style="fill:#0000ff;stroke:#ffffff;stroke-width:0.48;" x="216.924064" xlink:href="#m50809fa0b9" y="242.106606"/>
     <use style="fill:#0000ff;stroke:#ffffff;stroke-width:0.48;" x="221.4" xlink:href="#m50809fa0b9" y="242.113705"/>
     <use style="fill:#0000ff;stroke:#ffffff;stroke-width:0.48;" x="225.875936" xlink:href="#m50809fa0b9" y="242.110734"/>
     <use style="fill:#0000ff;stroke:#ffffff;stroke-width:0.48;" x="230.351872" xlink:href="#m50809fa0b9" y="242.098338"/>
     <use style="fill:#0000ff;stroke:#ffffff;stroke-width:0.48;" x="234.827807" xlink:href="#m50809fa0b9" y="242.089176"/>
     <use style="fill:#0000ff;stroke:#ffffff;stroke-width:0.48;" x="239.303743" xlink:href="#m50809fa0b9" y="242.110873"/>
     <use style="fill:#0000ff;stroke:#ffffff;stroke-width:0.48;" x="243.779679" xlink:href="#m50809fa0b9" y="242.097784"/>
     <use style="fill:#0000ff;stroke:#ffffff;stroke-width:0.48;" x="248.255615" xlink:href="#m50809fa0b9" y="242.105852"/>
     <use style="fill:#0000ff;stroke:#ffffff;stroke-width:0.48;" x="252.731551" xlink:href="#m50809fa0b9" y="241.99308"/>
     <use style="fill:#0000ff;stroke:#ffffff;stroke-width:0.48;" x="257.207487" xlink:href="#m50809fa0b9" y="242.101754"/>
     <use style="fill:#0000ff;stroke:#ffffff;stroke-width:0.48;" x="261.683422" xlink:href="#m50809fa0b9" y="242.11268"/>
     <use style="fill:#0000ff;stroke:#ffffff;stroke-width:0.48;" x="266.159358" xlink:href="#m50809fa0b9" y="242.102096"/>
     <use style="fill:#0000ff;stroke:#ffffff;stroke-width:0.48;" x="270.635294" xlink:href="#m50809fa0b9" y="242.013178"/>
     <use style="fill:#0000ff;stroke:#ffffff;stroke-width:0.48;" x="275.11123" xlink:href="#m50809fa0b9" y="241.973959"/>
     <use style="fill:#0000ff;stroke:#ffffff;stroke-width:0.48;" x="279.587166" xlink:href="#m50809fa0b9" y="241.628044"/>
     <use style="fill:#0000ff;stroke:#ffffff;stroke-width:0.48;" x="284.063102" xlink:href="#m50809fa0b9" y="240.648489"/>
     <use style="fill:#0000ff;stroke:#ffffff;stroke-width:0.48;" x="288.539037" xlink:href="#m50809fa0b9" y="241.732299"/>
     <use style="fill:#0000ff;stroke:#ffffff;stroke-width:0.48;" x="293.014973" xlink:href="#m50809fa0b9" y="241.156234"/>
     <use style="fill:#0000ff;stroke:#ffffff;stroke-width:0.48;" x="297.490909" xlink:href="#m50809fa0b9" y="241.457973"/>
     <use style="fill:#0000ff;stroke:#ffffff;stroke-width:0.48;" x="301.966845" xlink:href="#m50809fa0b9" y="241.431717"/>
     <use style="fill:#0000ff;stroke:#ffffff;stroke-width:0.48;" x="306.442781" xlink:href="#m50809fa0b9" y="240.823093"/>
     <use style="fill:#0000ff;stroke:#ffffff;stroke-width:0.48;" x="310.918717" xlink:href="#m50809fa0b9" y="241.066556"/>
     <use style="fill:#0000ff;stroke:#ffffff;stroke-width:0.48;" x="315.394652" xlink:href="#m50809fa0b9" y="240.80071"/>
     <use style="fill:#0000ff;stroke:#ffffff;stroke-width:0.48;" x="319.870588" xlink:href="#m50809fa0b9" y="240.025221"/>
     <use style="fill:#0000ff;stroke:#ffffff;stroke-width:0.48;" x="324.346524" xlink:href="#m50809fa0b9" y="241.604543"/>
     <use style="fill:#0000ff;stroke:#ffffff;stroke-width:0.48;" x="328.82246" xlink:href="#m50809fa0b9" y="240.153683"/>
     <use style="fill:#0000ff;stroke:#ffffff;stroke-width:0.48;" x="333.298396" xlink:href="#m50809fa0b9" y="239.607811"/>
     <use style="fill:#0000ff;stroke:#ffffff;stroke-width:0.48;" x="337.774332" xlink:href="#m50809fa0b9" y="241.092728"/>
     <use style="fill:#0000ff;stroke:#ffffff;stroke-width:0.48;" x="342.250267" xlink:href="#m50809fa0b9" y="240.317197"/>
     <use style="fill:#0000ff;stroke:#ffffff;stroke-width:0.48;" x="346.726203" xlink:href="#m50809fa0b9" y="234.959279"/>
     <use style="fill:#0000ff;stroke:#ffffff;stroke-width:0.48;" x="351.202139" xlink:href="#m50809fa0b9" y="227.164345"/>
     <use style="fill:#0000ff;stroke:#ffffff;stroke-width:0.48;" x="355.678075" xlink:href="#m50809fa0b9" y="238.137957"/>
     <use style="fill:#0000ff;stroke:#ffffff;stroke-width:0.48;" x="360.154011" xlink:href="#m50809fa0b9" y="208.035968"/>
     <use style="fill:#0000ff;stroke:#ffffff;stroke-width:0.48;" x="364.629947" xlink:href="#m50809fa0b9" y="213.83284"/>
     <use style="fill:#0000ff;stroke:#ffffff;stroke-width:0.48;" x="369.105882" xlink:href="#m50809fa0b9" y="220.267389"/>
     <use style="fill:#0000ff;stroke:#ffffff;stroke-width:0.48;" x="373.581818" xlink:href="#m50809fa0b9" y="94.361433"/>
    </g>
   </g>
   <g id="matplotlib.axis_1">
    <g id="xtick_1">
     <g id="line2d_1">
      <defs>
       <path d="M 0 0 
L 0 3.5 
" id="m8c9a7ee7db" style="stroke:#000000;stroke-width:0.8;"/>
      </defs>
      <g>
       <use style="stroke:#000000;stroke-width:0.8;" x="69.218182" xlink:href="#m8c9a7ee7db" y="252"/>
      </g>
     </g>
     <g id="text_1">
      <!-- 0 -->
      <g transform="translate(66.036932 266.598437)scale(0.1 -0.1)">
       <defs>
        <path d="M 2034 4250 
Q 1547 4250 1301 3770 
Q 1056 3291 1056 2328 
Q 1056 1369 1301 889 
Q 1547 409 2034 409 
Q 2525 409 2770 889 
Q 3016 1369 3016 2328 
Q 3016 3291 2770 3770 
Q 2525 4250 2034 4250 
z
M 2034 4750 
Q 2819 4750 3233 4129 
Q 3647 3509 3647 2328 
Q 3647 1150 3233 529 
Q 2819 -91 2034 -91 
Q 1250 -91 836 529 
Q 422 1150 422 2328 
Q 422 3509 836 4129 
Q 1250 4750 2034 4750 
z
" id="DejaVuSans-30" transform="scale(0.015625)"/>
       </defs>
       <use xlink:href="#DejaVuSans-30"/>
      </g>
     </g>
    </g>
    <g id="xtick_2">
     <g id="line2d_2">
      <g>
       <use style="stroke:#000000;stroke-width:0.8;" x="113.97754" xlink:href="#m8c9a7ee7db" y="252"/>
      </g>
     </g>
     <g id="text_2">
      <!-- 10 -->
      <g transform="translate(107.61504 266.598437)scale(0.1 -0.1)">
       <defs>
        <path d="M 794 531 
L 1825 531 
L 1825 4091 
L 703 3866 
L 703 4441 
L 1819 4666 
L 2450 4666 
L 2450 531 
L 3481 531 
L 3481 0 
L 794 0 
L 794 531 
z
" id="DejaVuSans-31" transform="scale(0.015625)"/>
       </defs>
       <use xlink:href="#DejaVuSans-31"/>
       <use x="63.623047" xlink:href="#DejaVuSans-30"/>
      </g>
     </g>
    </g>
    <g id="xtick_3">
     <g id="line2d_3">
      <g>
       <use style="stroke:#000000;stroke-width:0.8;" x="158.736898" xlink:href="#m8c9a7ee7db" y="252"/>
      </g>
     </g>
     <g id="text_3">
      <!-- 20 -->
      <g transform="translate(152.374398 266.598437)scale(0.1 -0.1)">
       <defs>
        <path d="M 1228 531 
L 3431 531 
L 3431 0 
L 469 0 
L 469 531 
Q 828 903 1448 1529 
Q 2069 2156 2228 2338 
Q 2531 2678 2651 2914 
Q 2772 3150 2772 3378 
Q 2772 3750 2511 3984 
Q 2250 4219 1831 4219 
Q 1534 4219 1204 4116 
Q 875 4013 500 3803 
L 500 4441 
Q 881 4594 1212 4672 
Q 1544 4750 1819 4750 
Q 2544 4750 2975 4387 
Q 3406 4025 3406 3419 
Q 3406 3131 3298 2873 
Q 3191 2616 2906 2266 
Q 2828 2175 2409 1742 
Q 1991 1309 1228 531 
z
" id="DejaVuSans-32" transform="scale(0.015625)"/>
       </defs>
       <use xlink:href="#DejaVuSans-32"/>
       <use x="63.623047" xlink:href="#DejaVuSans-30"/>
      </g>
     </g>
    </g>
    <g id="xtick_4">
     <g id="line2d_4">
      <g>
       <use style="stroke:#000000;stroke-width:0.8;" x="203.496257" xlink:href="#m8c9a7ee7db" y="252"/>
      </g>
     </g>
     <g id="text_4">
      <!-- 30 -->
      <g transform="translate(197.133757 266.598437)scale(0.1 -0.1)">
       <defs>
        <path d="M 2597 2516 
Q 3050 2419 3304 2112 
Q 3559 1806 3559 1356 
Q 3559 666 3084 287 
Q 2609 -91 1734 -91 
Q 1441 -91 1130 -33 
Q 819 25 488 141 
L 488 750 
Q 750 597 1062 519 
Q 1375 441 1716 441 
Q 2309 441 2620 675 
Q 2931 909 2931 1356 
Q 2931 1769 2642 2001 
Q 2353 2234 1838 2234 
L 1294 2234 
L 1294 2753 
L 1863 2753 
Q 2328 2753 2575 2939 
Q 2822 3125 2822 3475 
Q 2822 3834 2567 4026 
Q 2313 4219 1838 4219 
Q 1578 4219 1281 4162 
Q 984 4106 628 3988 
L 628 4550 
Q 988 4650 1302 4700 
Q 1616 4750 1894 4750 
Q 2613 4750 3031 4423 
Q 3450 4097 3450 3541 
Q 3450 3153 3228 2886 
Q 3006 2619 2597 2516 
z
" id="DejaVuSans-33" transform="scale(0.015625)"/>
       </defs>
       <use xlink:href="#DejaVuSans-33"/>
       <use x="63.623047" xlink:href="#DejaVuSans-30"/>
      </g>
     </g>
    </g>
    <g id="xtick_5">
     <g id="line2d_5">
      <g>
       <use style="stroke:#000000;stroke-width:0.8;" x="248.255615" xlink:href="#m8c9a7ee7db" y="252"/>
      </g>
     </g>
     <g id="text_5">
      <!-- 40 -->
      <g transform="translate(241.893115 266.598437)scale(0.1 -0.1)">
       <defs>
        <path d="M 2419 4116 
L 825 1625 
L 2419 1625 
L 2419 4116 
z
M 2253 4666 
L 3047 4666 
L 3047 1625 
L 3713 1625 
L 3713 1100 
L 3047 1100 
L 3047 0 
L 2419 0 
L 2419 1100 
L 313 1100 
L 313 1709 
L 2253 4666 
z
" id="DejaVuSans-34" transform="scale(0.015625)"/>
       </defs>
       <use xlink:href="#DejaVuSans-34"/>
       <use x="63.623047" xlink:href="#DejaVuSans-30"/>
      </g>
     </g>
    </g>
    <g id="xtick_6">
     <g id="line2d_6">
      <g>
       <use style="stroke:#000000;stroke-width:0.8;" x="293.014973" xlink:href="#m8c9a7ee7db" y="252"/>
      </g>
     </g>
     <g id="text_6">
      <!-- 50 -->
      <g transform="translate(286.652473 266.598437)scale(0.1 -0.1)">
       <defs>
        <path d="M 691 4666 
L 3169 4666 
L 3169 4134 
L 1269 4134 
L 1269 2991 
Q 1406 3038 1543 3061 
Q 1681 3084 1819 3084 
Q 2600 3084 3056 2656 
Q 3513 2228 3513 1497 
Q 3513 744 3044 326 
Q 2575 -91 1722 -91 
Q 1428 -91 1123 -41 
Q 819 9 494 109 
L 494 744 
Q 775 591 1075 516 
Q 1375 441 1709 441 
Q 2250 441 2565 725 
Q 2881 1009 2881 1497 
Q 2881 1984 2565 2268 
Q 2250 2553 1709 2553 
Q 1456 2553 1204 2497 
Q 953 2441 691 2322 
L 691 4666 
z
" id="DejaVuSans-35" transform="scale(0.015625)"/>
       </defs>
       <use xlink:href="#DejaVuSans-35"/>
       <use x="63.623047" xlink:href="#DejaVuSans-30"/>
      </g>
     </g>
    </g>
    <g id="xtick_7">
     <g id="line2d_7">
      <g>
       <use style="stroke:#000000;stroke-width:0.8;" x="337.774332" xlink:href="#m8c9a7ee7db" y="252"/>
      </g>
     </g>
     <g id="text_7">
      <!-- 60 -->
      <g transform="translate(331.411832 266.598437)scale(0.1 -0.1)">
       <defs>
        <path d="M 2113 2584 
Q 1688 2584 1439 2293 
Q 1191 2003 1191 1497 
Q 1191 994 1439 701 
Q 1688 409 2113 409 
Q 2538 409 2786 701 
Q 3034 994 3034 1497 
Q 3034 2003 2786 2293 
Q 2538 2584 2113 2584 
z
M 3366 4563 
L 3366 3988 
Q 3128 4100 2886 4159 
Q 2644 4219 2406 4219 
Q 1781 4219 1451 3797 
Q 1122 3375 1075 2522 
Q 1259 2794 1537 2939 
Q 1816 3084 2150 3084 
Q 2853 3084 3261 2657 
Q 3669 2231 3669 1497 
Q 3669 778 3244 343 
Q 2819 -91 2113 -91 
Q 1303 -91 875 529 
Q 447 1150 447 2328 
Q 447 3434 972 4092 
Q 1497 4750 2381 4750 
Q 2619 4750 2861 4703 
Q 3103 4656 3366 4563 
z
" id="DejaVuSans-36" transform="scale(0.015625)"/>
       </defs>
       <use xlink:href="#DejaVuSans-36"/>
       <use x="63.623047" xlink:href="#DejaVuSans-30"/>
      </g>
     </g>
    </g>
    <g id="xtick_8">
     <g id="line2d_8">
      <g>
       <use style="stroke:#000000;stroke-width:0.8;" x="382.53369" xlink:href="#m8c9a7ee7db" y="252"/>
      </g>
     </g>
     <g id="text_8">
      <!-- 70 -->
      <g transform="translate(376.17119 266.598437)scale(0.1 -0.1)">
       <defs>
        <path d="M 525 4666 
L 3525 4666 
L 3525 4397 
L 1831 0 
L 1172 0 
L 2766 4134 
L 525 4134 
L 525 4666 
z
" id="DejaVuSans-37" transform="scale(0.015625)"/>
       </defs>
       <use xlink:href="#DejaVuSans-37"/>
       <use x="63.623047" xlink:href="#DejaVuSans-30"/>
      </g>
     </g>
    </g>
    <g id="text_9">
     <!-- n -->
     <g transform="translate(218.23125 280.276563)scale(0.1 -0.1)">
      <defs>
       <path d="M 3513 2113 
L 3513 0 
L 2938 0 
L 2938 2094 
Q 2938 2591 2744 2837 
Q 2550 3084 2163 3084 
Q 1697 3084 1428 2787 
Q 1159 2491 1159 1978 
L 1159 0 
L 581 0 
L 581 3500 
L 1159 3500 
L 1159 2956 
Q 1366 3272 1645 3428 
Q 1925 3584 2291 3584 
Q 2894 3584 3203 3211 
Q 3513 2838 3513 2113 
z
" id="DejaVuSans-6e" transform="scale(0.015625)"/>
      </defs>
      <use xlink:href="#DejaVuSans-6e"/>
     </g>
    </g>
   </g>
   <g id="matplotlib.axis_2">
    <g id="ytick_1">
     <g id="line2d_9">
      <defs>
       <path d="M 0 0 
L -3.5 0 
" id="mf08980f272" style="stroke:#000000;stroke-width:0.8;"/>
      </defs>
      <g>
       <use style="stroke:#000000;stroke-width:0.8;" x="54" xlink:href="#mf08980f272" y="242.116364"/>
      </g>
     </g>
     <g id="text_10">
      <!-- 0 -->
      <g transform="translate(40.6375 245.915582)scale(0.1 -0.1)">
       <use xlink:href="#DejaVuSans-30"/>
      </g>
     </g>
    </g>
    <g id="ytick_2">
     <g id="line2d_10">
      <g>
       <use style="stroke:#000000;stroke-width:0.8;" x="54" xlink:href="#mf08980f272" y="196.092095"/>
      </g>
     </g>
     <g id="text_11">
      <!-- 200000 -->
      <g transform="translate(8.825 199.891314)scale(0.1 -0.1)">
       <use xlink:href="#DejaVuSans-32"/>
       <use x="63.623047" xlink:href="#DejaVuSans-30"/>
       <use x="127.246094" xlink:href="#DejaVuSans-30"/>
       <use x="190.869141" xlink:href="#DejaVuSans-30"/>
       <use x="254.492188" xlink:href="#DejaVuSans-30"/>
       <use x="318.115234" xlink:href="#DejaVuSans-30"/>
      </g>
     </g>
    </g>
    <g id="ytick_3">
     <g id="line2d_11">
      <g>
       <use style="stroke:#000000;stroke-width:0.8;" x="54" xlink:href="#mf08980f272" y="150.067827"/>
      </g>
     </g>
     <g id="text_12">
      <!-- 400000 -->
      <g transform="translate(8.825 153.867046)scale(0.1 -0.1)">
       <use xlink:href="#DejaVuSans-34"/>
       <use x="63.623047" xlink:href="#DejaVuSans-30"/>
       <use x="127.246094" xlink:href="#DejaVuSans-30"/>
       <use x="190.869141" xlink:href="#DejaVuSans-30"/>
       <use x="254.492188" xlink:href="#DejaVuSans-30"/>
       <use x="318.115234" xlink:href="#DejaVuSans-30"/>
      </g>
     </g>
    </g>
    <g id="ytick_4">
     <g id="line2d_12">
      <g>
       <use style="stroke:#000000;stroke-width:0.8;" x="54" xlink:href="#mf08980f272" y="104.043559"/>
      </g>
     </g>
     <g id="text_13">
      <!-- 600000 -->
      <g transform="translate(8.825 107.842777)scale(0.1 -0.1)">
       <use xlink:href="#DejaVuSans-36"/>
       <use x="63.623047" xlink:href="#DejaVuSans-30"/>
       <use x="127.246094" xlink:href="#DejaVuSans-30"/>
       <use x="190.869141" xlink:href="#DejaVuSans-30"/>
       <use x="254.492188" xlink:href="#DejaVuSans-30"/>
       <use x="318.115234" xlink:href="#DejaVuSans-30"/>
      </g>
     </g>
    </g>
    <g id="ytick_5">
     <g id="line2d_13">
      <g>
       <use style="stroke:#000000;stroke-width:0.8;" x="54" xlink:href="#mf08980f272" y="58.01929"/>
      </g>
     </g>
     <g id="text_14">
      <!-- 800000 -->
      <g transform="translate(8.825 61.818509)scale(0.1 -0.1)">
       <defs>
        <path d="M 2034 2216 
Q 1584 2216 1326 1975 
Q 1069 1734 1069 1313 
Q 1069 891 1326 650 
Q 1584 409 2034 409 
Q 2484 409 2743 651 
Q 3003 894 3003 1313 
Q 3003 1734 2745 1975 
Q 2488 2216 2034 2216 
z
M 1403 2484 
Q 997 2584 770 2862 
Q 544 3141 544 3541 
Q 544 4100 942 4425 
Q 1341 4750 2034 4750 
Q 2731 4750 3128 4425 
Q 3525 4100 3525 3541 
Q 3525 3141 3298 2862 
Q 3072 2584 2669 2484 
Q 3125 2378 3379 2068 
Q 3634 1759 3634 1313 
Q 3634 634 3220 271 
Q 2806 -91 2034 -91 
Q 1263 -91 848 271 
Q 434 634 434 1313 
Q 434 1759 690 2068 
Q 947 2378 1403 2484 
z
M 1172 3481 
Q 1172 3119 1398 2916 
Q 1625 2713 2034 2713 
Q 2441 2713 2670 2916 
Q 2900 3119 2900 3481 
Q 2900 3844 2670 4047 
Q 2441 4250 2034 4250 
Q 1625 4250 1398 4047 
Q 1172 3844 1172 3481 
z
" id="DejaVuSans-38" transform="scale(0.015625)"/>
       </defs>
       <use xlink:href="#DejaVuSans-38"/>
       <use x="63.623047" xlink:href="#DejaVuSans-30"/>
       <use x="127.246094" xlink:href="#DejaVuSans-30"/>
       <use x="190.869141" xlink:href="#DejaVuSans-30"/>
       <use x="254.492188" xlink:href="#DejaVuSans-30"/>
       <use x="318.115234" xlink:href="#DejaVuSans-30"/>
      </g>
     </g>
    </g>
    <g id="text_15">
     <!-- tiempo (ms) -->
     <g transform="translate(2.745312 173.775312)rotate(-90)scale(0.1 -0.1)">
      <defs>
       <path d="M 1172 4494 
L 1172 3500 
L 2356 3500 
L 2356 3053 
L 1172 3053 
L 1172 1153 
Q 1172 725 1289 603 
Q 1406 481 1766 481 
L 2356 481 
L 2356 0 
L 1766 0 
Q 1100 0 847 248 
Q 594 497 594 1153 
L 594 3053 
L 172 3053 
L 172 3500 
L 594 3500 
L 594 4494 
L 1172 4494 
z
" id="DejaVuSans-74" transform="scale(0.015625)"/>
       <path d="M 603 3500 
L 1178 3500 
L 1178 0 
L 603 0 
L 603 3500 
z
M 603 4863 
L 1178 4863 
L 1178 4134 
L 603 4134 
L 603 4863 
z
" id="DejaVuSans-69" transform="scale(0.015625)"/>
       <path d="M 3597 1894 
L 3597 1613 
L 953 1613 
Q 991 1019 1311 708 
Q 1631 397 2203 397 
Q 2534 397 2845 478 
Q 3156 559 3463 722 
L 3463 178 
Q 3153 47 2828 -22 
Q 2503 -91 2169 -91 
Q 1331 -91 842 396 
Q 353 884 353 1716 
Q 353 2575 817 3079 
Q 1281 3584 2069 3584 
Q 2775 3584 3186 3129 
Q 3597 2675 3597 1894 
z
M 3022 2063 
Q 3016 2534 2758 2815 
Q 2500 3097 2075 3097 
Q 1594 3097 1305 2825 
Q 1016 2553 972 2059 
L 3022 2063 
z
" id="DejaVuSans-65" transform="scale(0.015625)"/>
       <path d="M 3328 2828 
Q 3544 3216 3844 3400 
Q 4144 3584 4550 3584 
Q 5097 3584 5394 3201 
Q 5691 2819 5691 2113 
L 5691 0 
L 5113 0 
L 5113 2094 
Q 5113 2597 4934 2840 
Q 4756 3084 4391 3084 
Q 3944 3084 3684 2787 
Q 3425 2491 3425 1978 
L 3425 0 
L 2847 0 
L 2847 2094 
Q 2847 2600 2669 2842 
Q 2491 3084 2119 3084 
Q 1678 3084 1418 2786 
Q 1159 2488 1159 1978 
L 1159 0 
L 581 0 
L 581 3500 
L 1159 3500 
L 1159 2956 
Q 1356 3278 1631 3431 
Q 1906 3584 2284 3584 
Q 2666 3584 2933 3390 
Q 3200 3197 3328 2828 
z
" id="DejaVuSans-6d" transform="scale(0.015625)"/>
       <path d="M 1159 525 
L 1159 -1331 
L 581 -1331 
L 581 3500 
L 1159 3500 
L 1159 2969 
Q 1341 3281 1617 3432 
Q 1894 3584 2278 3584 
Q 2916 3584 3314 3078 
Q 3713 2572 3713 1747 
Q 3713 922 3314 415 
Q 2916 -91 2278 -91 
Q 1894 -91 1617 61 
Q 1341 213 1159 525 
z
M 3116 1747 
Q 3116 2381 2855 2742 
Q 2594 3103 2138 3103 
Q 1681 3103 1420 2742 
Q 1159 2381 1159 1747 
Q 1159 1113 1420 752 
Q 1681 391 2138 391 
Q 2594 391 2855 752 
Q 3116 1113 3116 1747 
z
" id="DejaVuSans-70" transform="scale(0.015625)"/>
       <path d="M 1959 3097 
Q 1497 3097 1228 2736 
Q 959 2375 959 1747 
Q 959 1119 1226 758 
Q 1494 397 1959 397 
Q 2419 397 2687 759 
Q 2956 1122 2956 1747 
Q 2956 2369 2687 2733 
Q 2419 3097 1959 3097 
z
M 1959 3584 
Q 2709 3584 3137 3096 
Q 3566 2609 3566 1747 
Q 3566 888 3137 398 
Q 2709 -91 1959 -91 
Q 1206 -91 779 398 
Q 353 888 353 1747 
Q 353 2609 779 3096 
Q 1206 3584 1959 3584 
z
" id="DejaVuSans-6f" transform="scale(0.015625)"/>
       <path id="DejaVuSans-20" transform="scale(0.015625)"/>
       <path d="M 1984 4856 
Q 1566 4138 1362 3434 
Q 1159 2731 1159 2009 
Q 1159 1288 1364 580 
Q 1569 -128 1984 -844 
L 1484 -844 
Q 1016 -109 783 600 
Q 550 1309 550 2009 
Q 550 2706 781 3412 
Q 1013 4119 1484 4856 
L 1984 4856 
z
" id="DejaVuSans-28" transform="scale(0.015625)"/>
       <path d="M 2834 3397 
L 2834 2853 
Q 2591 2978 2328 3040 
Q 2066 3103 1784 3103 
Q 1356 3103 1142 2972 
Q 928 2841 928 2578 
Q 928 2378 1081 2264 
Q 1234 2150 1697 2047 
L 1894 2003 
Q 2506 1872 2764 1633 
Q 3022 1394 3022 966 
Q 3022 478 2636 193 
Q 2250 -91 1575 -91 
Q 1294 -91 989 -36 
Q 684 19 347 128 
L 347 722 
Q 666 556 975 473 
Q 1284 391 1588 391 
Q 1994 391 2212 530 
Q 2431 669 2431 922 
Q 2431 1156 2273 1281 
Q 2116 1406 1581 1522 
L 1381 1569 
Q 847 1681 609 1914 
Q 372 2147 372 2553 
Q 372 3047 722 3315 
Q 1072 3584 1716 3584 
Q 2034 3584 2315 3537 
Q 2597 3491 2834 3397 
z
" id="DejaVuSans-73" transform="scale(0.015625)"/>
       <path d="M 513 4856 
L 1013 4856 
Q 1481 4119 1714 3412 
Q 1947 2706 1947 2009 
Q 1947 1309 1714 600 
Q 1481 -109 1013 -844 
L 513 -844 
Q 928 -128 1133 580 
Q 1338 1288 1338 2009 
Q 1338 2731 1133 3434 
Q 928 4138 513 4856 
z
" id="DejaVuSans-29" transform="scale(0.015625)"/>
      </defs>
      <use xlink:href="#DejaVuSans-74"/>
      <use x="39.208984" xlink:href="#DejaVuSans-69"/>
      <use x="66.992188" xlink:href="#DejaVuSans-65"/>
      <use x="128.515625" xlink:href="#DejaVuSans-6d"/>
      <use x="225.927734" xlink:href="#DejaVuSans-70"/>
      <use x="289.404297" xlink:href="#DejaVuSans-6f"/>
      <use x="350.585938" xlink:href="#DejaVuSans-20"/>
      <use x="382.373047" xlink:href="#DejaVuSans-28"/>
      <use x="421.386719" xlink:href="#DejaVuSans-6d"/>
      <use x="518.798828" xlink:href="#DejaVuSans-73"/>
      <use x="570.898438" xlink:href="#DejaVuSans-29"/>
     </g>
    </g>
   </g>
   <g id="line2d_14">
    <path clip-path="url(#p11bbe042a9)" d="M 69.218182 242.116364 
L 73.694118 242.116364 
L 78.170053 242.116364 
L 82.645989 242.116364 
L 87.121925 242.116364 
L 91.597861 242.116364 
L 96.073797 242.116364 
L 100.549733 242.116364 
L 105.025668 242.116363 
L 109.501604 242.116363 
L 113.97754 242.116363 
L 118.453476 242.116363 
L 122.929412 242.116363 
L 127.405348 242.116363 
L 131.881283 242.116362 
L 136.357219 242.116362 
L 140.833155 242.116361 
L 145.309091 242.116359 
L 149.785027 242.116358 
L 154.260963 242.116355 
L 158.736898 242.116352 
L 163.212834 242.116347 
L 167.68877 242.11634 
L 172.164706 242.11633 
L 176.640642 242.116317 
L 181.116578 242.116297 
L 185.592513 242.116269 
L 190.068449 242.11623 
L 194.544385 242.116175 
L 199.020321 242.116097 
L 203.496257 242.115987 
L 207.972193 242.11583 
L 212.448128 242.11561 
L 216.924064 242.115297 
L 221.4 242.114856 
L 225.875936 242.114231 
L 230.351872 242.113347 
L 234.827807 242.112098 
L 239.303743 242.110331 
L 243.779679 242.107832 
L 248.255615 242.104299 
L 252.731551 242.099301 
L 257.207487 242.092234 
L 261.683422 242.082239 
L 266.159358 242.068104 
L 270.635294 242.048114 
L 275.11123 242.019844 
L 279.587166 241.979864 
L 284.063102 241.923324 
L 288.539037 241.843364 
L 293.014973 241.730284 
L 297.490909 241.570365 
L 301.966845 241.344205 
L 306.442781 241.024366 
L 310.918717 240.572045 
L 315.394652 239.932368 
L 319.870588 239.027727 
L 324.346524 237.748372 
L 328.82246 235.939091 
L 333.298396 233.380381 
L 337.774332 229.761818 
L 342.250267 224.644398 
L 346.726203 217.407273 
L 351.202139 207.172432 
L 355.678075 192.698182 
L 360.154011 172.228501 
L 364.629947 143.28 
L 369.105882 102.340638 
L 373.581818 44.443636 
" style="fill:none;stroke:#ffa500;stroke-linecap:square;stroke-width:1.5;"/>
   </g>
   <g id="patch_3">
    <path d="M 54 252 
L 54 34.56 
" style="fill:none;stroke:#000000;stroke-linecap:square;stroke-linejoin:miter;stroke-width:0.8;"/>
   </g>
   <g id="patch_4">
    <path d="M 388.8 252 
L 388.8 34.56 
" style="fill:none;stroke:#000000;stroke-linecap:square;stroke-linejoin:miter;stroke-width:0.8;"/>
   </g>
   <g id="patch_5">
    <path d="M 54 252 
L 388.8 252 
" style="fill:none;stroke:#000000;stroke-linecap:square;stroke-linejoin:miter;stroke-width:0.8;"/>
   </g>
   <g id="patch_6">
    <path d="M 54 34.56 
L 388.8 34.56 
" style="fill:none;stroke:#000000;stroke-linecap:square;stroke-linejoin:miter;stroke-width:0.8;"/>
   </g>
   <g id="legend_1">
    <g id="patch_7">
     <path d="M 61 71.91625 
L 129.754687 71.91625 
Q 131.754687 71.91625 131.754687 69.91625 
L 131.754687 41.56 
Q 131.754687 39.56 129.754687 39.56 
L 61 39.56 
Q 59 39.56 59 41.56 
L 59 69.91625 
Q 59 71.91625 61 71.91625 
z
" style="fill:#ffffff;opacity:0.8;stroke:#cccccc;stroke-linejoin:miter;"/>
    </g>
    <g id="line2d_15">
     <path d="M 63 47.658437 
L 83 47.658437 
" style="fill:none;stroke:#ffa500;stroke-linecap:square;stroke-width:1.5;"/>
    </g>
    <g id="line2d_16"/>
    <g id="text_16">
     <!-- O(2^n) -->
     <g transform="translate(91 51.158437)scale(0.1 -0.1)">
      <defs>
       <path d="M 2522 4238 
Q 1834 4238 1429 3725 
Q 1025 3213 1025 2328 
Q 1025 1447 1429 934 
Q 1834 422 2522 422 
Q 3209 422 3611 934 
Q 4013 1447 4013 2328 
Q 4013 3213 3611 3725 
Q 3209 4238 2522 4238 
z
M 2522 4750 
Q 3503 4750 4090 4092 
Q 4678 3434 4678 2328 
Q 4678 1225 4090 567 
Q 3503 -91 2522 -91 
Q 1538 -91 948 565 
Q 359 1222 359 2328 
Q 359 3434 948 4092 
Q 1538 4750 2522 4750 
z
" id="DejaVuSans-4f" transform="scale(0.015625)"/>
       <path d="M 2988 4666 
L 4684 2925 
L 4056 2925 
L 2681 4159 
L 1306 2925 
L 678 2925 
L 2375 4666 
L 2988 4666 
z
" id="DejaVuSans-5e" transform="scale(0.015625)"/>
      </defs>
      <use xlink:href="#DejaVuSans-4f"/>
      <use x="78.710938" xlink:href="#DejaVuSans-28"/>
      <use x="117.724609" xlink:href="#DejaVuSans-32"/>
      <use x="181.347656" xlink:href="#DejaVuSans-5e"/>
      <use x="265.136719" xlink:href="#DejaVuSans-6e"/>
      <use x="328.515625" xlink:href="#DejaVuSans-29"/>
     </g>
    </g>
    <g id="PathCollection_2">
     <g>
      <use style="fill:#0000ff;stroke:#ffffff;stroke-width:0.48;" x="73" xlink:href="#m50809fa0b9" y="63.211562"/>
     </g>
    </g>
    <g id="text_17">
     <!-- BT -->
     <g transform="translate(91 65.836562)scale(0.1 -0.1)">
      <defs>
       <path d="M 1259 2228 
L 1259 519 
L 2272 519 
Q 2781 519 3026 730 
Q 3272 941 3272 1375 
Q 3272 1813 3026 2020 
Q 2781 2228 2272 2228 
L 1259 2228 
z
M 1259 4147 
L 1259 2741 
L 2194 2741 
Q 2656 2741 2882 2914 
Q 3109 3088 3109 3444 
Q 3109 3797 2882 3972 
Q 2656 4147 2194 4147 
L 1259 4147 
z
M 628 4666 
L 2241 4666 
Q 2963 4666 3353 4366 
Q 3744 4066 3744 3513 
Q 3744 3084 3544 2831 
Q 3344 2578 2956 2516 
Q 3422 2416 3680 2098 
Q 3938 1781 3938 1306 
Q 3938 681 3513 340 
Q 3088 0 2303 0 
L 628 0 
L 628 4666 
z
" id="DejaVuSans-42" transform="scale(0.015625)"/>
       <path d="M -19 4666 
L 3928 4666 
L 3928 4134 
L 2272 4134 
L 2272 0 
L 1638 0 
L 1638 4134 
L -19 4134 
L -19 4666 
z
" id="DejaVuSans-54" transform="scale(0.015625)"/>
      </defs>
      <use xlink:href="#DejaVuSans-42"/>
      <use x="68.603516" xlink:href="#DejaVuSans-54"/>
     </g>
    </g>
   </g>
  </g>
 </g>
 <defs>
  <clipPath id="p11bbe042a9">
   <rect height="217.44" width="334.8" x="54" y="34.56"/>
  </clipPath>
 </defs>
</svg>
