<?xml version="1.0" encoding="utf-8" standalone="no"?>
<!DOCTYPE svg PUBLIC "-//W3C//DTD SVG 1.1//EN"
  "http://www.w3.org/Graphics/SVG/1.1/DTD/svg11.dtd">
<svg height="288pt" version="1.1" viewBox="0 0 432 288" width="432pt" xmlns="http://www.w3.org/2000/svg" xmlns:xlink="http://www.w3.org/1999/xlink">
 <metadata>
  <rdf:RDF xmlns:cc="http://creativecommons.org/ns#" xmlns:dc="http://purl.org/dc/elements/1.1/" xmlns:rdf="http://www.w3.org/1999/02/22-rdf-syntax-ns#">
   <cc:Work>
    <dc:type rdf:resource="http://purl.org/dc/dcmitype/StillImage"/>
    <dc:date>2021-04-19T16:09:26.107807</dc:date>
    <dc:format>image/svg+xml</dc:format>
    <dc:creator>
     <cc:Agent>
      <dc:title>Matplotlib v3.4.1, https://matplotlib.org/</dc:title>
     </cc:Agent>
    </dc:creator>
   </cc:Work>
  </rdf:RDF>
 </metadata>
 <defs>
  <style type="text/css">*{stroke-linecap:butt;stroke-linejoin:round;}</style>
 </defs>
 <g id="figure_1">
  <g id="patch_1">
   <path d="M 0 288 
L 432 288 
L 432 0 
L 0 0 
z
" style="fill:none;"/>
  </g>
  <g id="axes_1">
   <g id="patch_2">
    <path d="M 54 252 
L 388.8 252 
L 388.8 34.56 
L 54 34.56 
z
" style="fill:#ffffff;"/>
   </g>
   <g id="PathCollection_1">
    <defs>
     <path d="M 0 3 
C 0.795609 3 1.55874 2.683901 2.12132 2.12132 
C 2.683901 1.55874 3 0.795609 3 0 
C 3 -0.795609 2.683901 -1.55874 2.12132 -2.12132 
C 1.55874 -2.683901 0.795609 -3 0 -3 
C -0.795609 -3 -1.55874 -2.683901 -2.12132 -2.12132 
C -2.683901 -1.55874 -3 -0.795609 -3 0 
C -3 0.795609 -2.683901 1.55874 -2.12132 2.12132 
C -1.55874 2.683901 -0.795609 3 0 3 
z
" id="ma952c05548" style="stroke:#ffffff;stroke-width:0.48;"/>
    </defs>
    <g clip-path="url(#paefe2e13f0)">
     <use style="fill:#1f77b4;stroke:#ffffff;stroke-width:0.48;" x="69.218182" xlink:href="#ma952c05548" y="242.116364"/>
     <use style="fill:#1f77b4;stroke:#ffffff;stroke-width:0.48;" x="70.704383" xlink:href="#ma952c05548" y="240.32747"/>
     <use style="fill:#1f77b4;stroke:#ffffff;stroke-width:0.48;" x="72.163134" xlink:href="#ma952c05548" y="238.538577"/>
     <use style="fill:#1f77b4;stroke:#ffffff;stroke-width:0.48;" x="73.800412" xlink:href="#ma952c05548" y="236.749683"/>
     <use style="fill:#1f77b4;stroke:#ffffff;stroke-width:0.48;" x="75.257838" xlink:href="#ma952c05548" y="234.96079"/>
     <use style="fill:#1f77b4;stroke:#ffffff;stroke-width:0.48;" x="78.072967" xlink:href="#ma952c05548" y="233.171896"/>
     <use style="fill:#1f77b4;stroke:#ffffff;stroke-width:0.48;" x="77.736848" xlink:href="#ma952c05548" y="231.383003"/>
     <use style="fill:#1f77b4;stroke:#ffffff;stroke-width:0.48;" x="77.915939" xlink:href="#ma952c05548" y="229.594109"/>
     <use style="fill:#1f77b4;stroke:#ffffff;stroke-width:0.48;" x="77.878329" xlink:href="#ma952c05548" y="227.805216"/>
     <use style="fill:#1f77b4;stroke:#ffffff;stroke-width:0.48;" x="78.062819" xlink:href="#ma952c05548" y="226.016323"/>
     <use style="fill:#1f77b4;stroke:#ffffff;stroke-width:0.48;" x="77.945278" xlink:href="#ma952c05548" y="224.227429"/>
     <use style="fill:#1f77b4;stroke:#ffffff;stroke-width:0.48;" x="78.130026" xlink:href="#ma952c05548" y="222.438536"/>
     <use style="fill:#1f77b4;stroke:#ffffff;stroke-width:0.48;" x="78.30984" xlink:href="#ma952c05548" y="220.649642"/>
     <use style="fill:#1f77b4;stroke:#ffffff;stroke-width:0.48;" x="78.016043" xlink:href="#ma952c05548" y="218.860749"/>
     <use style="fill:#1f77b4;stroke:#ffffff;stroke-width:0.48;" x="70.200058" xlink:href="#ma952c05548" y="240.32747"/>
     <use style="fill:#1f77b4;stroke:#ffffff;stroke-width:0.48;" x="72.491068" xlink:href="#ma952c05548" y="237.64413"/>
     <use style="fill:#1f77b4;stroke:#ffffff;stroke-width:0.48;" x="74.848096" xlink:href="#ma952c05548" y="234.96079"/>
     <use style="fill:#1f77b4;stroke:#ffffff;stroke-width:0.48;" x="78.748873" xlink:href="#ma952c05548" y="232.27745"/>
     <use style="fill:#1f77b4;stroke:#ffffff;stroke-width:0.48;" x="81.484009" xlink:href="#ma952c05548" y="229.594109"/>
     <use style="fill:#1f77b4;stroke:#ffffff;stroke-width:0.48;" x="84.366762" xlink:href="#ma952c05548" y="226.910769"/>
     <use style="fill:#1f77b4;stroke:#ffffff;stroke-width:0.48;" x="87.318353" xlink:href="#ma952c05548" y="224.227429"/>
     <use style="fill:#1f77b4;stroke:#ffffff;stroke-width:0.48;" x="90.451673" xlink:href="#ma952c05548" y="221.544089"/>
     <use style="fill:#1f77b4;stroke:#ffffff;stroke-width:0.48;" x="93.55542" xlink:href="#ma952c05548" y="218.860749"/>
     <use style="fill:#1f77b4;stroke:#ffffff;stroke-width:0.48;" x="96.272273" xlink:href="#ma952c05548" y="216.177408"/>
     <use style="fill:#1f77b4;stroke:#ffffff;stroke-width:0.48;" x="97.925748" xlink:href="#ma952c05548" y="213.494068"/>
     <use style="fill:#1f77b4;stroke:#ffffff;stroke-width:0.48;" x="97.781199" xlink:href="#ma952c05548" y="210.810728"/>
     <use style="fill:#1f77b4;stroke:#ffffff;stroke-width:0.48;" x="98.139503" xlink:href="#ma952c05548" y="208.127388"/>
     <use style="fill:#1f77b4;stroke:#ffffff;stroke-width:0.48;" x="98.101587" xlink:href="#ma952c05548" y="205.444048"/>
     <use style="fill:#1f77b4;stroke:#ffffff;stroke-width:0.48;" x="70.861681" xlink:href="#ma952c05548" y="238.538577"/>
     <use style="fill:#1f77b4;stroke:#ffffff;stroke-width:0.48;" x="73.839936" xlink:href="#ma952c05548" y="234.96079"/>
     <use style="fill:#1f77b4;stroke:#ffffff;stroke-width:0.48;" x="77.926038" xlink:href="#ma952c05548" y="231.383003"/>
     <use style="fill:#1f77b4;stroke:#ffffff;stroke-width:0.48;" x="83.717643" xlink:href="#ma952c05548" y="227.805216"/>
     <use style="fill:#1f77b4;stroke:#ffffff;stroke-width:0.48;" x="88.353508" xlink:href="#ma952c05548" y="224.227429"/>
     <use style="fill:#1f77b4;stroke:#ffffff;stroke-width:0.48;" x="93.720829" xlink:href="#ma952c05548" y="220.649642"/>
     <use style="fill:#1f77b4;stroke:#ffffff;stroke-width:0.48;" x="98.626527" xlink:href="#ma952c05548" y="217.071855"/>
     <use style="fill:#1f77b4;stroke:#ffffff;stroke-width:0.48;" x="104.223923" xlink:href="#ma952c05548" y="213.494068"/>
     <use style="fill:#1f77b4;stroke:#ffffff;stroke-width:0.48;" x="109.058819" xlink:href="#ma952c05548" y="209.916281"/>
     <use style="fill:#1f77b4;stroke:#ffffff;stroke-width:0.48;" x="114.79647" xlink:href="#ma952c05548" y="206.338494"/>
     <use style="fill:#1f77b4;stroke:#ffffff;stroke-width:0.48;" x="119.748551" xlink:href="#ma952c05548" y="202.760708"/>
     <use style="fill:#1f77b4;stroke:#ffffff;stroke-width:0.48;" x="124.037279" xlink:href="#ma952c05548" y="199.182921"/>
     <use style="fill:#1f77b4;stroke:#ffffff;stroke-width:0.48;" x="128.006969" xlink:href="#ma952c05548" y="195.605134"/>
     <use style="fill:#1f77b4;stroke:#ffffff;stroke-width:0.48;" x="132.366989" xlink:href="#ma952c05548" y="192.027347"/>
     <use style="fill:#1f77b4;stroke:#ffffff;stroke-width:0.48;" x="72.922776" xlink:href="#ma952c05548" y="236.749683"/>
     <use style="fill:#1f77b4;stroke:#ffffff;stroke-width:0.48;" x="75.240169" xlink:href="#ma952c05548" y="232.27745"/>
     <use style="fill:#1f77b4;stroke:#ffffff;stroke-width:0.48;" x="82.002569" xlink:href="#ma952c05548" y="227.805216"/>
     <use style="fill:#1f77b4;stroke:#ffffff;stroke-width:0.48;" x="87.76881" xlink:href="#ma952c05548" y="223.332982"/>
     <use style="fill:#1f77b4;stroke:#ffffff;stroke-width:0.48;" x="94.505908" xlink:href="#ma952c05548" y="218.860749"/>
     <use style="fill:#1f77b4;stroke:#ffffff;stroke-width:0.48;" x="101.850773" xlink:href="#ma952c05548" y="214.388515"/>
     <use style="fill:#1f77b4;stroke:#ffffff;stroke-width:0.48;" x="108.817946" xlink:href="#ma952c05548" y="209.916281"/>
     <use style="fill:#1f77b4;stroke:#ffffff;stroke-width:0.48;" x="115.503016" xlink:href="#ma952c05548" y="205.444048"/>
     <use style="fill:#1f77b4;stroke:#ffffff;stroke-width:0.48;" x="123.667686" xlink:href="#ma952c05548" y="200.971814"/>
     <use style="fill:#1f77b4;stroke:#ffffff;stroke-width:0.48;" x="132.663326" xlink:href="#ma952c05548" y="196.49958"/>
     <use style="fill:#1f77b4;stroke:#ffffff;stroke-width:0.48;" x="138.482331" xlink:href="#ma952c05548" y="192.027347"/>
     <use style="fill:#1f77b4;stroke:#ffffff;stroke-width:0.48;" x="144.819159" xlink:href="#ma952c05548" y="187.555113"/>
     <use style="fill:#1f77b4;stroke:#ffffff;stroke-width:0.48;" x="151.103223" xlink:href="#ma952c05548" y="183.082879"/>
     <use style="fill:#1f77b4;stroke:#ffffff;stroke-width:0.48;" x="159.510484" xlink:href="#ma952c05548" y="178.610646"/>
     <use style="fill:#1f77b4;stroke:#ffffff;stroke-width:0.48;" x="72.477031" xlink:href="#ma952c05548" y="234.96079"/>
     <use style="fill:#1f77b4;stroke:#ffffff;stroke-width:0.48;" x="76.165342" xlink:href="#ma952c05548" y="229.594109"/>
     <use style="fill:#1f77b4;stroke:#ffffff;stroke-width:0.48;" x="81.11638" xlink:href="#ma952c05548" y="224.227429"/>
     <use style="fill:#1f77b4;stroke:#ffffff;stroke-width:0.48;" x="91.927591" xlink:href="#ma952c05548" y="218.860749"/>
     <use style="fill:#1f77b4;stroke:#ffffff;stroke-width:0.48;" x="99.244724" xlink:href="#ma952c05548" y="213.494068"/>
     <use style="fill:#1f77b4;stroke:#ffffff;stroke-width:0.48;" x="108.222081" xlink:href="#ma952c05548" y="208.127388"/>
     <use style="fill:#1f77b4;stroke:#ffffff;stroke-width:0.48;" x="117.961816" xlink:href="#ma952c05548" y="202.760708"/>
     <use style="fill:#1f77b4;stroke:#ffffff;stroke-width:0.48;" x="127.190354" xlink:href="#ma952c05548" y="197.394027"/>
     <use style="fill:#1f77b4;stroke:#ffffff;stroke-width:0.48;" x="138.49951" xlink:href="#ma952c05548" y="192.027347"/>
     <use style="fill:#1f77b4;stroke:#ffffff;stroke-width:0.48;" x="149.934072" xlink:href="#ma952c05548" y="186.660666"/>
     <use style="fill:#1f77b4;stroke:#ffffff;stroke-width:0.48;" x="157.645217" xlink:href="#ma952c05548" y="181.293986"/>
     <use style="fill:#1f77b4;stroke:#ffffff;stroke-width:0.48;" x="168.623923" xlink:href="#ma952c05548" y="175.927306"/>
     <use style="fill:#1f77b4;stroke:#ffffff;stroke-width:0.48;" x="179.322244" xlink:href="#ma952c05548" y="170.560625"/>
     <use style="fill:#1f77b4;stroke:#ffffff;stroke-width:0.48;" x="188.904915" xlink:href="#ma952c05548" y="165.193945"/>
     <use style="fill:#1f77b4;stroke:#ffffff;stroke-width:0.48;" x="73.520137" xlink:href="#ma952c05548" y="233.171896"/>
     <use style="fill:#1f77b4;stroke:#ffffff;stroke-width:0.48;" x="78.566101" xlink:href="#ma952c05548" y="226.910769"/>
     <use style="fill:#1f77b4;stroke:#ffffff;stroke-width:0.48;" x="85.683529" xlink:href="#ma952c05548" y="220.649642"/>
     <use style="fill:#1f77b4;stroke:#ffffff;stroke-width:0.48;" x="97.485967" xlink:href="#ma952c05548" y="214.388515"/>
     <use style="fill:#1f77b4;stroke:#ffffff;stroke-width:0.48;" x="106.323929" xlink:href="#ma952c05548" y="208.127388"/>
     <use style="fill:#1f77b4;stroke:#ffffff;stroke-width:0.48;" x="115.439208" xlink:href="#ma952c05548" y="201.866261"/>
     <use style="fill:#1f77b4;stroke:#ffffff;stroke-width:0.48;" x="126.070409" xlink:href="#ma952c05548" y="195.605134"/>
     <use style="fill:#1f77b4;stroke:#ffffff;stroke-width:0.48;" x="137.141881" xlink:href="#ma952c05548" y="189.344007"/>
     <use style="fill:#1f77b4;stroke:#ffffff;stroke-width:0.48;" x="149.797131" xlink:href="#ma952c05548" y="183.082879"/>
     <use style="fill:#1f77b4;stroke:#ffffff;stroke-width:0.48;" x="162.813508" xlink:href="#ma952c05548" y="176.821752"/>
     <use style="fill:#1f77b4;stroke:#ffffff;stroke-width:0.48;" x="173.160396" xlink:href="#ma952c05548" y="170.560625"/>
     <use style="fill:#1f77b4;stroke:#ffffff;stroke-width:0.48;" x="186.6141" xlink:href="#ma952c05548" y="164.299498"/>
     <use style="fill:#1f77b4;stroke:#ffffff;stroke-width:0.48;" x="198.72085" xlink:href="#ma952c05548" y="158.038371"/>
     <use style="fill:#1f77b4;stroke:#ffffff;stroke-width:0.48;" x="213.343828" xlink:href="#ma952c05548" y="151.777244"/>
     <use style="fill:#1f77b4;stroke:#ffffff;stroke-width:0.48;" x="74.79046" xlink:href="#ma952c05548" y="231.383003"/>
     <use style="fill:#1f77b4;stroke:#ffffff;stroke-width:0.48;" x="80.036191" xlink:href="#ma952c05548" y="224.227429"/>
     <use style="fill:#1f77b4;stroke:#ffffff;stroke-width:0.48;" x="86.981277" xlink:href="#ma952c05548" y="217.071855"/>
     <use style="fill:#1f77b4;stroke:#ffffff;stroke-width:0.48;" x="102.064773" xlink:href="#ma952c05548" y="209.916281"/>
     <use style="fill:#1f77b4;stroke:#ffffff;stroke-width:0.48;" x="111.414669" xlink:href="#ma952c05548" y="202.760708"/>
     <use style="fill:#1f77b4;stroke:#ffffff;stroke-width:0.48;" x="121.621303" xlink:href="#ma952c05548" y="195.605134"/>
     <use style="fill:#1f77b4;stroke:#ffffff;stroke-width:0.48;" x="134.798057" xlink:href="#ma952c05548" y="188.44956"/>
     <use style="fill:#1f77b4;stroke:#ffffff;stroke-width:0.48;" x="147.329742" xlink:href="#ma952c05548" y="181.293986"/>
     <use style="fill:#1f77b4;stroke:#ffffff;stroke-width:0.48;" x="161.527294" xlink:href="#ma952c05548" y="174.138412"/>
     <use style="fill:#1f77b4;stroke:#ffffff;stroke-width:0.48;" x="178.63889" xlink:href="#ma952c05548" y="166.982838"/>
     <use style="fill:#1f77b4;stroke:#ffffff;stroke-width:0.48;" x="190.646739" xlink:href="#ma952c05548" y="159.827265"/>
     <use style="fill:#1f77b4;stroke:#ffffff;stroke-width:0.48;" x="204.789932" xlink:href="#ma952c05548" y="152.671691"/>
     <use style="fill:#1f77b4;stroke:#ffffff;stroke-width:0.48;" x="220.744279" xlink:href="#ma952c05548" y="145.516117"/>
     <use style="fill:#1f77b4;stroke:#ffffff;stroke-width:0.48;" x="236.528063" xlink:href="#ma952c05548" y="138.360543"/>
     <use style="fill:#1f77b4;stroke:#ffffff;stroke-width:0.48;" x="75.525916" xlink:href="#ma952c05548" y="229.594109"/>
     <use style="fill:#1f77b4;stroke:#ffffff;stroke-width:0.48;" x="81.769303" xlink:href="#ma952c05548" y="221.544089"/>
     <use style="fill:#1f77b4;stroke:#ffffff;stroke-width:0.48;" x="88.976368" xlink:href="#ma952c05548" y="213.494068"/>
     <use style="fill:#1f77b4;stroke:#ffffff;stroke-width:0.48;" x="106.664318" xlink:href="#ma952c05548" y="205.444048"/>
     <use style="fill:#1f77b4;stroke:#ffffff;stroke-width:0.48;" x="116.715237" xlink:href="#ma952c05548" y="197.394027"/>
     <use style="fill:#1f77b4;stroke:#ffffff;stroke-width:0.48;" x="128.193851" xlink:href="#ma952c05548" y="189.344007"/>
     <use style="fill:#1f77b4;stroke:#ffffff;stroke-width:0.48;" x="142.226854" xlink:href="#ma952c05548" y="181.293986"/>
     <use style="fill:#1f77b4;stroke:#ffffff;stroke-width:0.48;" x="157.620185" xlink:href="#ma952c05548" y="173.243965"/>
     <use style="fill:#1f77b4;stroke:#ffffff;stroke-width:0.48;" x="171.683006" xlink:href="#ma952c05548" y="165.193945"/>
     <use style="fill:#1f77b4;stroke:#ffffff;stroke-width:0.48;" x="189.982894" xlink:href="#ma952c05548" y="157.143924"/>
     <use style="fill:#1f77b4;stroke:#ffffff;stroke-width:0.48;" x="202.487951" xlink:href="#ma952c05548" y="149.093904"/>
     <use style="fill:#1f77b4;stroke:#ffffff;stroke-width:0.48;" x="219.675502" xlink:href="#ma952c05548" y="141.043883"/>
     <use style="fill:#1f77b4;stroke:#ffffff;stroke-width:0.48;" x="235.848267" xlink:href="#ma952c05548" y="132.993863"/>
     <use style="fill:#1f77b4;stroke:#ffffff;stroke-width:0.48;" x="255.432283" xlink:href="#ma952c05548" y="124.943842"/>
     <use style="fill:#1f77b4;stroke:#ffffff;stroke-width:0.48;" x="76.09146" xlink:href="#ma952c05548" y="227.805216"/>
     <use style="fill:#1f77b4;stroke:#ffffff;stroke-width:0.48;" x="83.092328" xlink:href="#ma952c05548" y="218.860749"/>
     <use style="fill:#1f77b4;stroke:#ffffff;stroke-width:0.48;" x="92.102816" xlink:href="#ma952c05548" y="209.916281"/>
     <use style="fill:#1f77b4;stroke:#ffffff;stroke-width:0.48;" x="113.079923" xlink:href="#ma952c05548" y="200.971814"/>
     <use style="fill:#1f77b4;stroke:#ffffff;stroke-width:0.48;" x="124.179619" xlink:href="#ma952c05548" y="192.027347"/>
     <use style="fill:#1f77b4;stroke:#ffffff;stroke-width:0.48;" x="136.051753" xlink:href="#ma952c05548" y="183.082879"/>
     <use style="fill:#1f77b4;stroke:#ffffff;stroke-width:0.48;" x="151.714672" xlink:href="#ma952c05548" y="174.138412"/>
     <use style="fill:#1f77b4;stroke:#ffffff;stroke-width:0.48;" x="166.351638" xlink:href="#ma952c05548" y="165.193945"/>
     <use style="fill:#1f77b4;stroke:#ffffff;stroke-width:0.48;" x="182.74822" xlink:href="#ma952c05548" y="156.249478"/>
     <use style="fill:#1f77b4;stroke:#ffffff;stroke-width:0.48;" x="203.74447" xlink:href="#ma952c05548" y="147.30501"/>
     <use style="fill:#1f77b4;stroke:#ffffff;stroke-width:0.48;" x="217.347753" xlink:href="#ma952c05548" y="138.360543"/>
     <use style="fill:#1f77b4;stroke:#ffffff;stroke-width:0.48;" x="237.011528" xlink:href="#ma952c05548" y="129.416076"/>
     <use style="fill:#1f77b4;stroke:#ffffff;stroke-width:0.48;" x="256.741566" xlink:href="#ma952c05548" y="120.471608"/>
     <use style="fill:#1f77b4;stroke:#ffffff;stroke-width:0.48;" x="275.718183" xlink:href="#ma952c05548" y="111.527141"/>
     <use style="fill:#1f77b4;stroke:#ffffff;stroke-width:0.48;" x="77.382594" xlink:href="#ma952c05548" y="226.016323"/>
     <use style="fill:#1f77b4;stroke:#ffffff;stroke-width:0.48;" x="85.106316" xlink:href="#ma952c05548" y="216.177408"/>
     <use style="fill:#1f77b4;stroke:#ffffff;stroke-width:0.48;" x="93.668065" xlink:href="#ma952c05548" y="206.338494"/>
     <use style="fill:#1f77b4;stroke:#ffffff;stroke-width:0.48;" x="116.310673" xlink:href="#ma952c05548" y="196.49958"/>
     <use style="fill:#1f77b4;stroke:#ffffff;stroke-width:0.48;" x="129.950891" xlink:href="#ma952c05548" y="186.660666"/>
     <use style="fill:#1f77b4;stroke:#ffffff;stroke-width:0.48;" x="143.468157" xlink:href="#ma952c05548" y="176.821752"/>
     <use style="fill:#1f77b4;stroke:#ffffff;stroke-width:0.48;" x="161.526067" xlink:href="#ma952c05548" y="166.982838"/>
     <use style="fill:#1f77b4;stroke:#ffffff;stroke-width:0.48;" x="177.882402" xlink:href="#ma952c05548" y="157.143924"/>
     <use style="fill:#1f77b4;stroke:#ffffff;stroke-width:0.48;" x="193.718091" xlink:href="#ma952c05548" y="147.30501"/>
     <use style="fill:#1f77b4;stroke:#ffffff;stroke-width:0.48;" x="216.332967" xlink:href="#ma952c05548" y="137.466096"/>
     <use style="fill:#1f77b4;stroke:#ffffff;stroke-width:0.48;" x="231.142459" xlink:href="#ma952c05548" y="127.627182"/>
     <use style="fill:#1f77b4;stroke:#ffffff;stroke-width:0.48;" x="251.355961" xlink:href="#ma952c05548" y="117.788268"/>
     <use style="fill:#1f77b4;stroke:#ffffff;stroke-width:0.48;" x="272.087287" xlink:href="#ma952c05548" y="107.949354"/>
     <use style="fill:#1f77b4;stroke:#ffffff;stroke-width:0.48;" x="295.926777" xlink:href="#ma952c05548" y="98.11044"/>
     <use style="fill:#1f77b4;stroke:#ffffff;stroke-width:0.48;" x="78.446241" xlink:href="#ma952c05548" y="224.227429"/>
     <use style="fill:#1f77b4;stroke:#ffffff;stroke-width:0.48;" x="87.044839" xlink:href="#ma952c05548" y="213.494068"/>
     <use style="fill:#1f77b4;stroke:#ffffff;stroke-width:0.48;" x="96.061831" xlink:href="#ma952c05548" y="202.760708"/>
     <use style="fill:#1f77b4;stroke:#ffffff;stroke-width:0.48;" x="124.254347" xlink:href="#ma952c05548" y="192.027347"/>
     <use style="fill:#1f77b4;stroke:#ffffff;stroke-width:0.48;" x="138.493743" xlink:href="#ma952c05548" y="181.293986"/>
     <use style="fill:#1f77b4;stroke:#ffffff;stroke-width:0.48;" x="154.732156" xlink:href="#ma952c05548" y="170.560625"/>
     <use style="fill:#1f77b4;stroke:#ffffff;stroke-width:0.48;" x="170.956826" xlink:href="#ma952c05548" y="159.827265"/>
     <use style="fill:#1f77b4;stroke:#ffffff;stroke-width:0.48;" x="191.29095" xlink:href="#ma952c05548" y="149.093904"/>
     <use style="fill:#1f77b4;stroke:#ffffff;stroke-width:0.48;" x="208.8638" xlink:href="#ma952c05548" y="138.360543"/>
     <use style="fill:#1f77b4;stroke:#ffffff;stroke-width:0.48;" x="238.374802" xlink:href="#ma952c05548" y="127.627182"/>
     <use style="fill:#1f77b4;stroke:#ffffff;stroke-width:0.48;" x="251.662729" xlink:href="#ma952c05548" y="116.893821"/>
     <use style="fill:#1f77b4;stroke:#ffffff;stroke-width:0.48;" x="273.788004" xlink:href="#ma952c05548" y="106.160461"/>
     <use style="fill:#1f77b4;stroke:#ffffff;stroke-width:0.48;" x="293.76959" xlink:href="#ma952c05548" y="95.4271"/>
     <use style="fill:#1f77b4;stroke:#ffffff;stroke-width:0.48;" x="319.583434" xlink:href="#ma952c05548" y="84.693739"/>
     <use style="fill:#1f77b4;stroke:#ffffff;stroke-width:0.48;" x="79.93189" xlink:href="#ma952c05548" y="222.438536"/>
     <use style="fill:#1f77b4;stroke:#ffffff;stroke-width:0.48;" x="88.327617" xlink:href="#ma952c05548" y="210.810728"/>
     <use style="fill:#1f77b4;stroke:#ffffff;stroke-width:0.48;" x="98.757332" xlink:href="#ma952c05548" y="199.182921"/>
     <use style="fill:#1f77b4;stroke:#ffffff;stroke-width:0.48;" x="128.008196" xlink:href="#ma952c05548" y="187.555113"/>
     <use style="fill:#1f77b4;stroke:#ffffff;stroke-width:0.48;" x="145.092796" xlink:href="#ma952c05548" y="175.927306"/>
     <use style="fill:#1f77b4;stroke:#ffffff;stroke-width:0.48;" x="160.645646" xlink:href="#ma952c05548" y="164.299498"/>
     <use style="fill:#1f77b4;stroke:#ffffff;stroke-width:0.48;" x="179.892831" xlink:href="#ma952c05548" y="152.671691"/>
     <use style="fill:#1f77b4;stroke:#ffffff;stroke-width:0.48;" x="199.67551" xlink:href="#ma952c05548" y="141.043883"/>
     <use style="fill:#1f77b4;stroke:#ffffff;stroke-width:0.48;" x="218.285233" xlink:href="#ma952c05548" y="129.416076"/>
     <use style="fill:#1f77b4;stroke:#ffffff;stroke-width:0.48;" x="249.333752" xlink:href="#ma952c05548" y="117.788268"/>
     <use style="fill:#1f77b4;stroke:#ffffff;stroke-width:0.48;" x="260.041153" xlink:href="#ma952c05548" y="106.160461"/>
     <use style="fill:#1f77b4;stroke:#ffffff;stroke-width:0.48;" x="286.177716" xlink:href="#ma952c05548" y="94.532653"/>
     <use style="fill:#1f77b4;stroke:#ffffff;stroke-width:0.48;" x="308.380297" xlink:href="#ma952c05548" y="82.904846"/>
     <use style="fill:#1f77b4;stroke:#ffffff;stroke-width:0.48;" x="332.962164" xlink:href="#ma952c05548" y="71.277038"/>
     <use style="fill:#1f77b4;stroke:#ffffff;stroke-width:0.48;" x="81.367438" xlink:href="#ma952c05548" y="220.649642"/>
     <use style="fill:#1f77b4;stroke:#ffffff;stroke-width:0.48;" x="91.072692" xlink:href="#ma952c05548" y="208.127388"/>
     <use style="fill:#1f77b4;stroke:#ffffff;stroke-width:0.48;" x="102.068945" xlink:href="#ma952c05548" y="195.605134"/>
     <use style="fill:#1f77b4;stroke:#ffffff;stroke-width:0.48;" x="134.859779" xlink:href="#ma952c05548" y="183.082879"/>
     <use style="fill:#1f77b4;stroke:#ffffff;stroke-width:0.48;" x="154.125125" xlink:href="#ma952c05548" y="170.560625"/>
     <use style="fill:#1f77b4;stroke:#ffffff;stroke-width:0.48;" x="170.63558" xlink:href="#ma952c05548" y="158.038371"/>
     <use style="fill:#1f77b4;stroke:#ffffff;stroke-width:0.48;" x="192.440713" xlink:href="#ma952c05548" y="145.516117"/>
     <use style="fill:#1f77b4;stroke:#ffffff;stroke-width:0.48;" x="209.435614" xlink:href="#ma952c05548" y="132.993863"/>
     <use style="fill:#1f77b4;stroke:#ffffff;stroke-width:0.48;" x="230.397628" xlink:href="#ma952c05548" y="120.471608"/>
     <use style="fill:#1f77b4;stroke:#ffffff;stroke-width:0.48;" x="261.208096" xlink:href="#ma952c05548" y="107.949354"/>
     <use style="fill:#1f77b4;stroke:#ffffff;stroke-width:0.48;" x="274.896047" xlink:href="#ma952c05548" y="95.4271"/>
     <use style="fill:#1f77b4;stroke:#ffffff;stroke-width:0.48;" x="300.338089" xlink:href="#ma952c05548" y="82.904846"/>
     <use style="fill:#1f77b4;stroke:#ffffff;stroke-width:0.48;" x="322.270714" xlink:href="#ma952c05548" y="70.382592"/>
     <use style="fill:#1f77b4;stroke:#ffffff;stroke-width:0.48;" x="355.053081" xlink:href="#ma952c05548" y="57.860337"/>
     <use style="fill:#1f77b4;stroke:#ffffff;stroke-width:0.48;" x="82.719177" xlink:href="#ma952c05548" y="218.860749"/>
     <use style="fill:#1f77b4;stroke:#ffffff;stroke-width:0.48;" x="93.653831" xlink:href="#ma952c05548" y="205.444048"/>
     <use style="fill:#1f77b4;stroke:#ffffff;stroke-width:0.48;" x="104.886172" xlink:href="#ma952c05548" y="192.027347"/>
     <use style="fill:#1f77b4;stroke:#ffffff;stroke-width:0.48;" x="142.841983" xlink:href="#ma952c05548" y="178.610646"/>
     <use style="fill:#1f77b4;stroke:#ffffff;stroke-width:0.48;" x="158.597177" xlink:href="#ma952c05548" y="165.193945"/>
     <use style="fill:#1f77b4;stroke:#ffffff;stroke-width:0.48;" x="175.974678" xlink:href="#ma952c05548" y="151.777244"/>
     <use style="fill:#1f77b4;stroke:#ffffff;stroke-width:0.48;" x="198.741711" xlink:href="#ma952c05548" y="138.360543"/>
     <use style="fill:#1f77b4;stroke:#ffffff;stroke-width:0.48;" x="220.268176" xlink:href="#ma952c05548" y="124.943842"/>
     <use style="fill:#1f77b4;stroke:#ffffff;stroke-width:0.48;" x="240.021528" xlink:href="#ma952c05548" y="111.527141"/>
     <use style="fill:#1f77b4;stroke:#ffffff;stroke-width:0.48;" x="277.240975" xlink:href="#ma952c05548" y="98.11044"/>
     <use style="fill:#1f77b4;stroke:#ffffff;stroke-width:0.48;" x="287.769224" xlink:href="#ma952c05548" y="84.693739"/>
     <use style="fill:#1f77b4;stroke:#ffffff;stroke-width:0.48;" x="317.779643" xlink:href="#ma952c05548" y="71.277038"/>
     <use style="fill:#1f77b4;stroke:#ffffff;stroke-width:0.48;" x="338.085175" xlink:href="#ma952c05548" y="57.860337"/>
     <use style="fill:#1f77b4;stroke:#ffffff;stroke-width:0.48;" x="373.581818" xlink:href="#ma952c05548" y="44.443636"/>
    </g>
   </g>
   <g id="matplotlib.axis_1">
    <g id="xtick_1">
     <g id="line2d_1">
      <defs>
       <path d="M 0 0 
L 0 3.5 
" id="m64dee9b8ae" style="stroke:#000000;stroke-width:0.8;"/>
      </defs>
      <g>
       <use style="stroke:#000000;stroke-width:0.8;" x="66.473524" xlink:href="#m64dee9b8ae" y="252"/>
      </g>
     </g>
     <g id="text_1">
      <!-- 0 -->
      <g transform="translate(63.292274 266.598437)scale(0.1 -0.1)">
       <defs>
        <path d="M 2034 4250 
Q 1547 4250 1301 3770 
Q 1056 3291 1056 2328 
Q 1056 1369 1301 889 
Q 1547 409 2034 409 
Q 2525 409 2770 889 
Q 3016 1369 3016 2328 
Q 3016 3291 2770 3770 
Q 2525 4250 2034 4250 
z
M 2034 4750 
Q 2819 4750 3233 4129 
Q 3647 3509 3647 2328 
Q 3647 1150 3233 529 
Q 2819 -91 2034 -91 
Q 1250 -91 836 529 
Q 422 1150 422 2328 
Q 422 3509 836 4129 
Q 1250 4750 2034 4750 
z
" id="DejaVuSans-30" transform="scale(0.015625)"/>
       </defs>
       <use xlink:href="#DejaVuSans-30"/>
      </g>
     </g>
    </g>
    <g id="xtick_2">
     <g id="line2d_2">
      <g>
       <use style="stroke:#000000;stroke-width:0.8;" x="127.826958" xlink:href="#m64dee9b8ae" y="252"/>
      </g>
     </g>
     <g id="text_2">
      <!-- 500 -->
      <g transform="translate(118.283208 266.598437)scale(0.1 -0.1)">
       <defs>
        <path d="M 691 4666 
L 3169 4666 
L 3169 4134 
L 1269 4134 
L 1269 2991 
Q 1406 3038 1543 3061 
Q 1681 3084 1819 3084 
Q 2600 3084 3056 2656 
Q 3513 2228 3513 1497 
Q 3513 744 3044 326 
Q 2575 -91 1722 -91 
Q 1428 -91 1123 -41 
Q 819 9 494 109 
L 494 744 
Q 775 591 1075 516 
Q 1375 441 1709 441 
Q 2250 441 2565 725 
Q 2881 1009 2881 1497 
Q 2881 1984 2565 2268 
Q 2250 2553 1709 2553 
Q 1456 2553 1204 2497 
Q 953 2441 691 2322 
L 691 4666 
z
" id="DejaVuSans-35" transform="scale(0.015625)"/>
       </defs>
       <use xlink:href="#DejaVuSans-35"/>
       <use x="63.623047" xlink:href="#DejaVuSans-30"/>
       <use x="127.246094" xlink:href="#DejaVuSans-30"/>
      </g>
     </g>
    </g>
    <g id="xtick_3">
     <g id="line2d_3">
      <g>
       <use style="stroke:#000000;stroke-width:0.8;" x="189.180391" xlink:href="#m64dee9b8ae" y="252"/>
      </g>
     </g>
     <g id="text_3">
      <!-- 1000 -->
      <g transform="translate(176.455391 266.598437)scale(0.1 -0.1)">
       <defs>
        <path d="M 794 531 
L 1825 531 
L 1825 4091 
L 703 3866 
L 703 4441 
L 1819 4666 
L 2450 4666 
L 2450 531 
L 3481 531 
L 3481 0 
L 794 0 
L 794 531 
z
" id="DejaVuSans-31" transform="scale(0.015625)"/>
       </defs>
       <use xlink:href="#DejaVuSans-31"/>
       <use x="63.623047" xlink:href="#DejaVuSans-30"/>
       <use x="127.246094" xlink:href="#DejaVuSans-30"/>
       <use x="190.869141" xlink:href="#DejaVuSans-30"/>
      </g>
     </g>
    </g>
    <g id="xtick_4">
     <g id="line2d_4">
      <g>
       <use style="stroke:#000000;stroke-width:0.8;" x="250.533825" xlink:href="#m64dee9b8ae" y="252"/>
      </g>
     </g>
     <g id="text_4">
      <!-- 1500 -->
      <g transform="translate(237.808825 266.598437)scale(0.1 -0.1)">
       <use xlink:href="#DejaVuSans-31"/>
       <use x="63.623047" xlink:href="#DejaVuSans-35"/>
       <use x="127.246094" xlink:href="#DejaVuSans-30"/>
       <use x="190.869141" xlink:href="#DejaVuSans-30"/>
      </g>
     </g>
    </g>
    <g id="xtick_5">
     <g id="line2d_5">
      <g>
       <use style="stroke:#000000;stroke-width:0.8;" x="311.887259" xlink:href="#m64dee9b8ae" y="252"/>
      </g>
     </g>
     <g id="text_5">
      <!-- 2000 -->
      <g transform="translate(299.162259 266.598437)scale(0.1 -0.1)">
       <defs>
        <path d="M 1228 531 
L 3431 531 
L 3431 0 
L 469 0 
L 469 531 
Q 828 903 1448 1529 
Q 2069 2156 2228 2338 
Q 2531 2678 2651 2914 
Q 2772 3150 2772 3378 
Q 2772 3750 2511 3984 
Q 2250 4219 1831 4219 
Q 1534 4219 1204 4116 
Q 875 4013 500 3803 
L 500 4441 
Q 881 4594 1212 4672 
Q 1544 4750 1819 4750 
Q 2544 4750 2975 4387 
Q 3406 4025 3406 3419 
Q 3406 3131 3298 2873 
Q 3191 2616 2906 2266 
Q 2828 2175 2409 1742 
Q 1991 1309 1228 531 
z
" id="DejaVuSans-32" transform="scale(0.015625)"/>
       </defs>
       <use xlink:href="#DejaVuSans-32"/>
       <use x="63.623047" xlink:href="#DejaVuSans-30"/>
       <use x="127.246094" xlink:href="#DejaVuSans-30"/>
       <use x="190.869141" xlink:href="#DejaVuSans-30"/>
      </g>
     </g>
    </g>
    <g id="xtick_6">
     <g id="line2d_6">
      <g>
       <use style="stroke:#000000;stroke-width:0.8;" x="373.240693" xlink:href="#m64dee9b8ae" y="252"/>
      </g>
     </g>
     <g id="text_6">
      <!-- 2500 -->
      <g transform="translate(360.515693 266.598437)scale(0.1 -0.1)">
       <use xlink:href="#DejaVuSans-32"/>
       <use x="63.623047" xlink:href="#DejaVuSans-35"/>
       <use x="127.246094" xlink:href="#DejaVuSans-30"/>
       <use x="190.869141" xlink:href="#DejaVuSans-30"/>
      </g>
     </g>
    </g>
    <g id="text_7">
     <!-- tiempo -->
     <g transform="translate(203.870313 280.276563)scale(0.1 -0.1)">
      <defs>
       <path d="M 1172 4494 
L 1172 3500 
L 2356 3500 
L 2356 3053 
L 1172 3053 
L 1172 1153 
Q 1172 725 1289 603 
Q 1406 481 1766 481 
L 2356 481 
L 2356 0 
L 1766 0 
Q 1100 0 847 248 
Q 594 497 594 1153 
L 594 3053 
L 172 3053 
L 172 3500 
L 594 3500 
L 594 4494 
L 1172 4494 
z
" id="DejaVuSans-74" transform="scale(0.015625)"/>
       <path d="M 603 3500 
L 1178 3500 
L 1178 0 
L 603 0 
L 603 3500 
z
M 603 4863 
L 1178 4863 
L 1178 4134 
L 603 4134 
L 603 4863 
z
" id="DejaVuSans-69" transform="scale(0.015625)"/>
       <path d="M 3597 1894 
L 3597 1613 
L 953 1613 
Q 991 1019 1311 708 
Q 1631 397 2203 397 
Q 2534 397 2845 478 
Q 3156 559 3463 722 
L 3463 178 
Q 3153 47 2828 -22 
Q 2503 -91 2169 -91 
Q 1331 -91 842 396 
Q 353 884 353 1716 
Q 353 2575 817 3079 
Q 1281 3584 2069 3584 
Q 2775 3584 3186 3129 
Q 3597 2675 3597 1894 
z
M 3022 2063 
Q 3016 2534 2758 2815 
Q 2500 3097 2075 3097 
Q 1594 3097 1305 2825 
Q 1016 2553 972 2059 
L 3022 2063 
z
" id="DejaVuSans-65" transform="scale(0.015625)"/>
       <path d="M 3328 2828 
Q 3544 3216 3844 3400 
Q 4144 3584 4550 3584 
Q 5097 3584 5394 3201 
Q 5691 2819 5691 2113 
L 5691 0 
L 5113 0 
L 5113 2094 
Q 5113 2597 4934 2840 
Q 4756 3084 4391 3084 
Q 3944 3084 3684 2787 
Q 3425 2491 3425 1978 
L 3425 0 
L 2847 0 
L 2847 2094 
Q 2847 2600 2669 2842 
Q 2491 3084 2119 3084 
Q 1678 3084 1418 2786 
Q 1159 2488 1159 1978 
L 1159 0 
L 581 0 
L 581 3500 
L 1159 3500 
L 1159 2956 
Q 1356 3278 1631 3431 
Q 1906 3584 2284 3584 
Q 2666 3584 2933 3390 
Q 3200 3197 3328 2828 
z
" id="DejaVuSans-6d" transform="scale(0.015625)"/>
       <path d="M 1159 525 
L 1159 -1331 
L 581 -1331 
L 581 3500 
L 1159 3500 
L 1159 2969 
Q 1341 3281 1617 3432 
Q 1894 3584 2278 3584 
Q 2916 3584 3314 3078 
Q 3713 2572 3713 1747 
Q 3713 922 3314 415 
Q 2916 -91 2278 -91 
Q 1894 -91 1617 61 
Q 1341 213 1159 525 
z
M 3116 1747 
Q 3116 2381 2855 2742 
Q 2594 3103 2138 3103 
Q 1681 3103 1420 2742 
Q 1159 2381 1159 1747 
Q 1159 1113 1420 752 
Q 1681 391 2138 391 
Q 2594 391 2855 752 
Q 3116 1113 3116 1747 
z
" id="DejaVuSans-70" transform="scale(0.015625)"/>
       <path d="M 1959 3097 
Q 1497 3097 1228 2736 
Q 959 2375 959 1747 
Q 959 1119 1226 758 
Q 1494 397 1959 397 
Q 2419 397 2687 759 
Q 2956 1122 2956 1747 
Q 2956 2369 2687 2733 
Q 2419 3097 1959 3097 
z
M 1959 3584 
Q 2709 3584 3137 3096 
Q 3566 2609 3566 1747 
Q 3566 888 3137 398 
Q 2709 -91 1959 -91 
Q 1206 -91 779 398 
Q 353 888 353 1747 
Q 353 2609 779 3096 
Q 1206 3584 1959 3584 
z
" id="DejaVuSans-6f" transform="scale(0.015625)"/>
      </defs>
      <use xlink:href="#DejaVuSans-74"/>
      <use x="39.208984" xlink:href="#DejaVuSans-69"/>
      <use x="66.992188" xlink:href="#DejaVuSans-65"/>
      <use x="128.515625" xlink:href="#DejaVuSans-6d"/>
      <use x="225.927734" xlink:href="#DejaVuSans-70"/>
      <use x="289.404297" xlink:href="#DejaVuSans-6f"/>
     </g>
    </g>
   </g>
   <g id="matplotlib.axis_2">
    <g id="ytick_1">
     <g id="line2d_7">
      <defs>
       <path d="M 0 0 
L -3.5 0 
" id="mb9a54d2852" style="stroke:#000000;stroke-width:0.8;"/>
      </defs>
      <g>
       <use style="stroke:#000000;stroke-width:0.8;" x="54" xlink:href="#mb9a54d2852" y="245.694151"/>
      </g>
     </g>
     <g id="text_8">
      <!-- 0 -->
      <g transform="translate(40.6375 249.493369)scale(0.1 -0.1)">
       <use xlink:href="#DejaVuSans-30"/>
      </g>
     </g>
    </g>
    <g id="ytick_2">
     <g id="line2d_8">
      <g>
       <use style="stroke:#000000;stroke-width:0.8;" x="54" xlink:href="#mb9a54d2852" y="209.916281"/>
      </g>
     </g>
     <g id="text_9">
      <!-- 1 -->
      <g transform="translate(40.6375 213.7155)scale(0.1 -0.1)">
       <use xlink:href="#DejaVuSans-31"/>
      </g>
     </g>
    </g>
    <g id="ytick_3">
     <g id="line2d_9">
      <g>
       <use style="stroke:#000000;stroke-width:0.8;" x="54" xlink:href="#mb9a54d2852" y="174.138412"/>
      </g>
     </g>
     <g id="text_10">
      <!-- 2 -->
      <g transform="translate(40.6375 177.937631)scale(0.1 -0.1)">
       <use xlink:href="#DejaVuSans-32"/>
      </g>
     </g>
    </g>
    <g id="ytick_4">
     <g id="line2d_10">
      <g>
       <use style="stroke:#000000;stroke-width:0.8;" x="54" xlink:href="#mb9a54d2852" y="138.360543"/>
      </g>
     </g>
     <g id="text_11">
      <!-- 3 -->
      <g transform="translate(40.6375 142.159762)scale(0.1 -0.1)">
       <defs>
        <path d="M 2597 2516 
Q 3050 2419 3304 2112 
Q 3559 1806 3559 1356 
Q 3559 666 3084 287 
Q 2609 -91 1734 -91 
Q 1441 -91 1130 -33 
Q 819 25 488 141 
L 488 750 
Q 750 597 1062 519 
Q 1375 441 1716 441 
Q 2309 441 2620 675 
Q 2931 909 2931 1356 
Q 2931 1769 2642 2001 
Q 2353 2234 1838 2234 
L 1294 2234 
L 1294 2753 
L 1863 2753 
Q 2328 2753 2575 2939 
Q 2822 3125 2822 3475 
Q 2822 3834 2567 4026 
Q 2313 4219 1838 4219 
Q 1578 4219 1281 4162 
Q 984 4106 628 3988 
L 628 4550 
Q 988 4650 1302 4700 
Q 1616 4750 1894 4750 
Q 2613 4750 3031 4423 
Q 3450 4097 3450 3541 
Q 3450 3153 3228 2886 
Q 3006 2619 2597 2516 
z
" id="DejaVuSans-33" transform="scale(0.015625)"/>
       </defs>
       <use xlink:href="#DejaVuSans-33"/>
      </g>
     </g>
    </g>
    <g id="ytick_5">
     <g id="line2d_11">
      <g>
       <use style="stroke:#000000;stroke-width:0.8;" x="54" xlink:href="#mb9a54d2852" y="102.582674"/>
      </g>
     </g>
     <g id="text_12">
      <!-- 4 -->
      <g transform="translate(40.6375 106.381893)scale(0.1 -0.1)">
       <defs>
        <path d="M 2419 4116 
L 825 1625 
L 2419 1625 
L 2419 4116 
z
M 2253 4666 
L 3047 4666 
L 3047 1625 
L 3713 1625 
L 3713 1100 
L 3047 1100 
L 3047 0 
L 2419 0 
L 2419 1100 
L 313 1100 
L 313 1709 
L 2253 4666 
z
" id="DejaVuSans-34" transform="scale(0.015625)"/>
       </defs>
       <use xlink:href="#DejaVuSans-34"/>
      </g>
     </g>
    </g>
    <g id="ytick_6">
     <g id="line2d_12">
      <g>
       <use style="stroke:#000000;stroke-width:0.8;" x="54" xlink:href="#mb9a54d2852" y="66.804805"/>
      </g>
     </g>
     <g id="text_13">
      <!-- 5 -->
      <g transform="translate(40.6375 70.604023)scale(0.1 -0.1)">
       <use xlink:href="#DejaVuSans-35"/>
      </g>
     </g>
    </g>
    <g id="text_14">
     <!-- complejidad -->
     <g transform="translate(34.557812 173.789375)rotate(-90)scale(0.1 -0.1)">
      <defs>
       <path d="M 3122 3366 
L 3122 2828 
Q 2878 2963 2633 3030 
Q 2388 3097 2138 3097 
Q 1578 3097 1268 2742 
Q 959 2388 959 1747 
Q 959 1106 1268 751 
Q 1578 397 2138 397 
Q 2388 397 2633 464 
Q 2878 531 3122 666 
L 3122 134 
Q 2881 22 2623 -34 
Q 2366 -91 2075 -91 
Q 1284 -91 818 406 
Q 353 903 353 1747 
Q 353 2603 823 3093 
Q 1294 3584 2113 3584 
Q 2378 3584 2631 3529 
Q 2884 3475 3122 3366 
z
" id="DejaVuSans-63" transform="scale(0.015625)"/>
       <path d="M 603 4863 
L 1178 4863 
L 1178 0 
L 603 0 
L 603 4863 
z
" id="DejaVuSans-6c" transform="scale(0.015625)"/>
       <path d="M 603 3500 
L 1178 3500 
L 1178 -63 
Q 1178 -731 923 -1031 
Q 669 -1331 103 -1331 
L -116 -1331 
L -116 -844 
L 38 -844 
Q 366 -844 484 -692 
Q 603 -541 603 -63 
L 603 3500 
z
M 603 4863 
L 1178 4863 
L 1178 4134 
L 603 4134 
L 603 4863 
z
" id="DejaVuSans-6a" transform="scale(0.015625)"/>
       <path d="M 2906 2969 
L 2906 4863 
L 3481 4863 
L 3481 0 
L 2906 0 
L 2906 525 
Q 2725 213 2448 61 
Q 2172 -91 1784 -91 
Q 1150 -91 751 415 
Q 353 922 353 1747 
Q 353 2572 751 3078 
Q 1150 3584 1784 3584 
Q 2172 3584 2448 3432 
Q 2725 3281 2906 2969 
z
M 947 1747 
Q 947 1113 1208 752 
Q 1469 391 1925 391 
Q 2381 391 2643 752 
Q 2906 1113 2906 1747 
Q 2906 2381 2643 2742 
Q 2381 3103 1925 3103 
Q 1469 3103 1208 2742 
Q 947 2381 947 1747 
z
" id="DejaVuSans-64" transform="scale(0.015625)"/>
       <path d="M 2194 1759 
Q 1497 1759 1228 1600 
Q 959 1441 959 1056 
Q 959 750 1161 570 
Q 1363 391 1709 391 
Q 2188 391 2477 730 
Q 2766 1069 2766 1631 
L 2766 1759 
L 2194 1759 
z
M 3341 1997 
L 3341 0 
L 2766 0 
L 2766 531 
Q 2569 213 2275 61 
Q 1981 -91 1556 -91 
Q 1019 -91 701 211 
Q 384 513 384 1019 
Q 384 1609 779 1909 
Q 1175 2209 1959 2209 
L 2766 2209 
L 2766 2266 
Q 2766 2663 2505 2880 
Q 2244 3097 1772 3097 
Q 1472 3097 1187 3025 
Q 903 2953 641 2809 
L 641 3341 
Q 956 3463 1253 3523 
Q 1550 3584 1831 3584 
Q 2591 3584 2966 3190 
Q 3341 2797 3341 1997 
z
" id="DejaVuSans-61" transform="scale(0.015625)"/>
      </defs>
      <use xlink:href="#DejaVuSans-63"/>
      <use x="54.980469" xlink:href="#DejaVuSans-6f"/>
      <use x="116.162109" xlink:href="#DejaVuSans-6d"/>
      <use x="213.574219" xlink:href="#DejaVuSans-70"/>
      <use x="277.050781" xlink:href="#DejaVuSans-6c"/>
      <use x="304.833984" xlink:href="#DejaVuSans-65"/>
      <use x="366.357422" xlink:href="#DejaVuSans-6a"/>
      <use x="394.140625" xlink:href="#DejaVuSans-69"/>
      <use x="421.923828" xlink:href="#DejaVuSans-64"/>
      <use x="485.400391" xlink:href="#DejaVuSans-61"/>
      <use x="546.679688" xlink:href="#DejaVuSans-64"/>
     </g>
    </g>
    <g id="text_15">
     <!-- 1e7 -->
     <g transform="translate(54 31.56)scale(0.1 -0.1)">
      <defs>
       <path d="M 525 4666 
L 3525 4666 
L 3525 4397 
L 1831 0 
L 1172 0 
L 2766 4134 
L 525 4134 
L 525 4666 
z
" id="DejaVuSans-37" transform="scale(0.015625)"/>
      </defs>
      <use xlink:href="#DejaVuSans-31"/>
      <use x="63.623047" xlink:href="#DejaVuSans-65"/>
      <use x="125.146484" xlink:href="#DejaVuSans-37"/>
     </g>
    </g>
   </g>
   <g id="patch_3">
    <path d="M 54 252 
L 54 34.56 
" style="fill:none;stroke:#000000;stroke-linecap:square;stroke-linejoin:miter;stroke-width:0.8;"/>
   </g>
   <g id="patch_4">
    <path d="M 388.8 252 
L 388.8 34.56 
" style="fill:none;stroke:#000000;stroke-linecap:square;stroke-linejoin:miter;stroke-width:0.8;"/>
   </g>
   <g id="patch_5">
    <path d="M 54 252 
L 388.8 252 
" style="fill:none;stroke:#000000;stroke-linecap:square;stroke-linejoin:miter;stroke-width:0.8;"/>
   </g>
   <g id="patch_6">
    <path d="M 54 34.56 
L 388.8 34.56 
" style="fill:none;stroke:#000000;stroke-linecap:square;stroke-linejoin:miter;stroke-width:0.8;"/>
   </g>
  </g>
 </g>
 <defs>
  <clipPath id="paefe2e13f0">
   <rect height="217.44" width="334.8" x="54" y="34.56"/>
  </clipPath>
 </defs>
</svg>
