<?xml version="1.0" encoding="utf-8" standalone="no"?>
<!DOCTYPE svg PUBLIC "-//W3C//DTD SVG 1.1//EN"
  "http://www.w3.org/Graphics/SVG/1.1/DTD/svg11.dtd">
<svg height="360pt" version="1.1" viewBox="0 0 360 360" width="360pt" xmlns="http://www.w3.org/2000/svg" xmlns:xlink="http://www.w3.org/1999/xlink">
 <metadata>
  <rdf:RDF xmlns:cc="http://creativecommons.org/ns#" xmlns:dc="http://purl.org/dc/elements/1.1/" xmlns:rdf="http://www.w3.org/1999/02/22-rdf-syntax-ns#">
   <cc:Work>
    <dc:type rdf:resource="http://purl.org/dc/dcmitype/StillImage"/>
    <dc:date>2021-04-26T13:35:54.150836</dc:date>
    <dc:format>image/svg+xml</dc:format>
    <dc:creator>
     <cc:Agent>
      <dc:title>Matplotlib v3.4.1, https://matplotlib.org/</dc:title>
     </cc:Agent>
    </dc:creator>
   </cc:Work>
  </rdf:RDF>
 </metadata>
 <defs>
  <style type="text/css">*{stroke-linecap:butt;stroke-linejoin:round;}</style>
 </defs>
 <g id="figure_1">
  <g id="patch_1">
   <path d="M 0 360 
L 360 360 
L 360 0 
L 0 0 
z
" style="fill:none;"/>
  </g>
  <g id="axes_1">
   <g id="patch_2">
    <path d="M 24.175 332.2 
L 349.2 332.2 
L 349.2 21.8 
L 24.175 21.8 
z
" style="fill:#ffffff;"/>
   </g>
   <g id="PathCollection_1">
    <defs>
     <path d="M 0 3 
C 0.795609 3 1.55874 2.683901 2.12132 2.12132 
C 2.683901 1.55874 3 0.795609 3 0 
C 3 -0.795609 2.683901 -1.55874 2.12132 -2.12132 
C 1.55874 -2.683901 0.795609 -3 0 -3 
C -0.795609 -3 -1.55874 -2.683901 -2.12132 -2.12132 
C -2.683901 -1.55874 -3 -0.795609 -3 0 
C -3 0.795609 -2.683901 1.55874 -2.12132 2.12132 
C -1.55874 2.683901 -0.795609 3 0 3 
z
" id="meca01c8352" style="stroke:#1f77b4;stroke-opacity:0.8;"/>
    </defs>
    <g clip-path="url(#pb6079bf3ec)">
     <use style="fill:#1f77b4;fill-opacity:0.8;stroke:#1f77b4;stroke-opacity:0.8;" x="24.175" xlink:href="#meca01c8352" y="318.041207"/>
     <use style="fill:#1f77b4;fill-opacity:0.8;stroke:#1f77b4;stroke-opacity:0.8;" x="24.175002" xlink:href="#meca01c8352" y="318.041207"/>
     <use style="fill:#1f77b4;fill-opacity:0.8;stroke:#1f77b4;stroke-opacity:0.8;" x="24.175007" xlink:href="#meca01c8352" y="318.041205"/>
     <use style="fill:#1f77b4;fill-opacity:0.8;stroke:#1f77b4;stroke-opacity:0.8;" x="24.175019" xlink:href="#meca01c8352" y="318.041203"/>
     <use style="fill:#1f77b4;fill-opacity:0.8;stroke:#1f77b4;stroke-opacity:0.8;" x="24.175033" xlink:href="#meca01c8352" y="318.041199"/>
     <use style="fill:#1f77b4;fill-opacity:0.8;stroke:#1f77b4;stroke-opacity:0.8;" x="24.175059" xlink:href="#meca01c8352" y="318.041191"/>
     <use style="fill:#1f77b4;fill-opacity:0.8;stroke:#1f77b4;stroke-opacity:0.8;" x="24.175127" xlink:href="#meca01c8352" y="318.041174"/>
     <use style="fill:#1f77b4;fill-opacity:0.8;stroke:#1f77b4;stroke-opacity:0.8;" x="24.175203" xlink:href="#meca01c8352" y="318.041141"/>
     <use style="fill:#1f77b4;fill-opacity:0.8;stroke:#1f77b4;stroke-opacity:0.8;" x="24.175373" xlink:href="#meca01c8352" y="318.041074"/>
     <use style="fill:#1f77b4;fill-opacity:0.8;stroke:#1f77b4;stroke-opacity:0.8;" x="24.175807" xlink:href="#meca01c8352" y="318.04094"/>
     <use style="fill:#1f77b4;fill-opacity:0.8;stroke:#1f77b4;stroke-opacity:0.8;" x="24.176466" xlink:href="#meca01c8352" y="318.040671"/>
     <use style="fill:#1f77b4;fill-opacity:0.8;stroke:#1f77b4;stroke-opacity:0.8;" x="24.178064" xlink:href="#meca01c8352" y="318.040135"/>
     <use style="fill:#1f77b4;fill-opacity:0.8;stroke:#1f77b4;stroke-opacity:0.8;" x="24.180748" xlink:href="#meca01c8352" y="318.039063"/>
     <use style="fill:#1f77b4;fill-opacity:0.8;stroke:#1f77b4;stroke-opacity:0.8;" x="24.186219" xlink:href="#meca01c8352" y="318.036919"/>
     <use style="fill:#1f77b4;fill-opacity:0.8;stroke:#1f77b4;stroke-opacity:0.8;" x="24.198452" xlink:href="#meca01c8352" y="318.03263"/>
     <use style="fill:#1f77b4;fill-opacity:0.8;stroke:#1f77b4;stroke-opacity:0.8;" x="24.218094" xlink:href="#meca01c8352" y="318.024052"/>
     <use style="fill:#1f77b4;fill-opacity:0.8;stroke:#1f77b4;stroke-opacity:0.8;" x="24.266386" xlink:href="#meca01c8352" y="318.006897"/>
     <use style="fill:#1f77b4;fill-opacity:0.8;stroke:#1f77b4;stroke-opacity:0.8;" x="24.2591" xlink:href="#meca01c8352" y="317.972586"/>
     <use style="fill:#1f77b4;fill-opacity:0.8;stroke:#1f77b4;stroke-opacity:0.8;" x="24.4505" xlink:href="#meca01c8352" y="317.903965"/>
     <use style="fill:#1f77b4;fill-opacity:0.8;stroke:#1f77b4;stroke-opacity:0.8;" x="24.589145" xlink:href="#meca01c8352" y="317.766722"/>
     <use style="fill:#1f77b4;fill-opacity:0.8;stroke:#1f77b4;stroke-opacity:0.8;" x="24.928633" xlink:href="#meca01c8352" y="317.492236"/>
     <use style="fill:#1f77b4;fill-opacity:0.8;stroke:#1f77b4;stroke-opacity:0.8;" x="25.522961" xlink:href="#meca01c8352" y="316.943264"/>
     <use style="fill:#1f77b4;fill-opacity:0.8;stroke:#1f77b4;stroke-opacity:0.8;" x="26.795745" xlink:href="#meca01c8352" y="315.84532"/>
     <use style="fill:#1f77b4;fill-opacity:0.8;stroke:#1f77b4;stroke-opacity:0.8;" x="29.419164" xlink:href="#meca01c8352" y="313.649432"/>
     <use style="fill:#1f77b4;fill-opacity:0.8;stroke:#1f77b4;stroke-opacity:0.8;" x="34.404478" xlink:href="#meca01c8352" y="309.257657"/>
     <use style="fill:#1f77b4;fill-opacity:0.8;stroke:#1f77b4;stroke-opacity:0.8;" x="44.534916" xlink:href="#meca01c8352" y="300.474107"/>
     <use style="fill:#1f77b4;fill-opacity:0.8;stroke:#1f77b4;stroke-opacity:0.8;" x="65.002835" xlink:href="#meca01c8352" y="282.907006"/>
     <use style="fill:#1f77b4;fill-opacity:0.8;stroke:#1f77b4;stroke-opacity:0.8;" x="105.098053" xlink:href="#meca01c8352" y="247.772804"/>
     <use style="fill:#1f77b4;fill-opacity:0.8;stroke:#1f77b4;stroke-opacity:0.8;" x="186.89791" xlink:href="#meca01c8352" y="177.504401"/>
     <use style="fill:#1f77b4;fill-opacity:0.8;stroke:#1f77b4;stroke-opacity:0.8;" x="349.2" xlink:href="#meca01c8352" y="36.967594"/>
    </g>
   </g>
   <g id="PolyCollection_1">
    <path clip-path="url(#pb6079bf3ec)" d="M 24.175 318.044246 
L 24.175 318.090909 
L 27.458081 315.252292 
L 30.741162 312.416346 
L 34.024242 309.583011 
L 37.307323 306.753385 
L 40.590404 303.925733 
L 43.873485 301.0977 
L 47.156566 298.269691 
L 50.439646 295.441682 
L 53.722727 292.614226 
L 57.005808 289.787073 
L 60.288889 286.959482 
L 63.57197 284.131839 
L 66.855051 281.304195 
L 70.138131 278.476524 
L 73.421212 275.648853 
L 76.704293 272.820515 
L 79.987374 269.992431 
L 83.270455 267.164161 
L 86.553535 264.336406 
L 89.836616 261.508721 
L 93.119697 258.681036 
L 96.402778 255.85335 
L 99.685859 253.025665 
L 102.968939 250.19798 
L 106.25202 247.370295 
L 109.535101 244.542609 
L 112.818182 241.714924 
L 116.101263 238.887288 
L 119.384343 236.059664 
L 122.667424 233.232041 
L 125.950505 230.404417 
L 129.233586 227.576793 
L 132.516667 224.749169 
L 135.799747 221.921546 
L 139.082828 219.093922 
L 142.365909 216.266298 
L 145.64899 213.438675 
L 148.932071 210.611051 
L 152.215152 207.783427 
L 155.498232 204.955804 
L 158.781313 202.12818 
L 162.064394 199.300556 
L 165.347475 196.472933 
L 168.630556 193.645309 
L 171.913636 190.817685 
L 175.196717 187.990062 
L 178.479798 185.162438 
L 181.762879 182.334814 
L 185.04596 179.507191 
L 188.32904 176.679567 
L 191.612121 173.851943 
L 194.895202 171.024319 
L 198.178283 168.196696 
L 201.461364 165.369072 
L 204.744444 162.541448 
L 208.027525 159.713825 
L 211.310606 156.886201 
L 214.593687 154.058577 
L 217.876768 151.230954 
L 221.159848 148.40333 
L 224.442929 145.575706 
L 227.72601 142.748083 
L 231.009091 139.920459 
L 234.292172 137.092835 
L 237.575253 134.265212 
L 240.858333 131.437588 
L 244.141414 128.609964 
L 247.424495 125.782341 
L 250.707576 122.954717 
L 253.990657 120.127093 
L 257.273737 117.29947 
L 260.556818 114.471846 
L 263.839899 111.644222 
L 267.12298 108.816598 
L 270.406061 105.988975 
L 273.689141 103.161351 
L 276.972222 100.333727 
L 280.255303 97.506104 
L 283.538384 94.67848 
L 286.821465 91.850856 
L 290.104545 89.023233 
L 293.387626 86.195609 
L 296.670707 83.367985 
L 299.953788 80.540362 
L 303.236869 77.712738 
L 306.519949 74.885114 
L 309.80303 72.057491 
L 313.086111 69.229867 
L 316.369192 66.402243 
L 319.652273 63.57462 
L 322.935354 60.746996 
L 326.218434 57.919372 
L 329.501515 55.091745 
L 332.784596 52.264091 
L 336.067677 49.436436 
L 339.350758 46.608782 
L 342.633838 43.781127 
L 345.916919 40.953473 
L 349.2 38.125819 
L 349.2 35.909091 
L 349.2 35.909091 
L 345.916919 38.759334 
L 342.633838 41.609578 
L 339.350758 44.459821 
L 336.067677 47.310065 
L 332.784596 50.160308 
L 329.501515 53.010552 
L 326.218434 55.860795 
L 322.935354 58.711039 
L 319.652273 61.561282 
L 316.369192 64.411526 
L 313.086111 67.261769 
L 309.80303 70.112013 
L 306.519949 72.962257 
L 303.236869 75.812506 
L 299.953788 78.662756 
L 296.670707 81.513005 
L 293.387626 84.363255 
L 290.104545 87.213504 
L 286.821465 90.063754 
L 283.538384 92.914003 
L 280.255303 95.764252 
L 276.972222 98.614502 
L 273.689141 101.464751 
L 270.406061 104.315001 
L 267.12298 107.16525 
L 263.839899 110.0155 
L 260.556818 112.865749 
L 257.273737 115.715986 
L 253.990657 118.566175 
L 250.707576 121.416363 
L 247.424495 124.266552 
L 244.141414 127.116741 
L 240.858333 129.96693 
L 237.575253 132.817119 
L 234.292172 135.667308 
L 231.009091 138.517478 
L 227.72601 141.367505 
L 224.442929 144.217531 
L 221.159848 147.067558 
L 217.876768 149.917584 
L 214.593687 152.767611 
L 211.310606 155.617638 
L 208.027525 158.467664 
L 204.744444 161.317691 
L 201.461364 164.167717 
L 198.178283 167.017744 
L 194.895202 169.86777 
L 191.612121 172.717797 
L 188.32904 175.567823 
L 185.04596 178.41785 
L 181.762879 181.267877 
L 178.479798 184.117903 
L 175.196717 186.96793 
L 171.913636 189.817956 
L 168.630556 192.667983 
L 165.347475 195.518009 
L 162.064394 198.367996 
L 158.781313 201.217838 
L 155.498232 204.067679 
L 152.215152 206.91752 
L 148.932071 209.767361 
L 145.64899 212.617203 
L 142.365909 215.467321 
L 139.082828 218.317674 
L 135.799747 221.168026 
L 132.516667 224.018228 
L 129.233586 226.868241 
L 125.950505 229.718254 
L 122.667424 232.568267 
L 119.384343 235.41828 
L 116.101263 238.268293 
L 112.818182 241.118306 
L 109.535101 243.968321 
L 106.25202 246.818353 
L 102.968939 249.668385 
L 99.685859 252.518418 
L 96.402778 255.36845 
L 93.119697 258.218483 
L 89.836616 261.068958 
L 86.553535 263.919544 
L 83.270455 266.77013 
L 79.987374 269.620715 
L 76.704293 272.471301 
L 73.421212 275.321892 
L 70.138131 278.172507 
L 66.855051 281.023063 
L 63.57197 283.873151 
L 60.288889 286.723459 
L 57.005808 289.574594 
L 53.722727 292.424962 
L 50.439646 295.275508 
L 47.156566 298.125856 
L 43.873485 300.975927 
L 40.590404 303.825571 
L 37.307323 306.673935 
L 34.024242 309.520446 
L 30.741162 312.363334 
L 27.458081 315.204378 
L 24.175 318.044246 
z
" style="fill:#1f77b4;fill-opacity:0.15;"/>
   </g>
   <g id="matplotlib.axis_1">
    <g id="xtick_1">
     <g id="line2d_1">
      <defs>
       <path d="M 0 0 
L 0 3.5 
" id="mb92ac454bf" style="stroke:#000000;stroke-width:0.8;"/>
      </defs>
      <g>
       <use style="stroke:#000000;stroke-width:0.8;" x="67.649382" xlink:href="#mb92ac454bf" y="332.2"/>
      </g>
     </g>
     <g id="text_1">
      <!-- 2500 -->
      <g transform="translate(54.924382 346.798438)scale(0.1 -0.1)">
       <defs>
        <path d="M 1228 531 
L 3431 531 
L 3431 0 
L 469 0 
L 469 531 
Q 828 903 1448 1529 
Q 2069 2156 2228 2338 
Q 2531 2678 2651 2914 
Q 2772 3150 2772 3378 
Q 2772 3750 2511 3984 
Q 2250 4219 1831 4219 
Q 1534 4219 1204 4116 
Q 875 4013 500 3803 
L 500 4441 
Q 881 4594 1212 4672 
Q 1544 4750 1819 4750 
Q 2544 4750 2975 4387 
Q 3406 4025 3406 3419 
Q 3406 3131 3298 2873 
Q 3191 2616 2906 2266 
Q 2828 2175 2409 1742 
Q 1991 1309 1228 531 
z
" id="DejaVuSans-32" transform="scale(0.015625)"/>
        <path d="M 691 4666 
L 3169 4666 
L 3169 4134 
L 1269 4134 
L 1269 2991 
Q 1406 3038 1543 3061 
Q 1681 3084 1819 3084 
Q 2600 3084 3056 2656 
Q 3513 2228 3513 1497 
Q 3513 744 3044 326 
Q 2575 -91 1722 -91 
Q 1428 -91 1123 -41 
Q 819 9 494 109 
L 494 744 
Q 775 591 1075 516 
Q 1375 441 1709 441 
Q 2250 441 2565 725 
Q 2881 1009 2881 1497 
Q 2881 1984 2565 2268 
Q 2250 2553 1709 2553 
Q 1456 2553 1204 2497 
Q 953 2441 691 2322 
L 691 4666 
z
" id="DejaVuSans-35" transform="scale(0.015625)"/>
        <path d="M 2034 4250 
Q 1547 4250 1301 3770 
Q 1056 3291 1056 2328 
Q 1056 1369 1301 889 
Q 1547 409 2034 409 
Q 2525 409 2770 889 
Q 3016 1369 3016 2328 
Q 3016 3291 2770 3770 
Q 2525 4250 2034 4250 
z
M 2034 4750 
Q 2819 4750 3233 4129 
Q 3647 3509 3647 2328 
Q 3647 1150 3233 529 
Q 2819 -91 2034 -91 
Q 1250 -91 836 529 
Q 422 1150 422 2328 
Q 422 3509 836 4129 
Q 1250 4750 2034 4750 
z
" id="DejaVuSans-30" transform="scale(0.015625)"/>
       </defs>
       <use xlink:href="#DejaVuSans-32"/>
       <use x="63.623047" xlink:href="#DejaVuSans-35"/>
       <use x="127.246094" xlink:href="#DejaVuSans-30"/>
       <use x="190.869141" xlink:href="#DejaVuSans-30"/>
      </g>
     </g>
    </g>
    <g id="xtick_2">
     <g id="line2d_2">
      <g>
       <use style="stroke:#000000;stroke-width:0.8;" x="111.123778" xlink:href="#mb92ac454bf" y="332.2"/>
      </g>
     </g>
     <g id="text_2">
      <!-- 5000 -->
      <g transform="translate(98.398778 346.798438)scale(0.1 -0.1)">
       <use xlink:href="#DejaVuSans-35"/>
       <use x="63.623047" xlink:href="#DejaVuSans-30"/>
       <use x="127.246094" xlink:href="#DejaVuSans-30"/>
       <use x="190.869141" xlink:href="#DejaVuSans-30"/>
      </g>
     </g>
    </g>
    <g id="xtick_3">
     <g id="line2d_3">
      <g>
       <use style="stroke:#000000;stroke-width:0.8;" x="154.598173" xlink:href="#mb92ac454bf" y="332.2"/>
      </g>
     </g>
     <g id="text_3">
      <!-- 7500 -->
      <g transform="translate(141.873173 346.798438)scale(0.1 -0.1)">
       <defs>
        <path d="M 525 4666 
L 3525 4666 
L 3525 4397 
L 1831 0 
L 1172 0 
L 2766 4134 
L 525 4134 
L 525 4666 
z
" id="DejaVuSans-37" transform="scale(0.015625)"/>
       </defs>
       <use xlink:href="#DejaVuSans-37"/>
       <use x="63.623047" xlink:href="#DejaVuSans-35"/>
       <use x="127.246094" xlink:href="#DejaVuSans-30"/>
       <use x="190.869141" xlink:href="#DejaVuSans-30"/>
      </g>
     </g>
    </g>
    <g id="xtick_4">
     <g id="line2d_4">
      <g>
       <use style="stroke:#000000;stroke-width:0.8;" x="198.072568" xlink:href="#mb92ac454bf" y="332.2"/>
      </g>
     </g>
     <g id="text_4">
      <!-- 10000 -->
      <g transform="translate(182.166318 346.798438)scale(0.1 -0.1)">
       <defs>
        <path d="M 794 531 
L 1825 531 
L 1825 4091 
L 703 3866 
L 703 4441 
L 1819 4666 
L 2450 4666 
L 2450 531 
L 3481 531 
L 3481 0 
L 794 0 
L 794 531 
z
" id="DejaVuSans-31" transform="scale(0.015625)"/>
       </defs>
       <use xlink:href="#DejaVuSans-31"/>
       <use x="63.623047" xlink:href="#DejaVuSans-30"/>
       <use x="127.246094" xlink:href="#DejaVuSans-30"/>
       <use x="190.869141" xlink:href="#DejaVuSans-30"/>
       <use x="254.492188" xlink:href="#DejaVuSans-30"/>
      </g>
     </g>
    </g>
    <g id="xtick_5">
     <g id="line2d_5">
      <g>
       <use style="stroke:#000000;stroke-width:0.8;" x="241.546963" xlink:href="#mb92ac454bf" y="332.2"/>
      </g>
     </g>
     <g id="text_5">
      <!-- 12500 -->
      <g transform="translate(225.640713 346.798438)scale(0.1 -0.1)">
       <use xlink:href="#DejaVuSans-31"/>
       <use x="63.623047" xlink:href="#DejaVuSans-32"/>
       <use x="127.246094" xlink:href="#DejaVuSans-35"/>
       <use x="190.869141" xlink:href="#DejaVuSans-30"/>
       <use x="254.492188" xlink:href="#DejaVuSans-30"/>
      </g>
     </g>
    </g>
    <g id="xtick_6">
     <g id="line2d_6">
      <g>
       <use style="stroke:#000000;stroke-width:0.8;" x="285.021359" xlink:href="#mb92ac454bf" y="332.2"/>
      </g>
     </g>
     <g id="text_6">
      <!-- 15000 -->
      <g transform="translate(269.115109 346.798438)scale(0.1 -0.1)">
       <use xlink:href="#DejaVuSans-31"/>
       <use x="63.623047" xlink:href="#DejaVuSans-35"/>
       <use x="127.246094" xlink:href="#DejaVuSans-30"/>
       <use x="190.869141" xlink:href="#DejaVuSans-30"/>
       <use x="254.492188" xlink:href="#DejaVuSans-30"/>
      </g>
     </g>
    </g>
    <g id="xtick_7">
     <g id="line2d_7">
      <g>
       <use style="stroke:#000000;stroke-width:0.8;" x="328.495754" xlink:href="#mb92ac454bf" y="332.2"/>
      </g>
     </g>
     <g id="text_7">
      <!-- 17500 -->
      <g transform="translate(312.589504 346.798438)scale(0.1 -0.1)">
       <use xlink:href="#DejaVuSans-31"/>
       <use x="63.623047" xlink:href="#DejaVuSans-37"/>
       <use x="127.246094" xlink:href="#DejaVuSans-35"/>
       <use x="190.869141" xlink:href="#DejaVuSans-30"/>
       <use x="254.492188" xlink:href="#DejaVuSans-30"/>
      </g>
     </g>
    </g>
    <g id="text_8">
     <!-- tiempo -->
     <g transform="translate(169.157813 360.476562)scale(0.1 -0.1)">
      <defs>
       <path d="M 1172 4494 
L 1172 3500 
L 2356 3500 
L 2356 3053 
L 1172 3053 
L 1172 1153 
Q 1172 725 1289 603 
Q 1406 481 1766 481 
L 2356 481 
L 2356 0 
L 1766 0 
Q 1100 0 847 248 
Q 594 497 594 1153 
L 594 3053 
L 172 3053 
L 172 3500 
L 594 3500 
L 594 4494 
L 1172 4494 
z
" id="DejaVuSans-74" transform="scale(0.015625)"/>
       <path d="M 603 3500 
L 1178 3500 
L 1178 0 
L 603 0 
L 603 3500 
z
M 603 4863 
L 1178 4863 
L 1178 4134 
L 603 4134 
L 603 4863 
z
" id="DejaVuSans-69" transform="scale(0.015625)"/>
       <path d="M 3597 1894 
L 3597 1613 
L 953 1613 
Q 991 1019 1311 708 
Q 1631 397 2203 397 
Q 2534 397 2845 478 
Q 3156 559 3463 722 
L 3463 178 
Q 3153 47 2828 -22 
Q 2503 -91 2169 -91 
Q 1331 -91 842 396 
Q 353 884 353 1716 
Q 353 2575 817 3079 
Q 1281 3584 2069 3584 
Q 2775 3584 3186 3129 
Q 3597 2675 3597 1894 
z
M 3022 2063 
Q 3016 2534 2758 2815 
Q 2500 3097 2075 3097 
Q 1594 3097 1305 2825 
Q 1016 2553 972 2059 
L 3022 2063 
z
" id="DejaVuSans-65" transform="scale(0.015625)"/>
       <path d="M 3328 2828 
Q 3544 3216 3844 3400 
Q 4144 3584 4550 3584 
Q 5097 3584 5394 3201 
Q 5691 2819 5691 2113 
L 5691 0 
L 5113 0 
L 5113 2094 
Q 5113 2597 4934 2840 
Q 4756 3084 4391 3084 
Q 3944 3084 3684 2787 
Q 3425 2491 3425 1978 
L 3425 0 
L 2847 0 
L 2847 2094 
Q 2847 2600 2669 2842 
Q 2491 3084 2119 3084 
Q 1678 3084 1418 2786 
Q 1159 2488 1159 1978 
L 1159 0 
L 581 0 
L 581 3500 
L 1159 3500 
L 1159 2956 
Q 1356 3278 1631 3431 
Q 1906 3584 2284 3584 
Q 2666 3584 2933 3390 
Q 3200 3197 3328 2828 
z
" id="DejaVuSans-6d" transform="scale(0.015625)"/>
       <path d="M 1159 525 
L 1159 -1331 
L 581 -1331 
L 581 3500 
L 1159 3500 
L 1159 2969 
Q 1341 3281 1617 3432 
Q 1894 3584 2278 3584 
Q 2916 3584 3314 3078 
Q 3713 2572 3713 1747 
Q 3713 922 3314 415 
Q 2916 -91 2278 -91 
Q 1894 -91 1617 61 
Q 1341 213 1159 525 
z
M 3116 1747 
Q 3116 2381 2855 2742 
Q 2594 3103 2138 3103 
Q 1681 3103 1420 2742 
Q 1159 2381 1159 1747 
Q 1159 1113 1420 752 
Q 1681 391 2138 391 
Q 2594 391 2855 752 
Q 3116 1113 3116 1747 
z
" id="DejaVuSans-70" transform="scale(0.015625)"/>
       <path d="M 1959 3097 
Q 1497 3097 1228 2736 
Q 959 2375 959 1747 
Q 959 1119 1226 758 
Q 1494 397 1959 397 
Q 2419 397 2687 759 
Q 2956 1122 2956 1747 
Q 2956 2369 2687 2733 
Q 2419 3097 1959 3097 
z
M 1959 3584 
Q 2709 3584 3137 3096 
Q 3566 2609 3566 1747 
Q 3566 888 3137 398 
Q 2709 -91 1959 -91 
Q 1206 -91 779 398 
Q 353 888 353 1747 
Q 353 2609 779 3096 
Q 1206 3584 1959 3584 
z
" id="DejaVuSans-6f" transform="scale(0.015625)"/>
      </defs>
      <use xlink:href="#DejaVuSans-74"/>
      <use x="39.208984" xlink:href="#DejaVuSans-69"/>
      <use x="66.992188" xlink:href="#DejaVuSans-65"/>
      <use x="128.515625" xlink:href="#DejaVuSans-6d"/>
      <use x="225.927734" xlink:href="#DejaVuSans-70"/>
      <use x="289.404297" xlink:href="#DejaVuSans-6f"/>
     </g>
    </g>
   </g>
   <g id="matplotlib.axis_2">
    <g id="ytick_1">
     <g id="line2d_8">
      <defs>
       <path d="M 0 0 
L -3.5 0 
" id="maa1efea48c" style="stroke:#000000;stroke-width:0.8;"/>
      </defs>
      <g>
       <use style="stroke:#000000;stroke-width:0.8;" x="24.175" xlink:href="#maa1efea48c" y="318.041208"/>
      </g>
     </g>
     <g id="text_9">
      <!-- 0 -->
      <g transform="translate(10.8125 321.840426)scale(0.1 -0.1)">
       <use xlink:href="#DejaVuSans-30"/>
      </g>
     </g>
    </g>
    <g id="ytick_2">
     <g id="line2d_9">
      <g>
       <use style="stroke:#000000;stroke-width:0.8;" x="24.175" xlink:href="#maa1efea48c" y="265.687167"/>
      </g>
     </g>
     <g id="text_10">
      <!-- 1 -->
      <g transform="translate(10.8125 269.486386)scale(0.1 -0.1)">
       <use xlink:href="#DejaVuSans-31"/>
      </g>
     </g>
    </g>
    <g id="ytick_3">
     <g id="line2d_10">
      <g>
       <use style="stroke:#000000;stroke-width:0.8;" x="24.175" xlink:href="#maa1efea48c" y="213.333127"/>
      </g>
     </g>
     <g id="text_11">
      <!-- 2 -->
      <g transform="translate(10.8125 217.132346)scale(0.1 -0.1)">
       <use xlink:href="#DejaVuSans-32"/>
      </g>
     </g>
    </g>
    <g id="ytick_4">
     <g id="line2d_11">
      <g>
       <use style="stroke:#000000;stroke-width:0.8;" x="24.175" xlink:href="#maa1efea48c" y="160.979087"/>
      </g>
     </g>
     <g id="text_12">
      <!-- 3 -->
      <g transform="translate(10.8125 164.778306)scale(0.1 -0.1)">
       <defs>
        <path d="M 2597 2516 
Q 3050 2419 3304 2112 
Q 3559 1806 3559 1356 
Q 3559 666 3084 287 
Q 2609 -91 1734 -91 
Q 1441 -91 1130 -33 
Q 819 25 488 141 
L 488 750 
Q 750 597 1062 519 
Q 1375 441 1716 441 
Q 2309 441 2620 675 
Q 2931 909 2931 1356 
Q 2931 1769 2642 2001 
Q 2353 2234 1838 2234 
L 1294 2234 
L 1294 2753 
L 1863 2753 
Q 2328 2753 2575 2939 
Q 2822 3125 2822 3475 
Q 2822 3834 2567 4026 
Q 2313 4219 1838 4219 
Q 1578 4219 1281 4162 
Q 984 4106 628 3988 
L 628 4550 
Q 988 4650 1302 4700 
Q 1616 4750 1894 4750 
Q 2613 4750 3031 4423 
Q 3450 4097 3450 3541 
Q 3450 3153 3228 2886 
Q 3006 2619 2597 2516 
z
" id="DejaVuSans-33" transform="scale(0.015625)"/>
       </defs>
       <use xlink:href="#DejaVuSans-33"/>
      </g>
     </g>
    </g>
    <g id="ytick_5">
     <g id="line2d_12">
      <g>
       <use style="stroke:#000000;stroke-width:0.8;" x="24.175" xlink:href="#maa1efea48c" y="108.625047"/>
      </g>
     </g>
     <g id="text_13">
      <!-- 4 -->
      <g transform="translate(10.8125 112.424265)scale(0.1 -0.1)">
       <defs>
        <path d="M 2419 4116 
L 825 1625 
L 2419 1625 
L 2419 4116 
z
M 2253 4666 
L 3047 4666 
L 3047 1625 
L 3713 1625 
L 3713 1100 
L 3047 1100 
L 3047 0 
L 2419 0 
L 2419 1100 
L 313 1100 
L 313 1709 
L 2253 4666 
z
" id="DejaVuSans-34" transform="scale(0.015625)"/>
       </defs>
       <use xlink:href="#DejaVuSans-34"/>
      </g>
     </g>
    </g>
    <g id="ytick_6">
     <g id="line2d_13">
      <g>
       <use style="stroke:#000000;stroke-width:0.8;" x="24.175" xlink:href="#maa1efea48c" y="56.271006"/>
      </g>
     </g>
     <g id="text_14">
      <!-- 5 -->
      <g transform="translate(10.8125 60.070225)scale(0.1 -0.1)">
       <use xlink:href="#DejaVuSans-35"/>
      </g>
     </g>
    </g>
    <g id="text_15">
     <!-- complejidad -->
     <g transform="translate(4.732812 207.509375)rotate(-90)scale(0.1 -0.1)">
      <defs>
       <path d="M 3122 3366 
L 3122 2828 
Q 2878 2963 2633 3030 
Q 2388 3097 2138 3097 
Q 1578 3097 1268 2742 
Q 959 2388 959 1747 
Q 959 1106 1268 751 
Q 1578 397 2138 397 
Q 2388 397 2633 464 
Q 2878 531 3122 666 
L 3122 134 
Q 2881 22 2623 -34 
Q 2366 -91 2075 -91 
Q 1284 -91 818 406 
Q 353 903 353 1747 
Q 353 2603 823 3093 
Q 1294 3584 2113 3584 
Q 2378 3584 2631 3529 
Q 2884 3475 3122 3366 
z
" id="DejaVuSans-63" transform="scale(0.015625)"/>
       <path d="M 603 4863 
L 1178 4863 
L 1178 0 
L 603 0 
L 603 4863 
z
" id="DejaVuSans-6c" transform="scale(0.015625)"/>
       <path d="M 603 3500 
L 1178 3500 
L 1178 -63 
Q 1178 -731 923 -1031 
Q 669 -1331 103 -1331 
L -116 -1331 
L -116 -844 
L 38 -844 
Q 366 -844 484 -692 
Q 603 -541 603 -63 
L 603 3500 
z
M 603 4863 
L 1178 4863 
L 1178 4134 
L 603 4134 
L 603 4863 
z
" id="DejaVuSans-6a" transform="scale(0.015625)"/>
       <path d="M 2906 2969 
L 2906 4863 
L 3481 4863 
L 3481 0 
L 2906 0 
L 2906 525 
Q 2725 213 2448 61 
Q 2172 -91 1784 -91 
Q 1150 -91 751 415 
Q 353 922 353 1747 
Q 353 2572 751 3078 
Q 1150 3584 1784 3584 
Q 2172 3584 2448 3432 
Q 2725 3281 2906 2969 
z
M 947 1747 
Q 947 1113 1208 752 
Q 1469 391 1925 391 
Q 2381 391 2643 752 
Q 2906 1113 2906 1747 
Q 2906 2381 2643 2742 
Q 2381 3103 1925 3103 
Q 1469 3103 1208 2742 
Q 947 2381 947 1747 
z
" id="DejaVuSans-64" transform="scale(0.015625)"/>
       <path d="M 2194 1759 
Q 1497 1759 1228 1600 
Q 959 1441 959 1056 
Q 959 750 1161 570 
Q 1363 391 1709 391 
Q 2188 391 2477 730 
Q 2766 1069 2766 1631 
L 2766 1759 
L 2194 1759 
z
M 3341 1997 
L 3341 0 
L 2766 0 
L 2766 531 
Q 2569 213 2275 61 
Q 1981 -91 1556 -91 
Q 1019 -91 701 211 
Q 384 513 384 1019 
Q 384 1609 779 1909 
Q 1175 2209 1959 2209 
L 2766 2209 
L 2766 2266 
Q 2766 2663 2505 2880 
Q 2244 3097 1772 3097 
Q 1472 3097 1187 3025 
Q 903 2953 641 2809 
L 641 3341 
Q 956 3463 1253 3523 
Q 1550 3584 1831 3584 
Q 2591 3584 2966 3190 
Q 3341 2797 3341 1997 
z
" id="DejaVuSans-61" transform="scale(0.015625)"/>
      </defs>
      <use xlink:href="#DejaVuSans-63"/>
      <use x="54.980469" xlink:href="#DejaVuSans-6f"/>
      <use x="116.162109" xlink:href="#DejaVuSans-6d"/>
      <use x="213.574219" xlink:href="#DejaVuSans-70"/>
      <use x="277.050781" xlink:href="#DejaVuSans-6c"/>
      <use x="304.833984" xlink:href="#DejaVuSans-65"/>
      <use x="366.357422" xlink:href="#DejaVuSans-6a"/>
      <use x="394.140625" xlink:href="#DejaVuSans-69"/>
      <use x="421.923828" xlink:href="#DejaVuSans-64"/>
      <use x="485.400391" xlink:href="#DejaVuSans-61"/>
      <use x="546.679688" xlink:href="#DejaVuSans-64"/>
     </g>
    </g>
    <g id="text_16">
     <!-- 1e8 -->
     <g transform="translate(24.175 18.8)scale(0.1 -0.1)">
      <defs>
       <path d="M 2034 2216 
Q 1584 2216 1326 1975 
Q 1069 1734 1069 1313 
Q 1069 891 1326 650 
Q 1584 409 2034 409 
Q 2484 409 2743 651 
Q 3003 894 3003 1313 
Q 3003 1734 2745 1975 
Q 2488 2216 2034 2216 
z
M 1403 2484 
Q 997 2584 770 2862 
Q 544 3141 544 3541 
Q 544 4100 942 4425 
Q 1341 4750 2034 4750 
Q 2731 4750 3128 4425 
Q 3525 4100 3525 3541 
Q 3525 3141 3298 2862 
Q 3072 2584 2669 2484 
Q 3125 2378 3379 2068 
Q 3634 1759 3634 1313 
Q 3634 634 3220 271 
Q 2806 -91 2034 -91 
Q 1263 -91 848 271 
Q 434 634 434 1313 
Q 434 1759 690 2068 
Q 947 2378 1403 2484 
z
M 1172 3481 
Q 1172 3119 1398 2916 
Q 1625 2713 2034 2713 
Q 2441 2713 2670 2916 
Q 2900 3119 2900 3481 
Q 2900 3844 2670 4047 
Q 2441 4250 2034 4250 
Q 1625 4250 1398 4047 
Q 1172 3844 1172 3481 
z
" id="DejaVuSans-38" transform="scale(0.015625)"/>
      </defs>
      <use xlink:href="#DejaVuSans-31"/>
      <use x="63.623047" xlink:href="#DejaVuSans-65"/>
      <use x="125.146484" xlink:href="#DejaVuSans-38"/>
     </g>
    </g>
   </g>
   <g id="line2d_14">
    <path clip-path="url(#pb6079bf3ec)" d="M 24.175 318.069216 
L 27.458081 315.230035 
L 30.741162 312.390855 
L 34.024242 309.551675 
L 37.307323 306.712494 
L 40.590404 303.873314 
L 43.873485 301.034134 
L 47.156566 298.194953 
L 50.439646 295.355773 
L 53.722727 292.516593 
L 57.005808 289.677413 
L 60.288889 286.838232 
L 63.57197 283.999052 
L 66.855051 281.159872 
L 70.138131 278.320691 
L 73.421212 275.481511 
L 76.704293 272.642331 
L 79.987374 269.80315 
L 83.270455 266.96397 
L 86.553535 264.12479 
L 89.836616 261.28561 
L 93.119697 258.446429 
L 96.402778 255.607249 
L 99.685859 252.768069 
L 102.968939 249.928888 
L 106.25202 247.089708 
L 109.535101 244.250528 
L 112.818182 241.411347 
L 116.101263 238.572167 
L 119.384343 235.732987 
L 122.667424 232.893806 
L 125.950505 230.054626 
L 129.233586 227.215446 
L 132.516667 224.376266 
L 135.799747 221.537085 
L 139.082828 218.697905 
L 142.365909 215.858725 
L 145.64899 213.019544 
L 148.932071 210.180364 
L 152.215152 207.341184 
L 155.498232 204.502003 
L 158.781313 201.662823 
L 162.064394 198.823643 
L 165.347475 195.984462 
L 168.630556 193.145282 
L 171.913636 190.306102 
L 175.196717 187.466922 
L 178.479798 184.627741 
L 181.762879 181.788561 
L 185.04596 178.949381 
L 188.32904 176.1102 
L 191.612121 173.27102 
L 194.895202 170.43184 
L 198.178283 167.592659 
L 201.461364 164.753479 
L 204.744444 161.914299 
L 208.027525 159.075119 
L 211.310606 156.235938 
L 214.593687 153.396758 
L 217.876768 150.557578 
L 221.159848 147.718397 
L 224.442929 144.879217 
L 227.72601 142.040037 
L 231.009091 139.200856 
L 234.292172 136.361676 
L 237.575253 133.522496 
L 240.858333 130.683315 
L 244.141414 127.844135 
L 247.424495 125.004955 
L 250.707576 122.165775 
L 253.990657 119.326594 
L 257.273737 116.487414 
L 260.556818 113.648234 
L 263.839899 110.809053 
L 267.12298 107.969873 
L 270.406061 105.130693 
L 273.689141 102.291512 
L 276.972222 99.452332 
L 280.255303 96.613152 
L 283.538384 93.773972 
L 286.821465 90.934791 
L 290.104545 88.095611 
L 293.387626 85.256431 
L 296.670707 82.41725 
L 299.953788 79.57807 
L 303.236869 76.73889 
L 306.519949 73.899709 
L 309.80303 71.060529 
L 313.086111 68.221349 
L 316.369192 65.382168 
L 319.652273 62.542988 
L 322.935354 59.703808 
L 326.218434 56.864628 
L 329.501515 54.025447 
L 332.784596 51.186267 
L 336.067677 48.347087 
L 339.350758 45.507906 
L 342.633838 42.668726 
L 345.916919 39.829546 
L 349.2 36.990365 
" style="fill:none;stroke:#1f77b4;stroke-linecap:square;stroke-width:2.25;"/>
   </g>
   <g id="patch_3">
    <path d="M 24.175 332.2 
L 24.175 21.8 
" style="fill:none;stroke:#000000;stroke-linecap:square;stroke-linejoin:miter;stroke-width:0.8;"/>
   </g>
   <g id="patch_4">
    <path d="M 24.175 332.2 
L 349.2 332.2 
" style="fill:none;stroke:#000000;stroke-linecap:square;stroke-linejoin:miter;stroke-width:0.8;"/>
   </g>
  </g>
 </g>
 <defs>
  <clipPath id="pb6079bf3ec">
   <rect height="310.4" width="325.025" x="24.175" y="21.8"/>
  </clipPath>
 </defs>
</svg>
