<?xml version="1.0" encoding="utf-8" standalone="no"?>
<!DOCTYPE svg PUBLIC "-//W3C//DTD SVG 1.1//EN"
  "http://www.w3.org/Graphics/SVG/1.1/DTD/svg11.dtd">
<svg height="288pt" version="1.1" viewBox="0 0 432 288" width="432pt" xmlns="http://www.w3.org/2000/svg" xmlns:xlink="http://www.w3.org/1999/xlink">
 <metadata>
  <rdf:RDF xmlns:cc="http://creativecommons.org/ns#" xmlns:dc="http://purl.org/dc/elements/1.1/" xmlns:rdf="http://www.w3.org/1999/02/22-rdf-syntax-ns#">
   <cc:Work>
    <dc:type rdf:resource="http://purl.org/dc/dcmitype/StillImage"/>
    <dc:date>2021-04-20T00:02:58.210114</dc:date>
    <dc:format>image/svg+xml</dc:format>
    <dc:creator>
     <cc:Agent>
      <dc:title>Matplotlib v3.4.1, https://matplotlib.org/</dc:title>
     </cc:Agent>
    </dc:creator>
   </cc:Work>
  </rdf:RDF>
 </metadata>
 <defs>
  <style type="text/css">*{stroke-linecap:butt;stroke-linejoin:round;}</style>
 </defs>
 <g id="figure_1">
  <g id="patch_1">
   <path d="M 0 288 
L 432 288 
L 432 0 
L 0 0 
z
" style="fill:none;"/>
  </g>
  <g id="axes_1">
   <g id="patch_2">
    <path d="M 54 252 
L 388.8 252 
L 388.8 34.56 
L 54 34.56 
z
" style="fill:#ffffff;"/>
   </g>
   <g id="PathCollection_1">
    <defs>
     <path d="M 0 3 
C 0.795609 3 1.55874 2.683901 2.12132 2.12132 
C 2.683901 1.55874 3 0.795609 3 -0 
C 3 -0.795609 2.683901 -1.55874 2.12132 -2.12132 
C 1.55874 -2.683901 0.795609 -3 0 -3 
C -0.795609 -3 -1.55874 -2.683901 -2.12132 -2.12132 
C -2.683901 -1.55874 -3 -0.795609 -3 0 
C -3 0.795609 -2.683901 1.55874 -2.12132 2.12132 
C -1.55874 2.683901 -0.795609 3 0 3 
z
" id="C0_0_d6089b923e"/>
    </defs>
    <g clip-path="url(#pb1c73ae2de)">
     <use style="fill:#1f77b4;stroke:#ffffff;stroke-width:0.48;" x="69.218182" xlink:href="#C0_0_d6089b923e" y="242.116363"/>
    </g>
    <g clip-path="url(#pb1c73ae2de)">
     <use style="fill:#1f77b4;stroke:#ffffff;stroke-width:0.48;" x="79.71348" xlink:href="#C0_0_d6089b923e" y="242.116362"/>
    </g>
    <g clip-path="url(#pb1c73ae2de)">
     <use style="fill:#1f77b4;stroke:#ffffff;stroke-width:0.48;" x="90.208777" xlink:href="#C0_0_d6089b923e" y="242.116359"/>
    </g>
    <g clip-path="url(#pb1c73ae2de)">
     <use style="fill:#1f77b4;stroke:#ffffff;stroke-width:0.48;" x="100.704075" xlink:href="#C0_0_d6089b923e" y="242.116352"/>
    </g>
    <g clip-path="url(#pb1c73ae2de)">
     <use style="fill:#1f77b4;stroke:#ffffff;stroke-width:0.48;" x="111.199373" xlink:href="#C0_0_d6089b923e" y="242.116343"/>
    </g>
    <g clip-path="url(#pb1c73ae2de)">
     <use style="fill:#1f77b4;stroke:#ffffff;stroke-width:0.48;" x="121.694671" xlink:href="#C0_0_d6089b923e" y="242.116327"/>
    </g>
    <g clip-path="url(#pb1c73ae2de)">
     <use style="fill:#1f77b4;stroke:#ffffff;stroke-width:0.48;" x="132.189969" xlink:href="#C0_0_d6089b923e" y="242.116286"/>
    </g>
    <g clip-path="url(#pb1c73ae2de)">
     <use style="fill:#1f77b4;stroke:#ffffff;stroke-width:0.48;" x="142.685266" xlink:href="#C0_0_d6089b923e" y="242.11624"/>
    </g>
    <g clip-path="url(#pb1c73ae2de)">
     <use style="fill:#1f77b4;stroke:#ffffff;stroke-width:0.48;" x="153.180564" xlink:href="#C0_0_d6089b923e" y="242.116137"/>
    </g>
    <g clip-path="url(#pb1c73ae2de)">
     <use style="fill:#1f77b4;stroke:#ffffff;stroke-width:0.48;" x="163.675862" xlink:href="#C0_0_d6089b923e" y="242.115873"/>
    </g>
    <g clip-path="url(#pb1c73ae2de)">
     <use style="fill:#1f77b4;stroke:#ffffff;stroke-width:0.48;" x="174.17116" xlink:href="#C0_0_d6089b923e" y="242.115473"/>
    </g>
    <g clip-path="url(#pb1c73ae2de)">
     <use style="fill:#1f77b4;stroke:#ffffff;stroke-width:0.48;" x="184.666458" xlink:href="#C0_0_d6089b923e" y="242.114504"/>
    </g>
    <g clip-path="url(#pb1c73ae2de)">
     <use style="fill:#1f77b4;stroke:#ffffff;stroke-width:0.48;" x="195.161755" xlink:href="#C0_0_d6089b923e" y="242.112875"/>
    </g>
    <g clip-path="url(#pb1c73ae2de)">
     <use style="fill:#1f77b4;stroke:#ffffff;stroke-width:0.48;" x="205.657053" xlink:href="#C0_0_d6089b923e" y="242.109556"/>
    </g>
    <g clip-path="url(#pb1c73ae2de)">
     <use style="fill:#1f77b4;stroke:#ffffff;stroke-width:0.48;" x="216.152351" xlink:href="#C0_0_d6089b923e" y="242.102134"/>
    </g>
    <g clip-path="url(#pb1c73ae2de)">
     <use style="fill:#1f77b4;stroke:#ffffff;stroke-width:0.48;" x="226.647649" xlink:href="#C0_0_d6089b923e" y="242.090216"/>
    </g>
    <g clip-path="url(#pb1c73ae2de)">
     <use style="fill:#1f77b4;stroke:#ffffff;stroke-width:0.48;" x="237.142947" xlink:href="#C0_0_d6089b923e" y="242.060915"/>
    </g>
    <g clip-path="url(#pb1c73ae2de)">
     <use style="fill:#1f77b4;stroke:#ffffff;stroke-width:0.48;" x="247.638245" xlink:href="#C0_0_d6089b923e" y="242.065336"/>
    </g>
    <g clip-path="url(#pb1c73ae2de)">
     <use style="fill:#1f77b4;stroke:#ffffff;stroke-width:0.48;" x="258.133542" xlink:href="#C0_0_d6089b923e" y="241.949205"/>
    </g>
    <g clip-path="url(#pb1c73ae2de)">
     <use style="fill:#1f77b4;stroke:#ffffff;stroke-width:0.48;" x="268.62884" xlink:href="#C0_0_d6089b923e" y="241.865082"/>
    </g>
    <g clip-path="url(#pb1c73ae2de)">
     <use style="fill:#1f77b4;stroke:#ffffff;stroke-width:0.48;" x="279.124138" xlink:href="#C0_0_d6089b923e" y="241.6591"/>
    </g>
    <g clip-path="url(#pb1c73ae2de)">
     <use style="fill:#1f77b4;stroke:#ffffff;stroke-width:0.48;" x="289.619436" xlink:href="#C0_0_d6089b923e" y="241.298494"/>
    </g>
    <g clip-path="url(#pb1c73ae2de)">
     <use style="fill:#1f77b4;stroke:#ffffff;stroke-width:0.48;" x="300.114734" xlink:href="#C0_0_d6089b923e" y="240.526238"/>
    </g>
    <g clip-path="url(#pb1c73ae2de)">
     <use style="fill:#1f77b4;stroke:#ffffff;stroke-width:0.48;" x="310.610031" xlink:href="#C0_0_d6089b923e" y="238.93449"/>
    </g>
    <g clip-path="url(#pb1c73ae2de)">
     <use style="fill:#1f77b4;stroke:#ffffff;stroke-width:0.48;" x="321.105329" xlink:href="#C0_0_d6089b923e" y="235.909675"/>
    </g>
    <g clip-path="url(#pb1c73ae2de)">
     <use style="fill:#1f77b4;stroke:#ffffff;stroke-width:0.48;" x="331.600627" xlink:href="#C0_0_d6089b923e" y="229.763078"/>
    </g>
    <g clip-path="url(#pb1c73ae2de)">
     <use style="fill:#1f77b4;stroke:#ffffff;stroke-width:0.48;" x="342.095925" xlink:href="#C0_0_d6089b923e" y="217.344262"/>
    </g>
    <g clip-path="url(#pb1c73ae2de)">
     <use style="fill:#1f77b4;stroke:#ffffff;stroke-width:0.48;" x="352.591223" xlink:href="#C0_0_d6089b923e" y="193.016674"/>
    </g>
    <g clip-path="url(#pb1c73ae2de)">
     <use style="fill:#1f77b4;stroke:#ffffff;stroke-width:0.48;" x="363.08652" xlink:href="#C0_0_d6089b923e" y="143.384988"/>
    </g>
    <g clip-path="url(#pb1c73ae2de)">
     <use style="fill:#1f77b4;stroke:#ffffff;stroke-width:0.48;" x="373.581818" xlink:href="#C0_0_d6089b923e" y="44.908942"/>
    </g>
    <g clip-path="url(#pb1c73ae2de)">
     <use style="fill:#ff7f0e;stroke:#ffffff;stroke-width:0.48;" x="69.218182" xlink:href="#C0_0_d6089b923e" y="242.116364"/>
    </g>
    <g clip-path="url(#pb1c73ae2de)">
     <use style="fill:#ff7f0e;stroke:#ffffff;stroke-width:0.48;" x="79.71348" xlink:href="#C0_0_d6089b923e" y="242.116362"/>
    </g>
    <g clip-path="url(#pb1c73ae2de)">
     <use style="fill:#ff7f0e;stroke:#ffffff;stroke-width:0.48;" x="90.208777" xlink:href="#C0_0_d6089b923e" y="242.116359"/>
    </g>
    <g clip-path="url(#pb1c73ae2de)">
     <use style="fill:#ff7f0e;stroke:#ffffff;stroke-width:0.48;" x="100.704075" xlink:href="#C0_0_d6089b923e" y="242.116355"/>
    </g>
    <g clip-path="url(#pb1c73ae2de)">
     <use style="fill:#ff7f0e;stroke:#ffffff;stroke-width:0.48;" x="111.199373" xlink:href="#C0_0_d6089b923e" y="242.116345"/>
    </g>
    <g clip-path="url(#pb1c73ae2de)">
     <use style="fill:#ff7f0e;stroke:#ffffff;stroke-width:0.48;" x="121.694671" xlink:href="#C0_0_d6089b923e" y="242.116335"/>
    </g>
    <g clip-path="url(#pb1c73ae2de)">
     <use style="fill:#ff7f0e;stroke:#ffffff;stroke-width:0.48;" x="132.189969" xlink:href="#C0_0_d6089b923e" y="242.116303"/>
    </g>
    <g clip-path="url(#pb1c73ae2de)">
     <use style="fill:#ff7f0e;stroke:#ffffff;stroke-width:0.48;" x="142.685266" xlink:href="#C0_0_d6089b923e" y="242.116257"/>
    </g>
    <g clip-path="url(#pb1c73ae2de)">
     <use style="fill:#ff7f0e;stroke:#ffffff;stroke-width:0.48;" x="153.180564" xlink:href="#C0_0_d6089b923e" y="242.116154"/>
    </g>
    <g clip-path="url(#pb1c73ae2de)">
     <use style="fill:#ff7f0e;stroke:#ffffff;stroke-width:0.48;" x="163.675862" xlink:href="#C0_0_d6089b923e" y="242.116013"/>
    </g>
    <g clip-path="url(#pb1c73ae2de)">
     <use style="fill:#ff7f0e;stroke:#ffffff;stroke-width:0.48;" x="174.17116" xlink:href="#C0_0_d6089b923e" y="242.115475"/>
    </g>
    <g clip-path="url(#pb1c73ae2de)">
     <use style="fill:#ff7f0e;stroke:#ffffff;stroke-width:0.48;" x="184.666458" xlink:href="#C0_0_d6089b923e" y="242.114728"/>
    </g>
    <g clip-path="url(#pb1c73ae2de)">
     <use style="fill:#ff7f0e;stroke:#ffffff;stroke-width:0.48;" x="195.161755" xlink:href="#C0_0_d6089b923e" y="242.113102"/>
    </g>
    <g clip-path="url(#pb1c73ae2de)">
     <use style="fill:#ff7f0e;stroke:#ffffff;stroke-width:0.48;" x="205.657053" xlink:href="#C0_0_d6089b923e" y="242.110298"/>
    </g>
    <g clip-path="url(#pb1c73ae2de)">
     <use style="fill:#ff7f0e;stroke:#ffffff;stroke-width:0.48;" x="216.152351" xlink:href="#C0_0_d6089b923e" y="242.103262"/>
    </g>
    <g clip-path="url(#pb1c73ae2de)">
     <use style="fill:#ff7f0e;stroke:#ffffff;stroke-width:0.48;" x="226.647649" xlink:href="#C0_0_d6089b923e" y="242.09018"/>
    </g>
    <g clip-path="url(#pb1c73ae2de)">
     <use style="fill:#ff7f0e;stroke:#ffffff;stroke-width:0.48;" x="237.142947" xlink:href="#C0_0_d6089b923e" y="242.062781"/>
    </g>
    <g clip-path="url(#pb1c73ae2de)">
     <use style="fill:#ff7f0e;stroke:#ffffff;stroke-width:0.48;" x="247.638245" xlink:href="#C0_0_d6089b923e" y="242.020843"/>
    </g>
    <g clip-path="url(#pb1c73ae2de)">
     <use style="fill:#ff7f0e;stroke:#ffffff;stroke-width:0.48;" x="258.133542" xlink:href="#C0_0_d6089b923e" y="241.949422"/>
    </g>
    <g clip-path="url(#pb1c73ae2de)">
     <use style="fill:#ff7f0e;stroke:#ffffff;stroke-width:0.48;" x="268.62884" xlink:href="#C0_0_d6089b923e" y="241.860823"/>
    </g>
    <g clip-path="url(#pb1c73ae2de)">
     <use style="fill:#ff7f0e;stroke:#ffffff;stroke-width:0.48;" x="279.124138" xlink:href="#C0_0_d6089b923e" y="241.662511"/>
    </g>
    <g clip-path="url(#pb1c73ae2de)">
     <use style="fill:#ff7f0e;stroke:#ffffff;stroke-width:0.48;" x="289.619436" xlink:href="#C0_0_d6089b923e" y="241.300084"/>
    </g>
    <g clip-path="url(#pb1c73ae2de)">
     <use style="fill:#ff7f0e;stroke:#ffffff;stroke-width:0.48;" x="300.114734" xlink:href="#C0_0_d6089b923e" y="240.51748"/>
    </g>
    <g clip-path="url(#pb1c73ae2de)">
     <use style="fill:#ff7f0e;stroke:#ffffff;stroke-width:0.48;" x="310.610031" xlink:href="#C0_0_d6089b923e" y="238.976252"/>
    </g>
    <g clip-path="url(#pb1c73ae2de)">
     <use style="fill:#ff7f0e;stroke:#ffffff;stroke-width:0.48;" x="321.105329" xlink:href="#C0_0_d6089b923e" y="235.869211"/>
    </g>
    <g clip-path="url(#pb1c73ae2de)">
     <use style="fill:#ff7f0e;stroke:#ffffff;stroke-width:0.48;" x="331.600627" xlink:href="#C0_0_d6089b923e" y="229.71718"/>
    </g>
    <g clip-path="url(#pb1c73ae2de)">
     <use style="fill:#ff7f0e;stroke:#ffffff;stroke-width:0.48;" x="342.095925" xlink:href="#C0_0_d6089b923e" y="217.397651"/>
    </g>
    <g clip-path="url(#pb1c73ae2de)">
     <use style="fill:#ff7f0e;stroke:#ffffff;stroke-width:0.48;" x="352.591223" xlink:href="#C0_0_d6089b923e" y="192.720186"/>
    </g>
    <g clip-path="url(#pb1c73ae2de)">
     <use style="fill:#ff7f0e;stroke:#ffffff;stroke-width:0.48;" x="363.08652" xlink:href="#C0_0_d6089b923e" y="143.368"/>
    </g>
    <g clip-path="url(#pb1c73ae2de)">
     <use style="fill:#ff7f0e;stroke:#ffffff;stroke-width:0.48;" x="373.581818" xlink:href="#C0_0_d6089b923e" y="44.736958"/>
    </g>
    <g clip-path="url(#pb1c73ae2de)">
     <use style="fill:#ff7f0e;stroke:#ffffff;stroke-width:0.48;" x="69.218182" xlink:href="#C0_0_d6089b923e" y="242.116362"/>
    </g>
    <g clip-path="url(#pb1c73ae2de)">
     <use style="fill:#ff7f0e;stroke:#ffffff;stroke-width:0.48;" x="79.71348" xlink:href="#C0_0_d6089b923e" y="242.116361"/>
    </g>
    <g clip-path="url(#pb1c73ae2de)">
     <use style="fill:#ff7f0e;stroke:#ffffff;stroke-width:0.48;" x="90.208777" xlink:href="#C0_0_d6089b923e" y="242.116359"/>
    </g>
    <g clip-path="url(#pb1c73ae2de)">
     <use style="fill:#ff7f0e;stroke:#ffffff;stroke-width:0.48;" x="100.704075" xlink:href="#C0_0_d6089b923e" y="242.11635"/>
    </g>
    <g clip-path="url(#pb1c73ae2de)">
     <use style="fill:#ff7f0e;stroke:#ffffff;stroke-width:0.48;" x="111.199373" xlink:href="#C0_0_d6089b923e" y="242.116346"/>
    </g>
    <g clip-path="url(#pb1c73ae2de)">
     <use style="fill:#ff7f0e;stroke:#ffffff;stroke-width:0.48;" x="121.694671" xlink:href="#C0_0_d6089b923e" y="242.116324"/>
    </g>
    <g clip-path="url(#pb1c73ae2de)">
     <use style="fill:#ff7f0e;stroke:#ffffff;stroke-width:0.48;" x="132.189969" xlink:href="#C0_0_d6089b923e" y="242.116309"/>
    </g>
    <g clip-path="url(#pb1c73ae2de)">
     <use style="fill:#ff7f0e;stroke:#ffffff;stroke-width:0.48;" x="142.685266" xlink:href="#C0_0_d6089b923e" y="242.116188"/>
    </g>
    <g clip-path="url(#pb1c73ae2de)">
     <use style="fill:#ff7f0e;stroke:#ffffff;stroke-width:0.48;" x="153.180564" xlink:href="#C0_0_d6089b923e" y="242.116156"/>
    </g>
    <g clip-path="url(#pb1c73ae2de)">
     <use style="fill:#ff7f0e;stroke:#ffffff;stroke-width:0.48;" x="163.675862" xlink:href="#C0_0_d6089b923e" y="242.115912"/>
    </g>
    <g clip-path="url(#pb1c73ae2de)">
     <use style="fill:#ff7f0e;stroke:#ffffff;stroke-width:0.48;" x="174.17116" xlink:href="#C0_0_d6089b923e" y="242.115544"/>
    </g>
    <g clip-path="url(#pb1c73ae2de)">
     <use style="fill:#ff7f0e;stroke:#ffffff;stroke-width:0.48;" x="184.666458" xlink:href="#C0_0_d6089b923e" y="242.114704"/>
    </g>
    <g clip-path="url(#pb1c73ae2de)">
     <use style="fill:#ff7f0e;stroke:#ffffff;stroke-width:0.48;" x="195.161755" xlink:href="#C0_0_d6089b923e" y="242.113124"/>
    </g>
    <g clip-path="url(#pb1c73ae2de)">
     <use style="fill:#ff7f0e;stroke:#ffffff;stroke-width:0.48;" x="205.657053" xlink:href="#C0_0_d6089b923e" y="242.10955"/>
    </g>
    <g clip-path="url(#pb1c73ae2de)">
     <use style="fill:#ff7f0e;stroke:#ffffff;stroke-width:0.48;" x="216.152351" xlink:href="#C0_0_d6089b923e" y="242.105014"/>
    </g>
    <g clip-path="url(#pb1c73ae2de)">
     <use style="fill:#ff7f0e;stroke:#ffffff;stroke-width:0.48;" x="226.647649" xlink:href="#C0_0_d6089b923e" y="242.079846"/>
    </g>
    <g clip-path="url(#pb1c73ae2de)">
     <use style="fill:#ff7f0e;stroke:#ffffff;stroke-width:0.48;" x="237.142947" xlink:href="#C0_0_d6089b923e" y="242.062687"/>
    </g>
    <g clip-path="url(#pb1c73ae2de)">
     <use style="fill:#ff7f0e;stroke:#ffffff;stroke-width:0.48;" x="247.638245" xlink:href="#C0_0_d6089b923e" y="242.012725"/>
    </g>
    <g clip-path="url(#pb1c73ae2de)">
     <use style="fill:#ff7f0e;stroke:#ffffff;stroke-width:0.48;" x="258.133542" xlink:href="#C0_0_d6089b923e" y="241.960461"/>
    </g>
    <g clip-path="url(#pb1c73ae2de)">
     <use style="fill:#ff7f0e;stroke:#ffffff;stroke-width:0.48;" x="268.62884" xlink:href="#C0_0_d6089b923e" y="241.844944"/>
    </g>
    <g clip-path="url(#pb1c73ae2de)">
     <use style="fill:#ff7f0e;stroke:#ffffff;stroke-width:0.48;" x="279.124138" xlink:href="#C0_0_d6089b923e" y="241.67004"/>
    </g>
    <g clip-path="url(#pb1c73ae2de)">
     <use style="fill:#ff7f0e;stroke:#ffffff;stroke-width:0.48;" x="289.619436" xlink:href="#C0_0_d6089b923e" y="241.274459"/>
    </g>
    <g clip-path="url(#pb1c73ae2de)">
     <use style="fill:#ff7f0e;stroke:#ffffff;stroke-width:0.48;" x="300.114734" xlink:href="#C0_0_d6089b923e" y="240.516024"/>
    </g>
    <g clip-path="url(#pb1c73ae2de)">
     <use style="fill:#ff7f0e;stroke:#ffffff;stroke-width:0.48;" x="310.610031" xlink:href="#C0_0_d6089b923e" y="238.934913"/>
    </g>
    <g clip-path="url(#pb1c73ae2de)">
     <use style="fill:#ff7f0e;stroke:#ffffff;stroke-width:0.48;" x="321.105329" xlink:href="#C0_0_d6089b923e" y="235.883761"/>
    </g>
    <g clip-path="url(#pb1c73ae2de)">
     <use style="fill:#ff7f0e;stroke:#ffffff;stroke-width:0.48;" x="331.600627" xlink:href="#C0_0_d6089b923e" y="229.715914"/>
    </g>
    <g clip-path="url(#pb1c73ae2de)">
     <use style="fill:#ff7f0e;stroke:#ffffff;stroke-width:0.48;" x="342.095925" xlink:href="#C0_0_d6089b923e" y="217.416538"/>
    </g>
    <g clip-path="url(#pb1c73ae2de)">
     <use style="fill:#ff7f0e;stroke:#ffffff;stroke-width:0.48;" x="352.591223" xlink:href="#C0_0_d6089b923e" y="192.744665"/>
    </g>
    <g clip-path="url(#pb1c73ae2de)">
     <use style="fill:#ff7f0e;stroke:#ffffff;stroke-width:0.48;" x="363.08652" xlink:href="#C0_0_d6089b923e" y="143.319781"/>
    </g>
    <g clip-path="url(#pb1c73ae2de)">
     <use style="fill:#ff7f0e;stroke:#ffffff;stroke-width:0.48;" x="373.581818" xlink:href="#C0_0_d6089b923e" y="44.826643"/>
    </g>
    <g clip-path="url(#pb1c73ae2de)">
     <use style="fill:#2ca02c;stroke:#ffffff;stroke-width:0.48;" x="69.218182" xlink:href="#C0_0_d6089b923e" y="242.116361"/>
    </g>
    <g clip-path="url(#pb1c73ae2de)">
     <use style="fill:#2ca02c;stroke:#ffffff;stroke-width:0.48;" x="79.71348" xlink:href="#C0_0_d6089b923e" y="242.116361"/>
    </g>
    <g clip-path="url(#pb1c73ae2de)">
     <use style="fill:#2ca02c;stroke:#ffffff;stroke-width:0.48;" x="90.208777" xlink:href="#C0_0_d6089b923e" y="242.116356"/>
    </g>
    <g clip-path="url(#pb1c73ae2de)">
     <use style="fill:#2ca02c;stroke:#ffffff;stroke-width:0.48;" x="100.704075" xlink:href="#C0_0_d6089b923e" y="242.116353"/>
    </g>
    <g clip-path="url(#pb1c73ae2de)">
     <use style="fill:#2ca02c;stroke:#ffffff;stroke-width:0.48;" x="111.199373" xlink:href="#C0_0_d6089b923e" y="242.116342"/>
    </g>
    <g clip-path="url(#pb1c73ae2de)">
     <use style="fill:#2ca02c;stroke:#ffffff;stroke-width:0.48;" x="121.694671" xlink:href="#C0_0_d6089b923e" y="242.116293"/>
    </g>
    <g clip-path="url(#pb1c73ae2de)">
     <use style="fill:#2ca02c;stroke:#ffffff;stroke-width:0.48;" x="132.189969" xlink:href="#C0_0_d6089b923e" y="242.116293"/>
    </g>
    <g clip-path="url(#pb1c73ae2de)">
     <use style="fill:#2ca02c;stroke:#ffffff;stroke-width:0.48;" x="142.685266" xlink:href="#C0_0_d6089b923e" y="242.116234"/>
    </g>
    <g clip-path="url(#pb1c73ae2de)">
     <use style="fill:#2ca02c;stroke:#ffffff;stroke-width:0.48;" x="153.180564" xlink:href="#C0_0_d6089b923e" y="242.116112"/>
    </g>
    <g clip-path="url(#pb1c73ae2de)">
     <use style="fill:#2ca02c;stroke:#ffffff;stroke-width:0.48;" x="163.675862" xlink:href="#C0_0_d6089b923e" y="242.11593"/>
    </g>
    <g clip-path="url(#pb1c73ae2de)">
     <use style="fill:#2ca02c;stroke:#ffffff;stroke-width:0.48;" x="174.17116" xlink:href="#C0_0_d6089b923e" y="242.115532"/>
    </g>
    <g clip-path="url(#pb1c73ae2de)">
     <use style="fill:#2ca02c;stroke:#ffffff;stroke-width:0.48;" x="184.666458" xlink:href="#C0_0_d6089b923e" y="242.114731"/>
    </g>
    <g clip-path="url(#pb1c73ae2de)">
     <use style="fill:#2ca02c;stroke:#ffffff;stroke-width:0.48;" x="195.161755" xlink:href="#C0_0_d6089b923e" y="242.113105"/>
    </g>
    <g clip-path="url(#pb1c73ae2de)">
     <use style="fill:#2ca02c;stroke:#ffffff;stroke-width:0.48;" x="205.657053" xlink:href="#C0_0_d6089b923e" y="242.109885"/>
    </g>
    <g clip-path="url(#pb1c73ae2de)">
     <use style="fill:#2ca02c;stroke:#ffffff;stroke-width:0.48;" x="216.152351" xlink:href="#C0_0_d6089b923e" y="242.103044"/>
    </g>
    <g clip-path="url(#pb1c73ae2de)">
     <use style="fill:#2ca02c;stroke:#ffffff;stroke-width:0.48;" x="226.647649" xlink:href="#C0_0_d6089b923e" y="242.090579"/>
    </g>
    <g clip-path="url(#pb1c73ae2de)">
     <use style="fill:#2ca02c;stroke:#ffffff;stroke-width:0.48;" x="237.142947" xlink:href="#C0_0_d6089b923e" y="242.062668"/>
    </g>
    <g clip-path="url(#pb1c73ae2de)">
     <use style="fill:#2ca02c;stroke:#ffffff;stroke-width:0.48;" x="247.638245" xlink:href="#C0_0_d6089b923e" y="242.03013"/>
    </g>
    <g clip-path="url(#pb1c73ae2de)">
     <use style="fill:#2ca02c;stroke:#ffffff;stroke-width:0.48;" x="258.133542" xlink:href="#C0_0_d6089b923e" y="241.937829"/>
    </g>
    <g clip-path="url(#pb1c73ae2de)">
     <use style="fill:#2ca02c;stroke:#ffffff;stroke-width:0.48;" x="268.62884" xlink:href="#C0_0_d6089b923e" y="241.895056"/>
    </g>
    <g clip-path="url(#pb1c73ae2de)">
     <use style="fill:#2ca02c;stroke:#ffffff;stroke-width:0.48;" x="279.124138" xlink:href="#C0_0_d6089b923e" y="241.667926"/>
    </g>
    <g clip-path="url(#pb1c73ae2de)">
     <use style="fill:#2ca02c;stroke:#ffffff;stroke-width:0.48;" x="289.619436" xlink:href="#C0_0_d6089b923e" y="241.28069"/>
    </g>
    <g clip-path="url(#pb1c73ae2de)">
     <use style="fill:#2ca02c;stroke:#ffffff;stroke-width:0.48;" x="300.114734" xlink:href="#C0_0_d6089b923e" y="240.528348"/>
    </g>
    <g clip-path="url(#pb1c73ae2de)">
     <use style="fill:#2ca02c;stroke:#ffffff;stroke-width:0.48;" x="310.610031" xlink:href="#C0_0_d6089b923e" y="238.974427"/>
    </g>
    <g clip-path="url(#pb1c73ae2de)">
     <use style="fill:#2ca02c;stroke:#ffffff;stroke-width:0.48;" x="321.105329" xlink:href="#C0_0_d6089b923e" y="235.908957"/>
    </g>
    <g clip-path="url(#pb1c73ae2de)">
     <use style="fill:#2ca02c;stroke:#ffffff;stroke-width:0.48;" x="331.600627" xlink:href="#C0_0_d6089b923e" y="229.491386"/>
    </g>
    <g clip-path="url(#pb1c73ae2de)">
     <use style="fill:#2ca02c;stroke:#ffffff;stroke-width:0.48;" x="342.095925" xlink:href="#C0_0_d6089b923e" y="217.366736"/>
    </g>
    <g clip-path="url(#pb1c73ae2de)">
     <use style="fill:#2ca02c;stroke:#ffffff;stroke-width:0.48;" x="352.591223" xlink:href="#C0_0_d6089b923e" y="192.666164"/>
    </g>
    <g clip-path="url(#pb1c73ae2de)">
     <use style="fill:#2ca02c;stroke:#ffffff;stroke-width:0.48;" x="363.08652" xlink:href="#C0_0_d6089b923e" y="143.31229"/>
    </g>
    <g clip-path="url(#pb1c73ae2de)">
     <use style="fill:#2ca02c;stroke:#ffffff;stroke-width:0.48;" x="373.581818" xlink:href="#C0_0_d6089b923e" y="44.443636"/>
    </g>
   </g>
   <g id="PathCollection_2"/>
   <g id="PathCollection_3"/>
   <g id="PathCollection_4"/>
   <g id="matplotlib.axis_1">
    <g id="xtick_1">
     <g id="line2d_1">
      <defs>
       <path d="M 0 0 
L 0 3.5 
" id="md96d06cb2f" style="stroke:#000000;stroke-width:0.8;"/>
      </defs>
      <g>
       <use style="stroke:#000000;stroke-width:0.8;" x="69.218182" xlink:href="#md96d06cb2f" y="252"/>
      </g>
     </g>
     <g id="text_1">
      <!-- 0 -->
      <g transform="translate(66.036932 266.598437)scale(0.1 -0.1)">
       <defs>
        <path d="M 2034 4250 
Q 1547 4250 1301 3770 
Q 1056 3291 1056 2328 
Q 1056 1369 1301 889 
Q 1547 409 2034 409 
Q 2525 409 2770 889 
Q 3016 1369 3016 2328 
Q 3016 3291 2770 3770 
Q 2525 4250 2034 4250 
z
M 2034 4750 
Q 2819 4750 3233 4129 
Q 3647 3509 3647 2328 
Q 3647 1150 3233 529 
Q 2819 -91 2034 -91 
Q 1250 -91 836 529 
Q 422 1150 422 2328 
Q 422 3509 836 4129 
Q 1250 4750 2034 4750 
z
" id="DejaVuSans-30" transform="scale(0.015625)"/>
       </defs>
       <use xlink:href="#DejaVuSans-30"/>
      </g>
     </g>
    </g>
    <g id="xtick_2">
     <g id="line2d_2">
      <g>
       <use style="stroke:#000000;stroke-width:0.8;" x="121.694671" xlink:href="#md96d06cb2f" y="252"/>
      </g>
     </g>
     <g id="text_2">
      <!-- 5 -->
      <g transform="translate(118.513421 266.598437)scale(0.1 -0.1)">
       <defs>
        <path d="M 691 4666 
L 3169 4666 
L 3169 4134 
L 1269 4134 
L 1269 2991 
Q 1406 3038 1543 3061 
Q 1681 3084 1819 3084 
Q 2600 3084 3056 2656 
Q 3513 2228 3513 1497 
Q 3513 744 3044 326 
Q 2575 -91 1722 -91 
Q 1428 -91 1123 -41 
Q 819 9 494 109 
L 494 744 
Q 775 591 1075 516 
Q 1375 441 1709 441 
Q 2250 441 2565 725 
Q 2881 1009 2881 1497 
Q 2881 1984 2565 2268 
Q 2250 2553 1709 2553 
Q 1456 2553 1204 2497 
Q 953 2441 691 2322 
L 691 4666 
z
" id="DejaVuSans-35" transform="scale(0.015625)"/>
       </defs>
       <use xlink:href="#DejaVuSans-35"/>
      </g>
     </g>
    </g>
    <g id="xtick_3">
     <g id="line2d_3">
      <g>
       <use style="stroke:#000000;stroke-width:0.8;" x="174.17116" xlink:href="#md96d06cb2f" y="252"/>
      </g>
     </g>
     <g id="text_3">
      <!-- 10 -->
      <g transform="translate(167.80866 266.598437)scale(0.1 -0.1)">
       <defs>
        <path d="M 794 531 
L 1825 531 
L 1825 4091 
L 703 3866 
L 703 4441 
L 1819 4666 
L 2450 4666 
L 2450 531 
L 3481 531 
L 3481 0 
L 794 0 
L 794 531 
z
" id="DejaVuSans-31" transform="scale(0.015625)"/>
       </defs>
       <use xlink:href="#DejaVuSans-31"/>
       <use x="63.623047" xlink:href="#DejaVuSans-30"/>
      </g>
     </g>
    </g>
    <g id="xtick_4">
     <g id="line2d_4">
      <g>
       <use style="stroke:#000000;stroke-width:0.8;" x="226.647649" xlink:href="#md96d06cb2f" y="252"/>
      </g>
     </g>
     <g id="text_4">
      <!-- 15 -->
      <g transform="translate(220.285149 266.598437)scale(0.1 -0.1)">
       <use xlink:href="#DejaVuSans-31"/>
       <use x="63.623047" xlink:href="#DejaVuSans-35"/>
      </g>
     </g>
    </g>
    <g id="xtick_5">
     <g id="line2d_5">
      <g>
       <use style="stroke:#000000;stroke-width:0.8;" x="279.124138" xlink:href="#md96d06cb2f" y="252"/>
      </g>
     </g>
     <g id="text_5">
      <!-- 20 -->
      <g transform="translate(272.761638 266.598437)scale(0.1 -0.1)">
       <defs>
        <path d="M 1228 531 
L 3431 531 
L 3431 0 
L 469 0 
L 469 531 
Q 828 903 1448 1529 
Q 2069 2156 2228 2338 
Q 2531 2678 2651 2914 
Q 2772 3150 2772 3378 
Q 2772 3750 2511 3984 
Q 2250 4219 1831 4219 
Q 1534 4219 1204 4116 
Q 875 4013 500 3803 
L 500 4441 
Q 881 4594 1212 4672 
Q 1544 4750 1819 4750 
Q 2544 4750 2975 4387 
Q 3406 4025 3406 3419 
Q 3406 3131 3298 2873 
Q 3191 2616 2906 2266 
Q 2828 2175 2409 1742 
Q 1991 1309 1228 531 
z
" id="DejaVuSans-32" transform="scale(0.015625)"/>
       </defs>
       <use xlink:href="#DejaVuSans-32"/>
       <use x="63.623047" xlink:href="#DejaVuSans-30"/>
      </g>
     </g>
    </g>
    <g id="xtick_6">
     <g id="line2d_6">
      <g>
       <use style="stroke:#000000;stroke-width:0.8;" x="331.600627" xlink:href="#md96d06cb2f" y="252"/>
      </g>
     </g>
     <g id="text_6">
      <!-- 25 -->
      <g transform="translate(325.238127 266.598437)scale(0.1 -0.1)">
       <use xlink:href="#DejaVuSans-32"/>
       <use x="63.623047" xlink:href="#DejaVuSans-35"/>
      </g>
     </g>
    </g>
    <g id="xtick_7">
     <g id="line2d_7">
      <g>
       <use style="stroke:#000000;stroke-width:0.8;" x="384.077116" xlink:href="#md96d06cb2f" y="252"/>
      </g>
     </g>
     <g id="text_7">
      <!-- 30 -->
      <g transform="translate(377.714616 266.598437)scale(0.1 -0.1)">
       <defs>
        <path d="M 2597 2516 
Q 3050 2419 3304 2112 
Q 3559 1806 3559 1356 
Q 3559 666 3084 287 
Q 2609 -91 1734 -91 
Q 1441 -91 1130 -33 
Q 819 25 488 141 
L 488 750 
Q 750 597 1062 519 
Q 1375 441 1716 441 
Q 2309 441 2620 675 
Q 2931 909 2931 1356 
Q 2931 1769 2642 2001 
Q 2353 2234 1838 2234 
L 1294 2234 
L 1294 2753 
L 1863 2753 
Q 2328 2753 2575 2939 
Q 2822 3125 2822 3475 
Q 2822 3834 2567 4026 
Q 2313 4219 1838 4219 
Q 1578 4219 1281 4162 
Q 984 4106 628 3988 
L 628 4550 
Q 988 4650 1302 4700 
Q 1616 4750 1894 4750 
Q 2613 4750 3031 4423 
Q 3450 4097 3450 3541 
Q 3450 3153 3228 2886 
Q 3006 2619 2597 2516 
z
" id="DejaVuSans-33" transform="scale(0.015625)"/>
       </defs>
       <use xlink:href="#DejaVuSans-33"/>
       <use x="63.623047" xlink:href="#DejaVuSans-30"/>
      </g>
     </g>
    </g>
    <g id="text_8">
     <!-- n -->
     <g transform="translate(218.23125 280.276563)scale(0.1 -0.1)">
      <defs>
       <path d="M 3513 2113 
L 3513 0 
L 2938 0 
L 2938 2094 
Q 2938 2591 2744 2837 
Q 2550 3084 2163 3084 
Q 1697 3084 1428 2787 
Q 1159 2491 1159 1978 
L 1159 0 
L 581 0 
L 581 3500 
L 1159 3500 
L 1159 2956 
Q 1366 3272 1645 3428 
Q 1925 3584 2291 3584 
Q 2894 3584 3203 3211 
Q 3513 2838 3513 2113 
z
" id="DejaVuSans-6e" transform="scale(0.015625)"/>
      </defs>
      <use xlink:href="#DejaVuSans-6e"/>
     </g>
    </g>
   </g>
   <g id="matplotlib.axis_2">
    <g id="ytick_1">
     <g id="line2d_8">
      <defs>
       <path d="M 0 0 
L -3.5 0 
" id="m4bb310b8c1" style="stroke:#000000;stroke-width:0.8;"/>
      </defs>
      <g>
       <use style="stroke:#000000;stroke-width:0.8;" x="54" xlink:href="#m4bb310b8c1" y="242.116371"/>
      </g>
     </g>
     <g id="text_9">
      <!-- 0 -->
      <g transform="translate(40.6375 245.91559)scale(0.1 -0.1)">
       <use xlink:href="#DejaVuSans-30"/>
      </g>
     </g>
    </g>
    <g id="ytick_2">
     <g id="line2d_9">
      <g>
       <use style="stroke:#000000;stroke-width:0.8;" x="54" xlink:href="#m4bb310b8c1" y="215.738482"/>
      </g>
     </g>
     <g id="text_10">
      <!-- 2500 -->
      <g transform="translate(21.55 219.537701)scale(0.1 -0.1)">
       <use xlink:href="#DejaVuSans-32"/>
       <use x="63.623047" xlink:href="#DejaVuSans-35"/>
       <use x="127.246094" xlink:href="#DejaVuSans-30"/>
       <use x="190.869141" xlink:href="#DejaVuSans-30"/>
      </g>
     </g>
    </g>
    <g id="ytick_3">
     <g id="line2d_10">
      <g>
       <use style="stroke:#000000;stroke-width:0.8;" x="54" xlink:href="#m4bb310b8c1" y="189.360593"/>
      </g>
     </g>
     <g id="text_11">
      <!-- 5000 -->
      <g transform="translate(21.55 193.159812)scale(0.1 -0.1)">
       <use xlink:href="#DejaVuSans-35"/>
       <use x="63.623047" xlink:href="#DejaVuSans-30"/>
       <use x="127.246094" xlink:href="#DejaVuSans-30"/>
       <use x="190.869141" xlink:href="#DejaVuSans-30"/>
      </g>
     </g>
    </g>
    <g id="ytick_4">
     <g id="line2d_11">
      <g>
       <use style="stroke:#000000;stroke-width:0.8;" x="54" xlink:href="#m4bb310b8c1" y="162.982704"/>
      </g>
     </g>
     <g id="text_12">
      <!-- 7500 -->
      <g transform="translate(21.55 166.781923)scale(0.1 -0.1)">
       <defs>
        <path d="M 525 4666 
L 3525 4666 
L 3525 4397 
L 1831 0 
L 1172 0 
L 2766 4134 
L 525 4134 
L 525 4666 
z
" id="DejaVuSans-37" transform="scale(0.015625)"/>
       </defs>
       <use xlink:href="#DejaVuSans-37"/>
       <use x="63.623047" xlink:href="#DejaVuSans-35"/>
       <use x="127.246094" xlink:href="#DejaVuSans-30"/>
       <use x="190.869141" xlink:href="#DejaVuSans-30"/>
      </g>
     </g>
    </g>
    <g id="ytick_5">
     <g id="line2d_12">
      <g>
       <use style="stroke:#000000;stroke-width:0.8;" x="54" xlink:href="#m4bb310b8c1" y="136.604815"/>
      </g>
     </g>
     <g id="text_13">
      <!-- 10000 -->
      <g transform="translate(15.1875 140.404034)scale(0.1 -0.1)">
       <use xlink:href="#DejaVuSans-31"/>
       <use x="63.623047" xlink:href="#DejaVuSans-30"/>
       <use x="127.246094" xlink:href="#DejaVuSans-30"/>
       <use x="190.869141" xlink:href="#DejaVuSans-30"/>
       <use x="254.492188" xlink:href="#DejaVuSans-30"/>
      </g>
     </g>
    </g>
    <g id="ytick_6">
     <g id="line2d_13">
      <g>
       <use style="stroke:#000000;stroke-width:0.8;" x="54" xlink:href="#m4bb310b8c1" y="110.226926"/>
      </g>
     </g>
     <g id="text_14">
      <!-- 12500 -->
      <g transform="translate(15.1875 114.026145)scale(0.1 -0.1)">
       <use xlink:href="#DejaVuSans-31"/>
       <use x="63.623047" xlink:href="#DejaVuSans-32"/>
       <use x="127.246094" xlink:href="#DejaVuSans-35"/>
       <use x="190.869141" xlink:href="#DejaVuSans-30"/>
       <use x="254.492188" xlink:href="#DejaVuSans-30"/>
      </g>
     </g>
    </g>
    <g id="ytick_7">
     <g id="line2d_14">
      <g>
       <use style="stroke:#000000;stroke-width:0.8;" x="54" xlink:href="#m4bb310b8c1" y="83.849037"/>
      </g>
     </g>
     <g id="text_15">
      <!-- 15000 -->
      <g transform="translate(15.1875 87.648256)scale(0.1 -0.1)">
       <use xlink:href="#DejaVuSans-31"/>
       <use x="63.623047" xlink:href="#DejaVuSans-35"/>
       <use x="127.246094" xlink:href="#DejaVuSans-30"/>
       <use x="190.869141" xlink:href="#DejaVuSans-30"/>
       <use x="254.492188" xlink:href="#DejaVuSans-30"/>
      </g>
     </g>
    </g>
    <g id="ytick_8">
     <g id="line2d_15">
      <g>
       <use style="stroke:#000000;stroke-width:0.8;" x="54" xlink:href="#m4bb310b8c1" y="57.471148"/>
      </g>
     </g>
     <g id="text_16">
      <!-- 17500 -->
      <g transform="translate(15.1875 61.270367)scale(0.1 -0.1)">
       <use xlink:href="#DejaVuSans-31"/>
       <use x="63.623047" xlink:href="#DejaVuSans-37"/>
       <use x="127.246094" xlink:href="#DejaVuSans-35"/>
       <use x="190.869141" xlink:href="#DejaVuSans-30"/>
       <use x="254.492188" xlink:href="#DejaVuSans-30"/>
      </g>
     </g>
    </g>
    <g id="text_17">
     <!-- tiempo (ms) -->
     <g transform="translate(9.107812 173.775312)rotate(-90)scale(0.1 -0.1)">
      <defs>
       <path d="M 1172 4494 
L 1172 3500 
L 2356 3500 
L 2356 3053 
L 1172 3053 
L 1172 1153 
Q 1172 725 1289 603 
Q 1406 481 1766 481 
L 2356 481 
L 2356 0 
L 1766 0 
Q 1100 0 847 248 
Q 594 497 594 1153 
L 594 3053 
L 172 3053 
L 172 3500 
L 594 3500 
L 594 4494 
L 1172 4494 
z
" id="DejaVuSans-74" transform="scale(0.015625)"/>
       <path d="M 603 3500 
L 1178 3500 
L 1178 0 
L 603 0 
L 603 3500 
z
M 603 4863 
L 1178 4863 
L 1178 4134 
L 603 4134 
L 603 4863 
z
" id="DejaVuSans-69" transform="scale(0.015625)"/>
       <path d="M 3597 1894 
L 3597 1613 
L 953 1613 
Q 991 1019 1311 708 
Q 1631 397 2203 397 
Q 2534 397 2845 478 
Q 3156 559 3463 722 
L 3463 178 
Q 3153 47 2828 -22 
Q 2503 -91 2169 -91 
Q 1331 -91 842 396 
Q 353 884 353 1716 
Q 353 2575 817 3079 
Q 1281 3584 2069 3584 
Q 2775 3584 3186 3129 
Q 3597 2675 3597 1894 
z
M 3022 2063 
Q 3016 2534 2758 2815 
Q 2500 3097 2075 3097 
Q 1594 3097 1305 2825 
Q 1016 2553 972 2059 
L 3022 2063 
z
" id="DejaVuSans-65" transform="scale(0.015625)"/>
       <path d="M 3328 2828 
Q 3544 3216 3844 3400 
Q 4144 3584 4550 3584 
Q 5097 3584 5394 3201 
Q 5691 2819 5691 2113 
L 5691 0 
L 5113 0 
L 5113 2094 
Q 5113 2597 4934 2840 
Q 4756 3084 4391 3084 
Q 3944 3084 3684 2787 
Q 3425 2491 3425 1978 
L 3425 0 
L 2847 0 
L 2847 2094 
Q 2847 2600 2669 2842 
Q 2491 3084 2119 3084 
Q 1678 3084 1418 2786 
Q 1159 2488 1159 1978 
L 1159 0 
L 581 0 
L 581 3500 
L 1159 3500 
L 1159 2956 
Q 1356 3278 1631 3431 
Q 1906 3584 2284 3584 
Q 2666 3584 2933 3390 
Q 3200 3197 3328 2828 
z
" id="DejaVuSans-6d" transform="scale(0.015625)"/>
       <path d="M 1159 525 
L 1159 -1331 
L 581 -1331 
L 581 3500 
L 1159 3500 
L 1159 2969 
Q 1341 3281 1617 3432 
Q 1894 3584 2278 3584 
Q 2916 3584 3314 3078 
Q 3713 2572 3713 1747 
Q 3713 922 3314 415 
Q 2916 -91 2278 -91 
Q 1894 -91 1617 61 
Q 1341 213 1159 525 
z
M 3116 1747 
Q 3116 2381 2855 2742 
Q 2594 3103 2138 3103 
Q 1681 3103 1420 2742 
Q 1159 2381 1159 1747 
Q 1159 1113 1420 752 
Q 1681 391 2138 391 
Q 2594 391 2855 752 
Q 3116 1113 3116 1747 
z
" id="DejaVuSans-70" transform="scale(0.015625)"/>
       <path d="M 1959 3097 
Q 1497 3097 1228 2736 
Q 959 2375 959 1747 
Q 959 1119 1226 758 
Q 1494 397 1959 397 
Q 2419 397 2687 759 
Q 2956 1122 2956 1747 
Q 2956 2369 2687 2733 
Q 2419 3097 1959 3097 
z
M 1959 3584 
Q 2709 3584 3137 3096 
Q 3566 2609 3566 1747 
Q 3566 888 3137 398 
Q 2709 -91 1959 -91 
Q 1206 -91 779 398 
Q 353 888 353 1747 
Q 353 2609 779 3096 
Q 1206 3584 1959 3584 
z
" id="DejaVuSans-6f" transform="scale(0.015625)"/>
       <path id="DejaVuSans-20" transform="scale(0.015625)"/>
       <path d="M 1984 4856 
Q 1566 4138 1362 3434 
Q 1159 2731 1159 2009 
Q 1159 1288 1364 580 
Q 1569 -128 1984 -844 
L 1484 -844 
Q 1016 -109 783 600 
Q 550 1309 550 2009 
Q 550 2706 781 3412 
Q 1013 4119 1484 4856 
L 1984 4856 
z
" id="DejaVuSans-28" transform="scale(0.015625)"/>
       <path d="M 2834 3397 
L 2834 2853 
Q 2591 2978 2328 3040 
Q 2066 3103 1784 3103 
Q 1356 3103 1142 2972 
Q 928 2841 928 2578 
Q 928 2378 1081 2264 
Q 1234 2150 1697 2047 
L 1894 2003 
Q 2506 1872 2764 1633 
Q 3022 1394 3022 966 
Q 3022 478 2636 193 
Q 2250 -91 1575 -91 
Q 1294 -91 989 -36 
Q 684 19 347 128 
L 347 722 
Q 666 556 975 473 
Q 1284 391 1588 391 
Q 1994 391 2212 530 
Q 2431 669 2431 922 
Q 2431 1156 2273 1281 
Q 2116 1406 1581 1522 
L 1381 1569 
Q 847 1681 609 1914 
Q 372 2147 372 2553 
Q 372 3047 722 3315 
Q 1072 3584 1716 3584 
Q 2034 3584 2315 3537 
Q 2597 3491 2834 3397 
z
" id="DejaVuSans-73" transform="scale(0.015625)"/>
       <path d="M 513 4856 
L 1013 4856 
Q 1481 4119 1714 3412 
Q 1947 2706 1947 2009 
Q 1947 1309 1714 600 
Q 1481 -109 1013 -844 
L 513 -844 
Q 928 -128 1133 580 
Q 1338 1288 1338 2009 
Q 1338 2731 1133 3434 
Q 928 4138 513 4856 
z
" id="DejaVuSans-29" transform="scale(0.015625)"/>
      </defs>
      <use xlink:href="#DejaVuSans-74"/>
      <use x="39.208984" xlink:href="#DejaVuSans-69"/>
      <use x="66.992188" xlink:href="#DejaVuSans-65"/>
      <use x="128.515625" xlink:href="#DejaVuSans-6d"/>
      <use x="225.927734" xlink:href="#DejaVuSans-70"/>
      <use x="289.404297" xlink:href="#DejaVuSans-6f"/>
      <use x="350.585938" xlink:href="#DejaVuSans-20"/>
      <use x="382.373047" xlink:href="#DejaVuSans-28"/>
      <use x="421.386719" xlink:href="#DejaVuSans-6d"/>
      <use x="518.798828" xlink:href="#DejaVuSans-73"/>
      <use x="570.898438" xlink:href="#DejaVuSans-29"/>
     </g>
    </g>
   </g>
   <g id="patch_3">
    <path d="M 54 252 
L 54 34.56 
" style="fill:none;stroke:#000000;stroke-linecap:square;stroke-linejoin:miter;stroke-width:0.8;"/>
   </g>
   <g id="patch_4">
    <path d="M 388.8 252 
L 388.8 34.56 
" style="fill:none;stroke:#000000;stroke-linecap:square;stroke-linejoin:miter;stroke-width:0.8;"/>
   </g>
   <g id="patch_5">
    <path d="M 54 252 
L 388.8 252 
" style="fill:none;stroke:#000000;stroke-linecap:square;stroke-linejoin:miter;stroke-width:0.8;"/>
   </g>
   <g id="patch_6">
    <path d="M 54 34.56 
L 388.8 34.56 
" style="fill:none;stroke:#000000;stroke-linecap:square;stroke-linejoin:miter;stroke-width:0.8;"/>
   </g>
   <g id="legend_1">
    <g id="patch_7">
     <path d="M 61 101.2725 
L 190.282813 101.2725 
Q 192.282813 101.2725 192.282813 99.2725 
L 192.282813 41.56 
Q 192.282813 39.56 190.282813 39.56 
L 61 39.56 
Q 59 39.56 59 41.56 
L 59 99.2725 
Q 59 101.2725 61 101.2725 
z
" style="fill:#ffffff;opacity:0.8;stroke:#cccccc;stroke-linejoin:miter;"/>
    </g>
    <g id="text_18">
     <!-- dataset -->
     <g transform="translate(106.7375 51.158437)scale(0.1 -0.1)">
      <defs>
       <path d="M 2906 2969 
L 2906 4863 
L 3481 4863 
L 3481 0 
L 2906 0 
L 2906 525 
Q 2725 213 2448 61 
Q 2172 -91 1784 -91 
Q 1150 -91 751 415 
Q 353 922 353 1747 
Q 353 2572 751 3078 
Q 1150 3584 1784 3584 
Q 2172 3584 2448 3432 
Q 2725 3281 2906 2969 
z
M 947 1747 
Q 947 1113 1208 752 
Q 1469 391 1925 391 
Q 2381 391 2643 752 
Q 2906 1113 2906 1747 
Q 2906 2381 2643 2742 
Q 2381 3103 1925 3103 
Q 1469 3103 1208 2742 
Q 947 2381 947 1747 
z
" id="DejaVuSans-64" transform="scale(0.015625)"/>
       <path d="M 2194 1759 
Q 1497 1759 1228 1600 
Q 959 1441 959 1056 
Q 959 750 1161 570 
Q 1363 391 1709 391 
Q 2188 391 2477 730 
Q 2766 1069 2766 1631 
L 2766 1759 
L 2194 1759 
z
M 3341 1997 
L 3341 0 
L 2766 0 
L 2766 531 
Q 2569 213 2275 61 
Q 1981 -91 1556 -91 
Q 1019 -91 701 211 
Q 384 513 384 1019 
Q 384 1609 779 1909 
Q 1175 2209 1959 2209 
L 2766 2209 
L 2766 2266 
Q 2766 2663 2505 2880 
Q 2244 3097 1772 3097 
Q 1472 3097 1187 3025 
Q 903 2953 641 2809 
L 641 3341 
Q 956 3463 1253 3523 
Q 1550 3584 1831 3584 
Q 2591 3584 2966 3190 
Q 3341 2797 3341 1997 
z
" id="DejaVuSans-61" transform="scale(0.015625)"/>
      </defs>
      <use xlink:href="#DejaVuSans-64"/>
      <use x="63.476562" xlink:href="#DejaVuSans-61"/>
      <use x="124.755859" xlink:href="#DejaVuSans-74"/>
      <use x="163.964844" xlink:href="#DejaVuSans-61"/>
      <use x="225.244141" xlink:href="#DejaVuSans-73"/>
      <use x="277.34375" xlink:href="#DejaVuSans-65"/>
      <use x="338.867188" xlink:href="#DejaVuSans-74"/>
     </g>
    </g>
    <g id="PathCollection_5">
     <defs>
      <path d="M 0 3 
C 0.795609 3 1.55874 2.683901 2.12132 2.12132 
C 2.683901 1.55874 3 0.795609 3 0 
C 3 -0.795609 2.683901 -1.55874 2.12132 -2.12132 
C 1.55874 -2.683901 0.795609 -3 0 -3 
C -0.795609 -3 -1.55874 -2.683901 -2.12132 -2.12132 
C -2.683901 -1.55874 -3 -0.795609 -3 0 
C -3 0.795609 -2.683901 1.55874 -2.12132 2.12132 
C -1.55874 2.683901 -0.795609 3 0 3 
z
" id="mca4563e926" style="stroke:#1f77b4;"/>
     </defs>
     <g>
      <use style="fill:#1f77b4;stroke:#1f77b4;" x="73" xlink:href="#mca4563e926" y="63.211562"/>
     </g>
    </g>
    <g id="text_19">
     <!-- densidad-alta -->
     <g transform="translate(91 65.836562)scale(0.1 -0.1)">
      <defs>
       <path d="M 313 2009 
L 1997 2009 
L 1997 1497 
L 313 1497 
L 313 2009 
z
" id="DejaVuSans-2d" transform="scale(0.015625)"/>
       <path d="M 603 4863 
L 1178 4863 
L 1178 0 
L 603 0 
L 603 4863 
z
" id="DejaVuSans-6c" transform="scale(0.015625)"/>
      </defs>
      <use xlink:href="#DejaVuSans-64"/>
      <use x="63.476562" xlink:href="#DejaVuSans-65"/>
      <use x="125" xlink:href="#DejaVuSans-6e"/>
      <use x="188.378906" xlink:href="#DejaVuSans-73"/>
      <use x="240.478516" xlink:href="#DejaVuSans-69"/>
      <use x="268.261719" xlink:href="#DejaVuSans-64"/>
      <use x="331.738281" xlink:href="#DejaVuSans-61"/>
      <use x="393.017578" xlink:href="#DejaVuSans-64"/>
      <use x="456.494141" xlink:href="#DejaVuSans-2d"/>
      <use x="492.578125" xlink:href="#DejaVuSans-61"/>
      <use x="553.857422" xlink:href="#DejaVuSans-6c"/>
      <use x="581.640625" xlink:href="#DejaVuSans-74"/>
      <use x="620.849609" xlink:href="#DejaVuSans-61"/>
     </g>
    </g>
    <g id="PathCollection_6">
     <defs>
      <path d="M 0 3 
C 0.795609 3 1.55874 2.683901 2.12132 2.12132 
C 2.683901 1.55874 3 0.795609 3 0 
C 3 -0.795609 2.683901 -1.55874 2.12132 -2.12132 
C 1.55874 -2.683901 0.795609 -3 0 -3 
C -0.795609 -3 -1.55874 -2.683901 -2.12132 -2.12132 
C -2.683901 -1.55874 -3 -0.795609 -3 0 
C -3 0.795609 -2.683901 1.55874 -2.12132 2.12132 
C -1.55874 2.683901 -0.795609 3 0 3 
z
" id="mfa9c835805" style="stroke:#ff7f0e;"/>
     </defs>
     <g>
      <use style="fill:#ff7f0e;stroke:#ff7f0e;" x="73" xlink:href="#mfa9c835805" y="77.889687"/>
     </g>
    </g>
    <g id="text_20">
     <!-- densidad-baja -->
     <g transform="translate(91 80.514687)scale(0.1 -0.1)">
      <defs>
       <path d="M 3116 1747 
Q 3116 2381 2855 2742 
Q 2594 3103 2138 3103 
Q 1681 3103 1420 2742 
Q 1159 2381 1159 1747 
Q 1159 1113 1420 752 
Q 1681 391 2138 391 
Q 2594 391 2855 752 
Q 3116 1113 3116 1747 
z
M 1159 2969 
Q 1341 3281 1617 3432 
Q 1894 3584 2278 3584 
Q 2916 3584 3314 3078 
Q 3713 2572 3713 1747 
Q 3713 922 3314 415 
Q 2916 -91 2278 -91 
Q 1894 -91 1617 61 
Q 1341 213 1159 525 
L 1159 0 
L 581 0 
L 581 4863 
L 1159 4863 
L 1159 2969 
z
" id="DejaVuSans-62" transform="scale(0.015625)"/>
       <path d="M 603 3500 
L 1178 3500 
L 1178 -63 
Q 1178 -731 923 -1031 
Q 669 -1331 103 -1331 
L -116 -1331 
L -116 -844 
L 38 -844 
Q 366 -844 484 -692 
Q 603 -541 603 -63 
L 603 3500 
z
M 603 4863 
L 1178 4863 
L 1178 4134 
L 603 4134 
L 603 4863 
z
" id="DejaVuSans-6a" transform="scale(0.015625)"/>
      </defs>
      <use xlink:href="#DejaVuSans-64"/>
      <use x="63.476562" xlink:href="#DejaVuSans-65"/>
      <use x="125" xlink:href="#DejaVuSans-6e"/>
      <use x="188.378906" xlink:href="#DejaVuSans-73"/>
      <use x="240.478516" xlink:href="#DejaVuSans-69"/>
      <use x="268.261719" xlink:href="#DejaVuSans-64"/>
      <use x="331.738281" xlink:href="#DejaVuSans-61"/>
      <use x="393.017578" xlink:href="#DejaVuSans-64"/>
      <use x="456.494141" xlink:href="#DejaVuSans-2d"/>
      <use x="492.578125" xlink:href="#DejaVuSans-62"/>
      <use x="556.054688" xlink:href="#DejaVuSans-61"/>
      <use x="617.333984" xlink:href="#DejaVuSans-6a"/>
      <use x="645.117188" xlink:href="#DejaVuSans-61"/>
     </g>
    </g>
    <g id="PathCollection_7">
     <defs>
      <path d="M 0 3 
C 0.795609 3 1.55874 2.683901 2.12132 2.12132 
C 2.683901 1.55874 3 0.795609 3 0 
C 3 -0.795609 2.683901 -1.55874 2.12132 -2.12132 
C 1.55874 -2.683901 0.795609 -3 0 -3 
C -0.795609 -3 -1.55874 -2.683901 -2.12132 -2.12132 
C -2.683901 -1.55874 -3 -0.795609 -3 0 
C -3 0.795609 -2.683901 1.55874 -2.12132 2.12132 
C -1.55874 2.683901 -0.795609 3 0 3 
z
" id="m9908eec21f" style="stroke:#2ca02c;"/>
     </defs>
     <g>
      <use style="fill:#2ca02c;stroke:#2ca02c;" x="73" xlink:href="#m9908eec21f" y="92.567813"/>
     </g>
    </g>
    <g id="text_21">
     <!-- densidad-mezclada -->
     <g transform="translate(91 95.192813)scale(0.1 -0.1)">
      <defs>
       <path d="M 353 3500 
L 3084 3500 
L 3084 2975 
L 922 459 
L 3084 459 
L 3084 0 
L 275 0 
L 275 525 
L 2438 3041 
L 353 3041 
L 353 3500 
z
" id="DejaVuSans-7a" transform="scale(0.015625)"/>
       <path d="M 3122 3366 
L 3122 2828 
Q 2878 2963 2633 3030 
Q 2388 3097 2138 3097 
Q 1578 3097 1268 2742 
Q 959 2388 959 1747 
Q 959 1106 1268 751 
Q 1578 397 2138 397 
Q 2388 397 2633 464 
Q 2878 531 3122 666 
L 3122 134 
Q 2881 22 2623 -34 
Q 2366 -91 2075 -91 
Q 1284 -91 818 406 
Q 353 903 353 1747 
Q 353 2603 823 3093 
Q 1294 3584 2113 3584 
Q 2378 3584 2631 3529 
Q 2884 3475 3122 3366 
z
" id="DejaVuSans-63" transform="scale(0.015625)"/>
      </defs>
      <use xlink:href="#DejaVuSans-64"/>
      <use x="63.476562" xlink:href="#DejaVuSans-65"/>
      <use x="125" xlink:href="#DejaVuSans-6e"/>
      <use x="188.378906" xlink:href="#DejaVuSans-73"/>
      <use x="240.478516" xlink:href="#DejaVuSans-69"/>
      <use x="268.261719" xlink:href="#DejaVuSans-64"/>
      <use x="331.738281" xlink:href="#DejaVuSans-61"/>
      <use x="393.017578" xlink:href="#DejaVuSans-64"/>
      <use x="456.494141" xlink:href="#DejaVuSans-2d"/>
      <use x="492.578125" xlink:href="#DejaVuSans-6d"/>
      <use x="589.990234" xlink:href="#DejaVuSans-65"/>
      <use x="651.513672" xlink:href="#DejaVuSans-7a"/>
      <use x="704.003906" xlink:href="#DejaVuSans-63"/>
      <use x="758.984375" xlink:href="#DejaVuSans-6c"/>
      <use x="786.767578" xlink:href="#DejaVuSans-61"/>
      <use x="848.046875" xlink:href="#DejaVuSans-64"/>
      <use x="911.523438" xlink:href="#DejaVuSans-61"/>
     </g>
    </g>
   </g>
  </g>
 </g>
 <defs>
  <clipPath id="pb1c73ae2de">
   <rect height="217.44" width="334.8" x="54" y="34.56"/>
  </clipPath>
 </defs>
</svg>
